<svg width="1400" height="1400" viewBox="0 0 1400 1400" fill="none" xmlns="http://www.w3.org/2000/svg">
<rect width="1400" height="1400" fill="white"/>
<path d="M712.894 733.346C800.04 732.188 869.991 664.261 869.135 581.625C868.278 498.99 796.938 432.94 709.792 434.098C622.646 435.256 552.695 503.184 553.551 585.819C554.408 668.454 625.748 734.505 712.894 733.346Z" fill="#FFD74F"/>
<path d="M571.547 787.309L710.584 869.858L710.268 983.554L571.547 787.309Z" fill="#29A9AF" stroke="#2B1EBC" stroke-width="1.5" stroke-linejoin="round"/>
<path d="M571.616 760.788L711.058 697.926L711.523 530.442L571.616 760.788Z" fill="#64CAE7" stroke="#2B1EBC" stroke-width="1.5" stroke-linejoin="round"/>
<path d="M571.617 760.789L711.058 697.926L710.654 843.454L571.617 760.789Z" fill="#8AE9EE" stroke="#2B1EBC" stroke-width="1.5" stroke-linejoin="round"/>
<path d="M850.07 788.196L710.576 869.861L710.26 983.557L850.07 788.196Z" fill="#18CAD3" stroke="#2B1EBC" stroke-width="1.5" stroke-linejoin="round"/>
<path d="M850.151 761.672L711.062 697.925L711.527 530.441L850.151 761.672Z" fill="#64CAE6" stroke="#2B1EBC" stroke-width="1.5" stroke-linejoin="round"/>
<path d="M850.05 761.778L710.961 698.031L710.556 843.559L850.05 761.778Z" fill="#8AE9EE" stroke="#2B1EBC" stroke-width="1.5" stroke-linejoin="round"/>
<path d="M451.577 438.765C453.417 440.412 454.73 442.574 455.355 444.985L459.129 444.351C458.379 441.055 456.634 438.09 454.134 435.862C451.709 433.694 448.691 432.308 445.461 431.881L445.126 435.752C447.431 436.097 449.713 437.097 451.577 438.765Z" fill="#02E2AC"/>
<path d="M462.037 443.696C459.459 444.123 450.681 445.733 449.516 445.946C449.133 444.89 448.495 443.952 447.658 443.215C446.822 442.478 445.813 441.966 444.723 441.726L445.571 431.951L445.726 429.013C445.824 428.345 445.58 428.004 444.916 427.958C444.05 427.899 443.18 427.896 442.312 427.949C437.675 428.23 433.106 430.111 429.485 433.526L426.601 430.946C425.838 430.263 424.651 430.258 423.913 430.995C423.723 431.185 423.573 431.411 423.472 431.66C423.371 431.908 423.321 432.174 423.325 432.441C423.33 432.708 423.389 432.971 423.498 433.212C423.607 433.453 423.765 433.668 423.961 433.844L426.895 436.469C425.906 437.827 425.084 439.299 424.447 440.853L420.772 437.565C420.009 436.882 418.822 436.877 418.084 437.614C417.894 437.804 417.744 438.03 417.643 438.278C417.542 438.527 417.492 438.793 417.497 439.06C417.501 439.327 417.56 439.589 417.669 439.831C417.779 440.072 417.936 440.287 418.133 440.462L423.226 445.02C421.997 451.752 424.113 458.886 429.442 463.733C437.723 471.265 450.832 470.236 458.373 461.673L468.44 450.241C468.624 450.033 468.729 449.767 468.738 449.49C468.747 449.214 468.659 448.945 468.489 448.731L463.297 444.063C463.128 443.911 462.928 443.799 462.71 443.736C462.492 443.672 462.262 443.659 462.037 443.696ZM461.672 447.838L463.762 449.736L455.478 459.142C449.392 466.053 438.795 466.904 432.094 460.846C428.415 457.521 426.617 452.855 426.759 448.183L429.544 450.675C430.307 451.358 431.494 451.364 432.232 450.626C432.422 450.437 432.572 450.211 432.673 449.962C432.774 449.713 432.824 449.447 432.82 449.18C432.815 448.913 432.756 448.651 432.647 448.41C432.538 448.169 432.38 447.954 432.184 447.778L427.534 443.617C428.245 441.361 429.422 439.276 430.987 437.502C433.883 434.213 437.386 432.393 441.374 431.97L440.687 442.092C439.717 442.494 438.848 443.118 438.15 443.912C435.646 446.755 435.861 451.069 438.631 453.547C441.4 456.026 445.675 455.73 448.179 452.887C448.889 452.081 449.405 451.12 449.683 450.084L461.672 447.838ZM445.107 446.193C445.533 446.573 445.834 447.075 445.974 447.633C446.114 448.192 446.086 448.783 445.894 449.332C445.701 449.881 445.353 450.362 444.893 450.716C444.433 451.07 443.883 451.28 443.31 451.319C442.738 451.359 442.17 451.227 441.678 450.939C441.186 450.651 440.792 450.22 440.547 449.702C440.301 449.183 440.215 448.6 440.298 448.026C440.381 447.452 440.631 446.913 441.015 446.476C441.531 445.891 442.251 445.532 443.019 445.479C443.786 445.426 444.537 445.683 445.107 446.193Z" fill="#204473"/>
<path d="M930.993 975.377C929.198 973.295 928.049 970.717 927.686 967.961L923.471 968.128C923.854 971.881 925.369 975.408 927.808 978.227C930.174 980.97 933.293 982.93 936.771 983.861L937.653 979.625C935.176 978.917 932.811 977.487 930.993 975.377Z" fill="#02E2AC"/>
<path d="M920.2 968.441C923.078 968.334 932.9 967.797 934.204 967.726C934.482 968.949 935.056 970.077 935.874 971.011C936.691 971.944 937.727 972.654 938.887 973.074L936.659 983.768L936.098 986.996C935.902 987.722 936.123 988.134 936.845 988.278C937.784 988.466 938.736 988.593 939.693 988.657C944.806 989.003 950.057 987.57 954.475 984.304L957.288 987.567C958.032 988.431 959.33 988.605 960.236 987.893C960.469 987.711 960.664 987.482 960.807 987.221C960.951 986.96 961.041 986.673 961.072 986.377C961.103 986.081 961.073 985.782 960.986 985.5C960.898 985.218 960.754 984.957 960.563 984.735L957.701 981.415C958.964 980.053 960.06 978.541 960.964 976.911L964.549 981.071C965.293 981.934 966.591 982.108 967.497 981.396C967.73 981.214 967.924 980.985 968.068 980.724C968.212 980.463 968.302 980.176 968.333 979.88C968.363 979.584 968.334 979.286 968.246 979.003C968.159 978.721 968.015 978.461 967.823 978.239L962.855 972.474C965.096 965.201 963.73 957.009 958.542 950.891C950.481 941.386 935.996 940.667 926.602 949.073L914.063 960.293C913.834 960.498 913.683 960.777 913.636 961.082C913.59 961.387 913.65 961.697 913.808 961.957L918.87 967.857C919.034 968.049 919.238 968.201 919.468 968.302C919.698 968.403 919.948 968.451 920.2 968.441ZM921.151 963.91L919.116 961.515L929.434 952.282C937.015 945.499 948.728 946.059 955.256 953.71C958.84 957.909 960.186 963.327 959.409 968.475L956.692 965.323C955.948 964.459 954.65 964.286 953.744 964.997C953.511 965.18 953.317 965.408 953.173 965.669C953.029 965.93 952.939 966.217 952.908 966.513C952.878 966.809 952.907 967.108 952.995 967.39C953.082 967.672 953.226 967.933 953.418 968.154L957.953 973.417C956.875 975.812 955.309 977.952 953.36 979.693C949.752 982.922 945.676 984.439 941.255 984.342L943.354 973.241C944.47 972.933 945.503 972.366 946.373 971.586C949.492 968.796 949.831 963.993 947.129 960.859C944.428 957.724 939.71 957.446 936.591 960.237C935.706 961.028 935.014 962.017 934.571 963.125L921.151 963.91ZM939.062 968.077C938.647 967.596 938.384 966.999 938.305 966.361C938.226 965.723 938.336 965.073 938.619 964.494C938.903 963.914 939.348 963.43 939.898 963.104C940.449 962.777 941.079 962.623 941.711 962.661C942.343 962.698 942.947 962.925 943.447 963.313C943.947 963.701 944.321 964.233 944.52 964.842C944.72 965.45 944.737 966.107 944.57 966.731C944.402 967.354 944.057 967.915 943.578 968.344C942.936 968.918 942.1 969.213 941.253 969.163C940.406 969.113 939.618 968.722 939.062 968.077Z" fill="#204473"/>
<path d="M659.209 546.025C656.393 545.708 653.664 544.775 651.188 543.282C650.524 542.883 649.778 542.674 649.019 542.676C648.26 542.674 647.513 542.882 646.849 543.28C646.184 543.679 645.624 544.254 645.221 544.952C645.152 545.07 645.057 545.168 644.944 545.235C644.831 545.303 644.704 545.338 644.575 545.337V545.337C644.402 545.338 644.233 545.275 644.097 545.159C643.961 545.042 643.866 544.879 643.827 544.695C643.464 542.94 642.562 541.371 641.269 540.247C639.975 539.123 638.368 538.511 636.711 538.512C636.453 538.512 636.194 538.527 635.937 538.557C635.661 538.59 635.386 538.639 635.115 538.705C635.099 538.656 635.083 538.606 635.066 538.557C634.286 536.215 632.861 534.19 630.984 532.759C629.106 531.328 626.868 530.56 624.575 530.56C623.883 530.561 623.192 530.632 622.512 530.771C620.702 531.143 619.005 531.995 617.572 533.251C616.139 534.507 615.014 536.129 614.297 537.971C614.158 538.324 614.036 538.689 613.931 539.065C613.292 538.703 612.581 538.514 611.86 538.515C611.656 538.515 611.452 538.53 611.25 538.56C612.99 536.274 613.926 533.392 613.891 530.427C613.825 523.761 608.909 518.265 602.776 518.009C601.22 517.944 599.668 518.22 598.213 518.821C596.757 519.422 595.429 520.336 594.306 521.507C593.183 522.679 592.29 524.085 591.679 525.64C591.068 527.195 590.752 528.869 590.751 530.56C590.751 530.79 590.751 531.019 590.768 531.245C588.086 531.69 585.558 532.886 583.432 534.715C581.305 536.545 579.654 538.944 578.641 541.677V541.677C575.585 541.677 572.609 542.739 570.149 544.707L569.361 545.337L555 548H677L659.209 546.025Z" fill="#F0F2F5"/>
<path d="M853.209 545.21C851.5 545.083 849.845 544.71 848.344 544.113C847.941 543.953 847.488 543.87 847.028 543.87C846.568 543.87 846.115 543.953 845.712 544.112C845.309 544.271 844.969 544.502 844.724 544.781C844.682 544.828 844.625 544.867 844.556 544.894C844.487 544.921 844.41 544.935 844.332 544.935V544.935C844.227 544.935 844.125 544.91 844.043 544.863C843.96 544.817 843.902 544.751 843.878 544.678C843.659 543.976 843.111 543.348 842.327 542.899C841.542 542.449 840.567 542.204 839.562 542.205C839.406 542.205 839.249 542.211 839.093 542.223C838.925 542.236 838.759 542.256 838.594 542.282C838.585 542.263 838.575 542.242 838.565 542.223C838.092 541.286 837.227 540.476 836.088 539.904C834.95 539.331 833.592 539.024 832.201 539.024C831.781 539.025 831.362 539.053 830.95 539.109C829.852 539.257 828.823 539.598 827.954 540.1C827.084 540.603 826.402 541.251 825.967 541.988C825.883 542.13 825.809 542.275 825.745 542.426C825.357 542.281 824.926 542.206 824.489 542.206C824.365 542.206 824.242 542.212 824.119 542.224C825.174 541.31 825.742 540.157 825.721 538.971C825.681 536.304 822.699 534.106 818.979 534.004C818.035 533.978 817.094 534.088 816.211 534.328C815.328 534.569 814.522 534.934 813.841 535.403C813.16 535.872 812.618 536.434 812.248 537.056C811.877 537.678 811.686 538.347 811.685 539.024C811.685 539.116 811.685 539.208 811.695 539.298C810.069 539.476 808.535 539.955 807.245 540.686C805.956 541.418 804.954 542.377 804.34 543.471V543.471C802.486 543.471 800.681 543.896 799.189 544.683L798.711 544.935L790 546H864L853.209 545.21Z" fill="#F0F2F5"/>
<path d="M786.438 756.022C785.378 755.685 783.325 757.126 782.207 758.792C781.09 760.459 779.856 762.769 780.188 764.783C780.381 766.165 781.005 767.398 781.926 768.218C783.801 768.705 785.743 768.646 787.597 768.044C789.716 767.134 792.713 764.415 793.3 762.207C793.888 759.999 788.458 756.687 786.438 756.022Z" fill="#664B35"/>
<g style="mix-blend-mode:screen" opacity="0.3">
<path d="M792.629 762.462C791.837 764.191 790.697 765.639 789.318 766.663C788.551 767.042 787.703 767.096 786.909 766.817C786.263 766.346 785.965 764.363 785.965 762.472C785.965 761.613 785.891 760.816 785.891 760.816C787.338 761.415 788.694 762.307 789.906 763.453C789.279 762.119 788.577 760.841 787.803 759.63C787.231 758.773 786.7 757.875 786.213 756.941C787.87 757.664 789.447 758.639 790.907 759.845C792.704 761.511 792.861 761.981 792.629 762.462Z" fill="#664B35"/>
</g>
<g style="mix-blend-mode:multiply" opacity="0.4">
<path d="M780.187 764.772C779.856 762.728 781.098 760.448 782.207 758.782C782.752 758.002 783.395 757.336 784.111 756.809C783.118 757.807 782.339 759.092 781.843 760.55C781.172 762.799 782.24 765.661 782.961 766.684C783.681 767.706 785.99 767.706 787.1 767.655C788.209 767.604 790.692 766.121 792.563 763.801C791.338 765.74 789.678 767.193 787.79 767.978C785.901 768.763 783.868 768.846 781.942 768.217C781.013 767.399 780.382 766.161 780.187 764.772V764.772Z" fill="#664B35"/>
</g>
<path d="M775.84 608.195C775.84 608.195 797.363 593.709 819.425 622.844C841.487 651.979 834.268 677.127 824.814 690.048C824.814 690.048 825.004 683.598 821.834 675.358C821.834 675.358 824.69 672.69 825.584 669.674C824.252 670.528 822.868 671.253 821.445 671.842C822.639 669.904 823.388 667.605 823.614 665.187C822.595 666.519 821.42 667.656 820.129 668.56C818.311 661.463 815.745 654.692 812.496 648.421C812.496 648.421 815.112 643.31 815.36 639.405C815.36 639.405 813.523 640.284 811.892 644.516C811.892 644.516 811.486 640.846 808.895 635.234C808.895 635.234 810.807 630.123 812.206 628.395C810.861 629.239 809.652 630.379 808.638 631.758C808.638 631.758 802.968 622.507 794.011 618.336C794.759 616.698 795.187 614.867 795.261 612.989L793.373 615.831C793.373 615.831 787.405 610.27 775.84 608.195Z" fill="#65B204"/>
<path d="M781.128 604.074C781.128 604.074 798.58 586.703 826.668 606.771C854.757 626.839 853.61 650.137 847.466 663.414C847.466 663.414 846.154 657.816 841.177 651.443C841.177 651.443 843.32 648.495 843.485 645.695C842.395 646.734 841.225 647.673 839.985 648.503C840.69 646.563 840.881 644.413 840.539 642.279C839.862 643.658 838.99 644.905 837.951 645.977C834.548 640.279 830.496 635.032 825.901 630.372C825.901 630.372 827.245 625.376 826.579 621.956C826.579 621.956 825.006 623.132 824.411 627.147C824.411 627.147 823.167 624.079 819.36 619.836C819.36 619.836 820.024 614.999 820.976 613.193C819.871 614.226 818.967 615.483 818.306 616.901C818.306 616.901 810.677 610.225 801.049 608.672C801.393 607.091 801.382 605.417 801.018 603.783L799.852 606.66C799.852 606.66 792.791 603.229 781.128 604.074Z" fill="#65B204"/>
<path d="M787.572 599.18C787.572 599.18 789.092 581.611 816.954 591.181C844.815 600.751 856.44 619.365 859.695 631.194C859.695 631.194 855.927 627.074 849.499 623.158C849.499 623.158 849.255 620.359 847.874 618.116C847.755 619.177 847.533 620.177 847.212 621.107C846.618 619.421 845.598 617.684 844.258 616.079C844.573 617.316 844.697 618.492 844.627 619.568C839.522 615.835 834.259 612.601 828.972 609.95C828.972 609.95 827.153 605.714 824.935 603.167C824.935 603.167 824.591 604.443 826.35 607.74C826.35 607.74 823.964 605.599 819.381 603.101C819.381 603.101 817.229 599.142 816.858 597.508C816.727 598.567 816.836 599.758 817.181 601.023C817.181 601.023 808.966 597.458 802.233 598.374C801.608 597.052 800.716 595.736 799.627 594.529L800.434 597.055C800.434 597.055 794.284 595.921 787.572 599.18Z" fill="#4EAA3C"/>
<g style="mix-blend-mode:screen">
<path d="M824.814 690.048C834.268 677.127 840.361 652.531 819.019 624.295C796.983 595.13 775.84 608.195 775.84 608.195C775.84 608.195 788.514 605.547 795.07 609.851L797.802 608.491L796.271 612.151C796.271 612.151 804.789 616.506 810.145 624.847L815.89 624.091C814.424 625.575 813.286 627.491 812.579 629.662C813.481 631.909 814.066 634.329 814.309 636.818C816.204 635.7 818.191 634.836 820.236 634.242C819.508 638.292 818.321 642.195 816.71 645.835C819.515 650.587 821.558 655.959 822.728 661.66C822.728 661.66 827.223 656.548 828.39 651.243C828.39 651.243 827.405 659.37 825.137 665.289C825.137 665.289 827.952 663.694 830.269 657.386C830.269 657.386 829.756 669.654 825.766 674.867C825.816 674.867 827.811 684.119 824.814 690.048Z" fill="#237812"/>
</g>
<path d="M770.715 611.102C770.715 611.102 756.26 603.103 739.108 621.309C721.956 639.514 711.786 676.376 722.378 694.188C723.441 688.079 724.935 681.969 726.847 675.916C726.847 675.916 725.338 669.84 726.738 663.864C726.738 663.864 727.127 669.422 728.353 671.691C728.353 671.691 730.438 660.143 734.295 650.838C733.891 653.348 733.74 655.84 733.846 658.265C735.948 656.172 737.84 653.825 739.468 651.291C739.589 645.965 740.51 640.505 742.194 635.126C741.776 637.541 741.612 639.941 741.705 642.275C741.705 642.275 748.383 631.747 750.129 623.929C750.129 623.929 751.214 624.748 749.796 628.252C749.781 628.245 759.552 614.868 770.715 611.102Z" fill="#239F0A"/>
<path d="M769.472 606.965C769.472 606.965 776 597.491 763.258 584.114C750.516 570.736 723.678 560.796 710.054 566.817C714.528 568.029 718.103 571.699 722.5 573.5C722.5 573.5 727.94 570.76 732.302 572.198C732.302 572.198 728.73 575.819 727 576.5C727 576.5 734.898 575.067 741.618 578.478C739.778 578.002 737.941 577.704 736.143 577.591C737.602 579.22 739.258 580.722 741.064 582.054C744.999 582.549 748.999 583.612 752.906 585.203C751.137 584.725 752.731 587.115 751 587C751 587 755.144 589.784 760.854 591.606C760.854 591.606 760.202 592.299 757.67 591.04C757.675 591.03 767.158 598.882 769.472 606.965Z" fill="#237812"/>
<g style="mix-blend-mode:screen">
<path d="M710.063 566.806C726.738 561.256 751.485 572.67 762.715 584.479C775.445 597.862 769.475 606.964 769.475 606.964C769.475 606.964 771.881 600.159 765.35 594.974L768.489 594.334C768.489 594.334 760.797 589.298 753.675 587.034C755.991 586.622 758.473 586.565 761.031 586.865C761.031 586.865 747.022 581.155 737.089 574.113C738.924 573.41 740.966 573.021 743.136 572.958C743.136 572.958 732.889 569.445 725.121 569.948C720.129 567.768 714.933 566.684 710.063 566.806Z" fill="#7AD616"/>
</g>
<path d="M775.84 608.193C775.84 608.193 776.295 582.923 807.529 572.782C839.094 562.559 861.487 592.328 861.487 592.328L849.98 595.671C848.192 592.778 845.937 590.376 843.357 588.617C844.037 590.47 844.905 592.208 845.94 593.79C839.862 594.179 833.768 593.909 827.728 592.982C827.728 592.982 825.178 588.372 823.299 585.642C823.297 588.032 823.195 590.421 822.993 592.798C821.841 590.956 820.413 589.405 818.788 588.228C818.788 588.228 819.897 591.07 818.647 591.602C818.357 591.725 809.044 590.416 800.319 592.89L797.239 588.801C797.313 590.532 797.547 592.246 797.935 593.912C797.935 593.912 784.102 597.797 775.84 608.193Z" fill="#237812"/>
<path d="M775.84 608.195C775.844 607.713 775.874 607.231 775.931 606.754C775.978 606.174 776.05 605.597 776.146 605.026C776.196 604.689 776.245 604.321 776.32 603.943C776.394 603.565 776.494 603.166 776.585 602.736C776.75 601.868 777.065 600.968 777.338 599.946C777.611 598.923 778.058 597.901 778.481 596.787C779.512 594.32 780.771 592.008 782.231 589.897L783.464 588.118L784.88 586.431C785.368 585.879 785.823 585.245 786.37 584.734L788.025 583.129C789.167 582.015 790.364 580.991 791.61 580.062L792.562 579.306C792.877 579.05 793.224 578.877 793.564 578.652L795.608 577.364C797.006 576.491 798.443 575.719 799.913 575.053C800.658 574.706 801.387 574.287 802.148 573.98L804.458 573.101C807.57 571.822 810.771 570.899 814.019 570.341C817.279 569.814 820.573 569.684 823.854 569.952C827.03 570.216 830.18 570.832 833.266 571.792C838.715 573.521 843.933 576.218 848.755 579.797C852.155 582.294 855.354 585.186 858.308 588.435C859.437 589.655 860.506 590.955 861.512 592.33C861.512 592.33 860.353 590.899 858.142 588.69C855.075 585.66 851.805 582.959 848.366 580.614C846.083 579.046 843.722 577.66 841.296 576.464C838.601 575.144 835.835 574.057 833.018 573.213C830.002 572.319 826.926 571.761 823.829 571.547C820.631 571.322 817.423 571.487 814.251 572.038C811.05 572.541 807.893 573.411 804.822 574.634L802.546 575.472C801.792 575.769 801.08 576.168 800.352 576.495C798.906 577.139 797.491 577.884 796.113 578.723C794.768 579.488 793.455 580.337 792.181 581.269C790.947 582.131 789.756 583.083 788.613 584.121L786.958 585.634C786.439 586.137 785.941 586.672 785.467 587.239L784.044 588.834L782.802 590.52C781.332 592.544 780.031 594.746 778.919 597.094C778.464 598.116 778.025 599.138 777.678 600.16C777.33 601.183 777.024 602.021 776.85 602.859C776.639 603.593 776.459 604.341 776.312 605.098C776.163 605.762 776.08 606.335 776.005 606.795C775.931 607.258 775.876 607.725 775.84 608.195V608.195Z" fill="#B5EA00"/>
<path d="M838.31 578.72C847.574 581.071 858.335 588.943 858.335 588.943C850.993 581.654 831.539 565.768 807.888 573.435C791.662 578.69 783.649 587.962 779.684 595.608C781.455 594.426 783.51 594.063 785.478 594.586C789.311 589.144 792.048 591.076 797.372 588.113L801.96 583.525V579.436L804.622 586.101C809.994 584.649 818.117 586.101 818.117 586.101L818.945 582.4L821.172 585.191L821.569 582.503C821.569 582.503 826.911 575.04 836.63 578.506C837.016 577.797 837.279 576.996 837.4 576.154C837.4 576.154 838.079 577.954 838.31 578.72Z" fill="#65B204"/>
<path d="M775.837 608.194C775.837 608.194 770.182 590.989 743.03 586.553C704.693 580.276 692.027 606.998 692.027 606.998C692.027 606.998 696.614 603.982 707.533 603.553C706.343 604.797 705.286 606.223 704.387 607.795C704.387 607.795 709.66 607.356 715.703 607.601C715.703 607.601 721.655 600.578 727.111 599.73C725.139 601.396 723.564 603.683 722.549 606.354C722.549 606.354 728.477 603.074 735.107 602.91C735.107 602.91 732.682 606.294 730.637 607.429C737.34 609.184 744.16 608.335 751.01 608.531C751.01 608.531 753.825 606.804 756.714 604.739C755.725 606.227 754.957 607.92 754.446 609.738C754.446 609.738 759.926 608 767.757 609.952C770.345 608.781 773.08 608.186 775.837 608.194Z" fill="#65B204"/>
<path d="M768.639 604.277C764.161 599.533 752.911 598.869 752.911 598.869C753.144 597.188 747.45 600.434 747.998 598.869C747.65 599.053 742.91 598.869 742.91 598.869C735.776 596.895 737.088 593.215 729.789 593.737C730.104 591.641 727.425 595.925 727.425 595.925C722.77 600.729 725.621 594.203 723.672 596.742C719.989 596.11 716.266 595.918 712.554 596.17C713.067 594.79 708.028 598.869 708.028 598.869C693.955 601.7 692.016 606.965 692.016 606.965C692.016 606.965 705.021 581.633 742.91 587.358C760.642 590.026 769.293 597.744 773.118 603.193C773.101 603.193 770.353 602.794 768.639 604.277Z" fill="#237812"/>
<path d="M778.581 758.744C778.581 758.744 789.898 762.025 796.396 769.661C798.688 760.503 799.531 750.886 798.88 741.334L801.876 740.68C801.876 740.68 804.575 725.346 804.054 713.314L807.191 712.107C807.191 712.107 809.269 695.312 804.749 680.499L807.299 679.671C807.299 679.671 806.181 660.135 796.487 643.441L799.194 641.571C799.194 641.571 793.308 624.192 780.154 613.049C774.748 608.469 772.646 609.747 777.811 619.95C782.977 630.152 786.636 646.191 786.636 646.191L788.739 645.057C788.739 645.057 792.05 669.949 791.487 682.748L793.788 682.329C793.788 682.329 795.444 699.37 790.858 711.341L792.464 711.872C792.464 711.872 791.52 725.561 787.323 736.928L789.542 738.554C789.542 738.554 787.423 748.776 778.581 758.744Z" fill="#865537"/>
<g style="mix-blend-mode:screen">
<path d="M804.051 680.597L807.263 679.672C807.263 679.672 806.146 660.136 796.452 643.442L799.159 641.571C796.028 633.207 791.97 626.187 786.594 619.797C791.265 626.62 787.635 630.085 790.12 638.477L791.492 644.703C791.492 644.703 795.284 652.104 797.602 676.935L796.452 679.672C799.329 689.683 799.826 696.89 797.602 707.152L798.546 713.315C798.546 713.315 795.581 726.911 791.492 737.369L793.647 740.497C793.647 740.497 789.98 743.101 786.594 750.921C786.594 750.921 798.732 751.654 798.546 752.752C799.721 745.663 799.647 748.975 799.159 741.764L801.874 740.681C801.874 740.681 804.573 725.347 804.051 713.315L807.189 712.108C807.189 712.108 809.341 692.318 804.051 680.597Z" fill="#865537"/>
</g>
<path d="M777.428 546.008C771.575 548.799 764.903 560.647 764.365 563.386C763.827 566.126 764.539 571.33 764.539 571.33C763.754 570.318 763.185 569.082 762.883 567.731C762.045 571.899 761.491 576.146 761.228 580.428L764.539 584.026L761.07 583.801C762.395 605.269 775.806 608.234 775.806 608.234C763.926 572.372 777.428 546.008 777.428 546.008Z" fill="#237812"/>
<path d="M780.286 580.44L777.803 580.921C778.291 579.469 780.435 577.333 780.435 577.333C779.608 572.048 780.046 564.248 780.046 564.248C778.846 564.166 776.222 565.474 776.222 565.474C776.864 564.232 777.71 563.17 778.705 562.356C777.016 557.167 776.599 551.48 777.505 546C777.505 546 764.003 572.385 775.915 608.205C783.854 596.858 780.286 580.44 780.286 580.44Z" fill="#65B204"/>
<path d="M787.533 574.191L785.547 573.883C786.32 572.899 788.52 571.84 788.52 571.84C789.395 567.545 791.922 561.66 791.922 561.66C791.05 561.27 788.726 561.561 788.726 561.561C789.555 560.78 790.485 560.193 791.456 559.838C791.661 555.383 792.955 550.89 795.176 546.919C795.176 546.919 777.673 563.545 776.444 594.372C785.56 587.804 787.533 574.191 787.533 574.191Z" fill="#65B204"/>
<path d="M784.741 582L782.239 581.63C783.181 580.422 785.912 579.117 785.912 579.117C786.883 573.857 789.882 566.643 789.882 566.643C788.776 566.168 785.867 566.533 785.867 566.533C786.885 565.574 788.035 564.852 789.243 564.414C789.37 558.958 790.861 553.454 793.532 548.584C793.532 548.584 772.048 569.003 771.415 606.747C782.666 598.672 784.741 582 784.741 582Z" fill="#618C2A"/>
<path d="M791.404 586.61L789.41 585.076C790.636 584.596 793.415 584.929 793.415 584.929C796.095 581.28 801.186 577.107 801.186 577.107C800.415 576.185 797.816 575.024 797.816 575.024C799.018 574.777 800.249 574.782 801.43 575.04C803.461 570.818 806.669 567.237 810.654 564.742C810.654 564.742 785.212 570.093 771.361 599.417C783.762 598.67 791.404 586.61 791.404 586.61Z" fill="#237812"/>
<path d="M791.567 607.456C791.479 609.515 790.899 611.495 789.899 613.146C788.9 614.797 787.527 616.044 785.953 616.731C784.379 617.418 782.676 617.512 781.058 617.003C779.441 616.494 777.982 615.404 776.867 613.87C775.752 612.337 775.03 610.429 774.793 608.389C774.555 606.349 774.814 604.267 775.535 602.408C776.256 600.55 777.408 598.997 778.844 597.946C780.28 596.896 781.936 596.395 783.603 596.508C785.833 596.661 787.923 597.899 789.416 599.951C790.908 602.003 791.682 604.702 791.567 607.456Z" fill="#916831"/>
<g style="mix-blend-mode:multiply" opacity="0.5">
<path d="M783.599 596.507C781.931 596.398 780.274 596.903 778.838 597.958C777.403 599.012 776.252 600.569 775.533 602.431C774.814 604.293 774.559 606.376 774.799 608.418C775.039 610.459 775.764 612.367 776.882 613.899C778 615.432 779.461 616.52 781.08 617.027C782.7 617.534 784.404 617.436 785.979 616.746C787.553 616.056 788.926 614.805 789.924 613.152C790.923 611.498 791.502 609.515 791.587 607.455C791.647 606.088 791.487 604.72 791.117 603.429C790.747 602.139 790.175 600.951 789.433 599.934C788.691 598.917 787.794 598.091 786.792 597.502C785.791 596.914 784.706 596.576 783.599 596.507V596.507ZM782.912 612.802C782.647 612.802 782.382 612.74 782.125 612.689C782.125 612.567 782.125 612.454 782.125 612.331C782.204 610.39 781.705 608.481 780.723 606.961C779.742 605.442 778.344 604.418 776.794 604.082C776.916 602.529 777.404 601.055 778.198 599.842C778.993 598.629 780.058 597.731 781.262 597.259C782.466 596.787 783.756 596.762 784.971 597.187C786.186 597.612 787.274 598.469 788.098 599.651C788.923 600.832 789.448 602.287 789.609 603.834C789.77 605.381 789.56 606.953 789.004 608.354C788.448 609.754 787.571 610.923 786.482 611.713C785.393 612.504 784.14 612.883 782.879 612.802H782.912Z" fill="#A5743A"/>
</g>
<path d="M777.432 546.008C777.432 546.008 765.842 569.367 774.311 601.926C774.311 601.926 775.453 598.45 777.44 597.387C777.247 592.582 776.779 587.8 776.041 583.075L773.756 583.495C773.756 583.495 773.458 583.188 775.76 581.297C775.76 581.297 774.41 568.406 775.263 564.45L774.096 564.266C774.096 564.266 775.495 563.407 776.885 562.323C776.885 562.364 774.129 556.527 777.432 546.008Z" fill="#8CD618"/>
<path d="M773.987 551C773.987 551 755.369 574.393 768.973 607C768.973 607 770.808 603.519 774 602.454C773.689 597.642 772.938 592.853 771.753 588.122L768.082 588.541C768.082 588.541 767.604 588.234 771.301 586.34C771.301 586.34 769.133 573.431 770.503 569.469L768.628 569.284C768.628 569.284 770.875 568.424 773.109 567.339C773.109 567.38 768.681 561.535 773.987 551Z" fill="#70A023"/>
<path d="M788.768 569.122C788.768 569.122 772.404 580.793 771.789 605.464C771.789 605.464 773.699 603.529 775.759 603.496C776.802 600.216 777.592 596.857 778.124 593.444L775.958 592.945C775.958 592.945 775.767 592.638 778.321 592.158C778.321 592.158 780.37 583.074 782.141 580.719L781.135 580.197C781.135 580.197 782.614 580.1 784.142 579.85C784.132 579.877 783.126 575.032 788.768 569.122Z" fill="#7EC80A"/>
<path d="M751.01 574.015C751.01 574.015 772.084 580.919 775.198 606.445C775.198 606.445 772.683 605.041 770.167 605.67C768.581 602.585 767.295 599.337 766.32 595.95L768.914 594.733C768.914 594.733 769.117 594.351 765.957 594.673C765.957 594.673 762.588 585.861 760.202 583.974L761.379 583.107C761.379 583.107 759.566 583.482 757.679 583.713C757.694 583.738 758.457 578.362 751.01 574.015Z" fill="#7DB724"/>
<path d="M779.412 614.519C779.343 616.178 778.877 617.774 778.073 619.105C777.269 620.436 776.164 621.443 774.896 621.998C773.629 622.553 772.256 622.632 770.953 622.223C769.649 621.815 768.473 620.938 767.573 619.704C766.674 618.469 766.091 616.933 765.898 615.289C765.706 613.646 765.912 611.969 766.492 610.47C767.072 608.972 767.998 607.719 769.155 606.871C770.311 606.024 771.645 605.618 772.988 605.707C773.879 605.764 774.752 606.036 775.557 606.51C776.362 606.983 777.084 607.649 777.681 608.467C778.278 609.286 778.738 610.242 779.035 611.28C779.332 612.319 779.46 613.419 779.412 614.519V614.519Z" fill="#A5743A"/>
<path d="M786.588 617.641C786.542 618.509 786.233 619.345 785.701 620.042C785.168 620.739 784.434 621.267 783.594 621.557C782.754 621.848 781.844 621.889 780.98 621.675C780.115 621.461 779.336 621.002 778.739 620.355C778.143 619.709 777.756 618.905 777.628 618.044C777.501 617.183 777.638 616.305 778.022 615.52C778.407 614.735 779.021 614.079 779.788 613.635C780.554 613.191 781.439 612.979 782.329 613.026C782.92 613.055 783.499 613.198 784.032 613.446C784.566 613.694 785.045 614.042 785.44 614.471C785.836 614.9 786.141 615.4 786.338 615.944C786.535 616.488 786.62 617.065 786.588 617.641V617.641Z" fill="#A5743A"/>
<path d="M772.489 615.056C772.437 616.612 775.418 617.404 774.826 618.652C774.235 619.9 773.421 620.843 772.489 621.362C771.557 621.881 770.548 621.953 769.59 621.568C768.632 621.183 767.768 620.359 767.107 619.199C766.447 618.04 766.019 616.598 765.879 615.056C765.738 613.514 765.891 611.94 766.319 610.535C766.746 609.13 767.428 607.956 768.278 607.162C769.129 606.368 770.11 605.989 771.097 606.074C772.418 606.19 770.213 608.984 771.097 610.535C771.981 612.086 772.557 612.974 772.489 615.056Z" fill="#774C1E"/>
<path d="M782.936 617.853C782.913 618.791 784.227 619.268 783.966 620.02C783.705 620.772 783.346 621.34 782.936 621.653C782.525 621.966 782.08 622.009 781.658 621.777C781.236 621.545 780.855 621.049 780.564 620.35C780.273 619.651 780.084 618.783 780.022 617.853C779.96 616.924 780.028 615.976 780.216 615.129C780.404 614.282 780.705 613.574 781.08 613.096C781.455 612.618 781.887 612.389 782.322 612.441C782.904 612.51 781.932 614.194 782.322 615.129C782.712 616.063 782.966 616.598 782.936 617.853Z" fill="#774C1E"/>
<path d="M727.952 757.881C727.218 758.045 705.431 762.805 715.611 769.223C725.791 775.641 760.382 777.696 777.37 777.992C790.162 778.217 833.517 774.377 831.738 764.219C829.958 754.062 763.123 750.155 727.952 757.881Z" fill="#17C1EA"/>
<g style="mix-blend-mode:screen">
<path d="M777.701 778.001C777.741 777.937 777.777 777.869 777.807 777.798C778.119 777.051 776.776 776.772 776.42 776.662C774.585 776.109 772.662 776.1 770.791 776.052C768.831 776.003 718.078 773.219 716.162 766.191C715.854 765.064 715.531 763.937 715.938 762.871C716.087 762.477 716.286 762.113 716.529 761.793C712.947 763.747 710.999 766.315 715.611 769.223C725.795 775.641 760.383 777.696 777.37 777.992L777.701 778.001Z" fill="#17C1EA"/>
</g>
<g style="mix-blend-mode:multiply">
<path d="M831.737 764.22C829.975 754.054 763.111 750.16 727.951 757.881C727.734 757.93 725.793 758.354 723.371 759.084C723.474 759.084 723.577 759.106 723.676 759.123C724.322 759.229 725.052 759.565 725.125 760.449C725.136 761.3 724.96 762.138 724.615 762.88C724.406 763.437 724.197 764.034 724.388 764.648C724.64 765.344 725.034 765.952 725.533 766.416C727.338 768.242 729.764 768.976 732.035 769.466C734.836 770.076 737.683 770.399 740.516 770.673C743.694 770.978 746.876 771.177 750.058 771.292C756.429 771.53 762.803 771.526 769.174 771.38C770.756 771.34 772.341 771.309 773.923 771.318C775.101 771.318 776.301 771.274 777.479 771.318C778.04 771.349 778.976 771.424 779.214 772.202C779.512 773.175 778.539 773.559 778.403 774.412C778.253 775.385 779.236 775.999 779.871 776.282C780.69 776.626 781.54 776.853 782.403 776.958C783.941 777.183 785.479 777.197 787.024 777.272C788.125 777.325 789.259 777.382 790.371 777.422C807.942 776.078 833.091 772.003 831.737 764.22Z" fill="#17C1EA"/>
</g>
<path d="M740.919 755.105C740.284 755.242 721.872 759.202 730.427 765.178C738.981 771.154 784.648 769.806 784.648 769.806C784.648 769.806 776.039 772.356 784.597 774.08C793.155 775.803 828.414 772.347 826.99 763.114C825.566 753.88 770.662 748.678 740.919 755.105Z" fill="#F9CA67"/>
<g style="mix-blend-mode:multiply" opacity="0.4">
<path d="M741.231 761.846C741.782 761.877 742.285 761.894 742.699 761.93C747.209 762.314 751.694 762.138 756.208 762.257C762.109 762.412 768.025 762.699 773.926 762.288C778.671 761.97 783.485 761.947 788.212 761.404C789.511 761.254 793.372 760.025 794.238 761.846C794.928 763.287 792.469 764.657 792.887 766.266C793.108 767.114 794.843 767.15 795.438 767.256C797.526 767.543 799.721 767.327 801.805 767.07C805.064 766.677 808.95 766.376 811.449 763.481C813.824 760.728 807.625 760.564 806.543 760.387C805.214 760.153 803.768 759.826 802.77 758.655C802.766 758.65 802.763 758.645 802.761 758.64C802.759 758.634 802.758 758.628 802.758 758.621C802.758 758.615 802.759 758.609 802.761 758.603C802.763 758.598 802.766 758.592 802.77 758.588C802.999 758.406 803.246 758.258 803.504 758.146C804.099 757.881 804.715 757.704 805.321 757.466C805.924 757.3 806.486 756.962 806.957 756.48C807.118 756.273 807.225 756.014 807.267 755.735C807.309 755.456 807.283 755.168 807.192 754.906C788.142 751.658 759.58 751.11 740.919 755.145C740.729 755.185 738.927 755.587 736.74 756.255C736.421 756.581 736.148 756.966 735.929 757.395C735.791 757.624 735.694 757.885 735.643 758.16C735.592 758.436 735.588 758.722 735.631 758.999C736.215 761.395 739.074 761.726 741.231 761.846Z" fill="#F9CA67"/>
</g>
<g style="mix-blend-mode:screen" opacity="0.5">
<path d="M826.989 763.115C826.409 759.358 816.981 756.269 803.997 754.359C806.605 755.089 809.177 755.989 811.704 757.056C813.316 757.716 814.871 758.564 816.346 759.588C817.065 760.079 817.745 760.65 818.375 761.294C821.708 764.83 816.599 767.544 814.177 768.366C810.14 769.754 806.027 770.475 801.865 771.049C798.037 771.571 793.949 772.185 790.096 771.712C789.197 771.602 788.195 771.429 787.421 770.828C787.134 770.616 786.904 770.309 786.757 769.944C786.665 769.692 786.628 769.415 786.649 769.141C786.67 768.867 786.749 768.603 786.878 768.375C787.219 767.723 787.661 767.155 788.18 766.704L788.452 766.461C783.417 766.744 778.375 766.815 773.336 766.74C765.395 766.616 757.442 766.227 749.523 765.493C746.27 765.221 743.036 764.7 739.838 763.933C737.934 763.456 733.798 762.474 733.405 759.575C733.269 758.585 733.699 757.723 734.264 757.056C729.717 758.828 725.375 761.648 730.421 765.184C738.976 771.164 784.643 769.812 784.643 769.812C784.643 769.812 776.033 772.362 784.591 774.086C793.149 775.81 828.405 772.349 826.989 763.115Z" fill="#F9CA67"/>
</g>
<path d="M724.034 743.441C724.839 743.272 725.948 743.001 726.983 742.613C727.139 742.555 727.274 742.455 727.376 742.322C727.478 742.19 727.544 742.029 727.567 741.854L727.692 740.91L727.441 736.133C726.268 736.777 725.493 737.208 725.479 737.228C725.436 737.289 724.047 740.725 723.312 742.547C723.27 742.65 723.259 742.766 723.279 742.882C723.3 742.998 723.35 743.109 723.426 743.203C723.501 743.296 723.599 743.368 723.706 743.41C723.814 743.452 723.927 743.463 724.034 743.441Z" fill="#E1E6EB"/>
<path d="M727.697 740.908L728.479 742.007C728.571 742.136 728.7 742.232 728.844 742.277C728.988 742.323 729.138 742.315 729.266 742.255C730.221 741.81 732.508 740.785 734.522 740.193C734.671 740.15 734.792 740.045 734.859 739.902C734.927 739.759 734.936 739.588 734.884 739.424L734.672 738.753L747.55 732.486L748.045 733.034C748.183 733.187 748.359 733.295 748.548 733.342C748.737 733.389 748.929 733.373 749.096 733.297C750.304 732.744 753.128 731.47 754.746 730.889C754.856 730.85 754.955 730.786 755.037 730.702C755.118 730.618 755.181 730.515 755.22 730.401C755.26 730.286 755.276 730.162 755.267 730.035C755.258 729.908 755.224 729.782 755.168 729.664V729.664L754.48 724.448L751.226 725.579L743.704 726.97L738.991 729.833C738.991 729.833 735.633 731.659 732.266 733.495C730.503 734.457 728.736 735.422 727.449 736.13C726.276 736.774 725.501 737.205 725.487 737.225C725.426 737.308 727.697 740.908 727.697 740.908Z" fill="#6F3FF5"/>
<path d="M734.666 738.758L735.496 739.313C735.686 739.441 735.899 739.516 736.114 739.531C736.329 739.546 736.538 739.5 736.719 739.398C738.496 738.395 743.842 735.42 746.942 734.161C747.161 734.072 747.341 733.912 747.458 733.702C747.576 733.492 747.624 733.242 747.597 732.986L747.545 732.49L744.514 727.223L738.985 729.837C738.985 729.837 735.31 730.902 731.943 732.738L731.961 732.856L734.666 738.758Z" fill="#E1E6EB"/>
<path d="M733.91 720.411L734.953 719.918L752.684 754.547L751.641 755.04L733.91 720.411Z" fill="#6F3FF5"/>
<path d="M750.585 724.494C751.414 725.502 755.161 729.665 755.161 729.665L755.725 729.719C755.974 729.742 756.22 729.706 756.442 729.613C756.665 729.521 756.858 729.374 757.009 729.184C757.495 728.57 758.418 727.559 759.938 726.431C760.01 726.377 760.064 726.3 760.091 726.209C760.118 726.119 760.117 726.019 760.09 725.923C760.062 725.826 760.008 725.738 759.935 725.668C759.862 725.598 759.773 725.55 759.68 725.531L754.473 724.449L750.585 724.494Z" fill="#E1E6EB"/>
<path d="M721.586 739.889C722.858 738.564 725.007 736.932 727.776 735.174C730.847 733.225 734.683 731.121 738.943 729.106C743.203 727.092 747.278 725.457 750.758 724.309C753.859 723.286 756.487 722.65 758.353 722.48L758.357 722.479C758.459 722.469 758.559 722.461 758.657 722.455C758.667 722.452 758.676 722.453 758.682 722.454L758.696 722.45L733.614 718.575L721.586 739.889Z" fill="white"/>
<path d="M725.64 735.407L726.348 736.65L727.552 738.912C727.617 739.035 727.704 739.144 727.809 739.234C727.913 739.324 728.032 739.392 728.158 739.433C728.284 739.475 728.414 739.49 728.539 739.476C728.665 739.463 728.784 739.422 728.888 739.356C730.323 738.447 732.442 737.233 733.442 736.666C733.605 736.574 733.73 736.426 733.799 736.245C733.868 736.064 733.878 735.858 733.827 735.657L733.063 732.635L744.516 727.222L746.728 729.262C746.937 729.455 747.189 729.588 747.453 729.646C747.717 729.704 747.983 729.684 748.222 729.589C749.816 728.952 750.859 728.544 752.052 728.155C752.244 728.093 752.415 727.985 752.553 727.84C752.692 727.695 752.795 727.516 752.854 727.316C752.914 727.116 752.929 726.9 752.898 726.684C752.868 726.467 752.792 726.255 752.677 726.062L751.847 724.672C751.847 724.672 749.604 723.154 749.364 723.113C749.319 723.105 748.914 723.241 748.268 723.474C747.869 723.618 747.377 723.8 746.822 724.008C745.601 724.464 744.068 725.048 742.525 725.642C739.044 726.981 735.51 728.371 735.36 728.47C735.252 728.541 734.366 729.002 733.283 729.558C732.42 730.004 731.432 730.507 730.614 730.924C729.826 731.326 729.196 731.646 728.985 731.752L728.91 731.79L725.64 735.407Z" fill="white"/>
<path d="M733.065 732.634L734.393 734.982C734.456 735.094 734.538 735.194 734.635 735.276C734.732 735.358 734.842 735.422 734.958 735.462C735.073 735.502 735.193 735.519 735.31 735.512C735.427 735.504 735.539 735.472 735.64 735.417C737.359 734.483 738.573 733.854 740.833 732.785C742.543 731.977 743.959 731.304 745.496 730.649C745.61 730.6 745.71 730.526 745.79 730.43C745.87 730.334 745.927 730.22 745.958 730.094C745.988 729.968 745.992 729.834 745.969 729.7C745.946 729.566 745.896 729.436 745.823 729.319L744.516 727.218L742.525 725.638L733.62 718.572L733.065 732.634Z" fill="#6F3FF5"/>
<path d="M721.593 739.888L722.434 742.23C722.488 742.38 722.574 742.518 722.685 742.634C722.796 742.749 722.93 742.838 723.074 742.892C723.218 742.947 723.369 742.966 723.514 742.948C723.659 742.931 723.795 742.876 723.909 742.789C724.676 742.208 725.649 741.577 726.586 740.929C726.741 740.822 726.86 740.668 726.928 740.485C726.997 740.302 727.012 740.096 726.973 739.892L726.35 736.649L733.621 718.574L721.593 739.888Z" fill="#6F3FF5"/>
<path d="M733.615 718.573L748.264 723.47L750.76 724.305L751.842 724.67L754.597 726.699C754.839 726.877 755.111 727.001 755.393 727.06C755.675 727.119 755.958 727.112 756.224 727.039C757.23 726.765 758.653 726.372 759.671 726.092C759.817 726.052 759.948 725.975 760.054 725.869C760.16 725.762 760.238 725.628 760.281 725.477C760.324 725.326 760.332 725.163 760.303 725.001C760.274 724.839 760.21 724.681 760.115 724.542L758.699 722.452L733.615 718.573Z" fill="#6F3FF5"/>
<path d="M751.84 724.671L752.7 724.403L753.559 724.131L755.275 723.58L756.987 723.022L757.842 722.739L758.695 722.453L757.835 722.721L756.976 722.994L755.26 723.544L753.548 724.102L752.693 724.385L751.84 724.671Z" fill="#1B1A2E"/>
<path d="M744.518 727.223L745.438 726.913L746.356 726.599L748.19 725.965L750.021 725.324L750.935 725L751.848 724.672L750.928 724.982L750.01 725.296L748.175 725.929L746.345 726.571L745.43 726.895L744.518 727.223Z" fill="#1B1A2E"/>
<path d="M733.061 732.637L733.78 732.305L734.498 731.97L735.215 731.635C735.454 731.523 735.691 731.408 735.93 731.295L737.358 730.611C737.595 730.496 737.835 730.385 738.074 730.273L738.791 729.937C739.748 729.491 740.704 729.043 741.658 728.592C742.136 728.367 742.611 728.139 743.087 727.91C743.563 727.682 744.039 727.454 744.513 727.222L744.512 727.219C744.032 727.439 743.553 727.662 743.075 727.885C742.596 728.108 742.118 728.33 741.64 728.556C740.685 729.006 739.732 729.46 738.782 729.918L738.067 730.259C737.829 730.373 737.591 730.487 737.352 730.598L735.917 731.268C735.678 731.381 735.438 731.49 735.2 731.605L734.486 731.946L733.772 732.287L733.06 732.633L733.061 732.637Z" fill="#1B1A2E"/>
<path d="M726.343 736.651L727.188 736.158L728.03 735.661L729.711 734.661L731.388 733.654L732.224 733.147L733.059 732.637L732.214 733.13L731.372 733.628L729.691 734.627L728.014 735.635L727.178 736.141L726.343 736.651Z" fill="#1B1A2E"/>
<path d="M721.587 739.887L722.187 739.49L722.784 739.09L723.976 738.284L725.163 737.47L725.755 737.061L726.344 736.648L725.744 737.045L725.146 737.446L723.954 738.252L722.768 739.065L722.176 739.474L721.587 739.887Z" fill="#1B1A2E"/>
<path d="M356.892 693.194C356.388 692.124 355.795 691.094 355.119 690.114C354.951 689.877 354.782 689.642 354.613 689.413C352.566 686.678 349.906 684.416 346.828 682.794C343.75 681.171 340.331 680.229 336.823 680.036C336.529 680.018 336.232 680.009 335.935 680.004C334.709 679.982 333.483 680.053 332.269 680.217C331.15 680.368 330.043 680.595 328.958 680.896C327.872 681.2 326.811 681.578 325.782 682.028C324.664 682.511 323.589 683.079 322.565 683.725C322.319 683.887 322.072 684.049 321.833 684.21C318.976 686.17 316.614 688.716 314.919 691.664C313.225 694.611 312.241 697.884 312.039 701.243C312.021 701.526 312.011 701.81 312.004 702.093C311.981 703.268 312.057 704.442 312.228 705.605C312.385 706.676 312.621 707.735 312.936 708.773C313.254 709.812 313.649 710.828 314.118 711.814C314.622 712.881 315.215 713.908 315.889 714.886C316.058 715.123 316.227 715.356 316.396 715.587C318.443 718.322 321.103 720.583 324.181 722.205C327.259 723.828 330.677 724.77 334.186 724.964C334.481 724.981 334.778 724.991 335.075 724.996C336.301 725.019 337.527 724.947 338.741 724.782C340.982 724.481 343.166 723.874 345.228 722.982C346.343 722.497 347.416 721.929 348.436 721.283C348.685 721.121 348.929 720.959 349.169 720.798C352.026 718.838 354.388 716.291 356.083 713.343C357.777 710.396 358.761 707.122 358.962 703.763C358.979 703.479 358.991 703.196 358.996 702.913C359.018 701.74 358.944 700.567 358.773 699.405C358.459 697.259 357.825 695.168 356.891 693.194H356.892ZM348.391 705.858C348.303 706.17 348.202 706.481 348.087 706.785C347.604 708.082 346.905 709.297 346.018 710.382C345.812 710.64 345.595 710.888 345.365 711.125C344.487 712.051 343.471 712.847 342.349 713.487C340.384 714.608 338.151 715.228 335.864 715.288C334.559 715.322 333.256 715.171 331.997 714.839C331.671 714.755 331.347 714.658 331.028 714.546C329.673 714.083 328.404 713.415 327.271 712.566C327.004 712.368 326.746 712.158 326.496 711.94C324.68 710.357 323.356 708.323 322.67 706.065C321.985 703.806 321.965 701.41 322.613 699.141C322.702 698.829 322.803 698.52 322.918 698.215C323.405 696.917 324.107 695.703 324.997 694.618C325.204 694.363 325.424 694.114 325.652 693.874C327.307 692.137 329.431 690.87 331.79 690.214C334.148 689.559 336.651 689.54 339.02 690.161C339.347 690.247 339.67 690.344 339.987 690.455C341.343 690.916 342.613 691.585 343.746 692.434C344.013 692.633 344.271 692.842 344.521 693.06C346.339 694.642 347.665 696.675 348.35 698.934C349.036 701.193 349.054 703.59 348.404 705.858H348.391Z" fill="#F26E91"/>
<path d="M332.273 680.219L335.144 689.712C332.858 689.769 330.626 690.39 328.663 691.512L325.793 682.02C326.822 681.57 327.883 681.192 328.969 680.888C330.053 680.59 331.157 680.367 332.273 680.219V680.219Z" fill="white"/>
<path d="M342.35 713.488L345.221 722.979C343.159 723.872 340.975 724.479 338.734 724.78L335.863 715.289C338.15 715.229 340.383 714.609 342.349 713.488H342.35Z" fill="white"/>
<path d="M322.678 706.064C322.994 707.112 323.447 708.116 324.029 709.053L314.116 711.801C313.648 710.816 313.253 709.8 312.934 708.761C312.619 707.722 312.383 706.663 312.227 705.592L322.14 702.844C322.174 703.935 322.355 705.017 322.678 706.064V706.064Z" fill="white"/>
<path d="M358.067 696.236C358.382 697.275 358.619 698.335 358.776 699.406L348.863 702.155C348.798 699.965 348.15 697.827 346.98 695.944L356.894 693.195C357.36 694.181 357.752 695.197 358.067 696.236V696.236Z" fill="white"/>
<g style="mix-blend-mode:multiply" opacity="0.4">
<g style="mix-blend-mode:multiply">
<path d="M356.881 693.2C356.377 692.132 355.784 691.105 355.108 690.129C354.939 689.893 354.77 689.657 354.601 689.427C352.557 686.694 349.899 684.434 346.823 682.813C343.747 681.192 340.33 680.252 336.825 680.06C336.529 680.041 336.232 680.031 335.937 680.028C334.711 680.004 333.486 680.075 332.273 680.241C330.033 680.544 327.851 681.15 325.791 682.042C324.675 682.524 323.602 683.091 322.582 683.738C322.336 683.9 322.089 684.062 321.851 684.223C318.997 686.181 316.637 688.726 314.944 691.672C313.251 694.617 312.268 697.888 312.068 701.245C312.05 701.527 312.039 701.814 312.036 702.096C312.011 703.27 312.085 704.443 312.259 705.605C312.57 707.749 313.203 709.838 314.138 711.809C314.642 712.876 315.234 713.904 315.908 714.881C316.077 715.117 316.245 715.35 316.414 715.584C318.46 718.316 321.119 720.575 324.196 722.196C327.272 723.816 330.688 724.757 334.194 724.949C334.49 724.968 334.787 724.978 335.082 724.983C336.308 725.006 337.533 724.934 338.746 724.768C339.865 724.619 340.97 724.393 342.054 724.091C343.139 723.79 344.2 723.415 345.228 722.969C346.344 722.487 347.417 721.919 348.437 721.271C348.683 721.109 348.93 720.948 349.168 720.786C352.022 718.827 354.382 716.282 356.075 713.336C357.768 710.391 358.751 707.12 358.952 703.763C358.968 703.477 358.981 703.194 358.986 702.911C359.009 701.739 358.934 700.567 358.762 699.406C358.448 697.262 357.815 695.172 356.881 693.2V693.2ZM357.657 701.93C357.715 704.003 357.453 706.073 356.879 708.073C356.733 708.59 356.564 709.102 356.372 709.609C355.572 711.761 354.414 713.776 352.943 715.576C352.605 716.007 352.244 716.418 351.859 716.809C349.116 719.694 345.594 721.795 341.681 722.882C337.769 723.969 333.618 723.998 329.689 722.967C329.147 722.827 328.611 722.665 328.083 722.482C325.836 721.716 323.732 720.607 321.853 719.199C321.409 718.875 320.98 718.523 320.566 718.161C317.552 715.537 315.359 712.163 314.229 708.416C313.088 704.672 313.056 700.698 314.135 696.938C314.281 696.418 314.45 695.906 314.641 695.4C315.442 693.249 316.6 691.235 318.069 689.435C318.414 689.011 318.775 688.599 319.155 688.202C321.898 685.318 325.421 683.218 329.333 682.131C333.246 681.044 337.396 681.014 341.325 682.044C341.867 682.186 342.402 682.346 342.93 682.529C345.178 683.295 347.282 684.403 349.161 685.811C349.606 686.141 350.034 686.487 350.448 686.85C352.647 688.772 354.419 691.098 355.658 693.69C356.896 696.282 357.577 699.087 357.657 701.936V701.93Z" fill="#A65B3C"/>
</g>
</g>
<path d="M1083.89 720.194C1083.39 719.124 1082.79 718.094 1082.12 717.114C1081.95 716.877 1081.78 716.642 1081.61 716.413C1079.57 713.678 1076.91 711.416 1073.83 709.794C1070.75 708.171 1067.33 707.229 1063.82 707.036C1063.53 707.018 1063.23 707.009 1062.93 707.004C1061.71 706.982 1060.48 707.053 1059.27 707.217C1058.15 707.368 1057.04 707.595 1055.96 707.896C1054.87 708.2 1053.81 708.578 1052.78 709.028C1051.66 709.511 1050.59 710.079 1049.57 710.725C1049.32 710.887 1049.07 711.049 1048.83 711.21C1045.98 713.17 1043.61 715.716 1041.92 718.664C1040.22 721.611 1039.24 724.884 1039.04 728.243C1039.02 728.526 1039.01 728.81 1039 729.093C1038.98 730.268 1039.06 731.442 1039.23 732.605C1039.38 733.676 1039.62 734.735 1039.94 735.773C1040.25 736.812 1040.65 737.828 1041.12 738.814C1041.62 739.881 1042.21 740.908 1042.89 741.886C1043.06 742.123 1043.23 742.356 1043.4 742.587C1045.44 745.322 1048.1 747.583 1051.18 749.205C1054.26 750.828 1057.68 751.77 1061.19 751.964C1061.48 751.981 1061.78 751.991 1062.08 751.996C1063.3 752.019 1064.53 751.947 1065.74 751.782C1067.98 751.481 1070.17 750.874 1072.23 749.982C1073.34 749.497 1074.42 748.929 1075.44 748.283C1075.68 748.121 1075.93 747.959 1076.17 747.798C1079.03 745.838 1081.39 743.291 1083.08 740.343C1084.78 737.396 1085.76 734.122 1085.96 730.763C1085.98 730.479 1085.99 730.196 1086 729.913C1086.02 728.74 1085.94 727.567 1085.77 726.405C1085.46 724.259 1084.82 722.168 1083.89 720.194H1083.89ZM1075.39 732.858C1075.3 733.17 1075.2 733.481 1075.09 733.785C1074.6 735.082 1073.91 736.297 1073.02 737.382C1072.81 737.64 1072.59 737.888 1072.37 738.125C1071.49 739.051 1070.47 739.847 1069.35 740.487C1067.38 741.608 1065.15 742.228 1062.86 742.288C1061.56 742.322 1060.26 742.171 1059 741.839C1058.67 741.755 1058.35 741.658 1058.03 741.546C1056.67 741.083 1055.4 740.415 1054.27 739.566C1054 739.368 1053.75 739.158 1053.5 738.94C1051.68 737.357 1050.36 735.323 1049.67 733.065C1048.99 730.806 1048.97 728.41 1049.61 726.141C1049.7 725.829 1049.8 725.52 1049.92 725.215C1050.41 723.917 1051.11 722.703 1052 721.618C1052.2 721.363 1052.42 721.114 1052.65 720.874C1054.31 719.137 1056.43 717.87 1058.79 717.214C1061.15 716.559 1063.65 716.54 1066.02 717.161C1066.35 717.247 1066.67 717.344 1066.99 717.455C1068.34 717.916 1069.61 718.585 1070.75 719.434C1071.01 719.633 1071.27 719.842 1071.52 720.06C1073.34 721.642 1074.66 723.675 1075.35 725.934C1076.04 728.193 1076.05 730.59 1075.4 732.858H1075.39Z" fill="#F26E91"/>
<path d="M1059.27 707.219L1062.14 716.712C1059.86 716.769 1057.63 717.39 1055.66 718.512L1052.79 709.02C1053.82 708.57 1054.88 708.192 1055.97 707.888C1057.05 707.59 1058.16 707.367 1059.27 707.219V707.219Z" fill="white"/>
<path d="M1069.35 740.488L1072.22 749.979C1070.16 750.872 1067.97 751.479 1065.73 751.78L1062.86 742.289C1065.15 742.229 1067.38 741.609 1069.35 740.488H1069.35Z" fill="white"/>
<path d="M1049.68 733.064C1049.99 734.112 1050.45 735.116 1051.03 736.053L1041.12 738.801C1040.65 737.816 1040.25 736.8 1039.93 735.761C1039.62 734.722 1039.38 733.663 1039.23 732.592L1049.14 729.844C1049.17 730.935 1049.35 732.017 1049.68 733.064V733.064Z" fill="white"/>
<path d="M1085.07 723.236C1085.38 724.275 1085.62 725.335 1085.78 726.406L1075.86 729.155C1075.8 726.965 1075.15 724.827 1073.98 722.944L1083.89 720.195C1084.36 721.181 1084.75 722.197 1085.07 723.236V723.236Z" fill="white"/>
<g style="mix-blend-mode:multiply" opacity="0.4">
<g style="mix-blend-mode:multiply">
<path d="M1083.88 720.2C1083.38 719.132 1082.78 718.105 1082.11 717.129C1081.94 716.893 1081.77 716.657 1081.6 716.427C1079.56 713.694 1076.9 711.434 1073.82 709.813C1070.75 708.192 1067.33 707.252 1063.82 707.06C1063.53 707.041 1063.23 707.031 1062.94 707.028C1061.71 707.004 1060.49 707.075 1059.27 707.241C1057.03 707.544 1054.85 708.15 1052.79 709.042C1051.68 709.524 1050.6 710.091 1049.58 710.738C1049.34 710.9 1049.09 711.062 1048.85 711.223C1046 713.181 1043.64 715.726 1041.94 718.672C1040.25 721.617 1039.27 724.888 1039.07 728.245C1039.05 728.527 1039.04 728.814 1039.04 729.096C1039.01 730.27 1039.09 731.443 1039.26 732.605C1039.57 734.749 1040.2 736.838 1041.14 738.809C1041.64 739.876 1042.23 740.904 1042.91 741.881C1043.08 742.117 1043.25 742.35 1043.41 742.584C1045.46 745.316 1048.12 747.575 1051.2 749.196C1054.27 750.816 1057.69 751.757 1061.19 751.949C1061.49 751.968 1061.79 751.978 1062.08 751.983C1063.31 752.006 1064.53 751.934 1065.75 751.768C1066.86 751.619 1067.97 751.393 1069.05 751.091C1070.14 750.79 1071.2 750.415 1072.23 749.969C1073.34 749.487 1074.42 748.919 1075.44 748.271C1075.68 748.109 1075.93 747.948 1076.17 747.786C1079.02 745.827 1081.38 743.282 1083.08 740.336C1084.77 737.391 1085.75 734.12 1085.95 730.763C1085.97 730.477 1085.98 730.194 1085.99 729.911C1086.01 728.739 1085.93 727.567 1085.76 726.406C1085.45 724.262 1084.81 722.172 1083.88 720.2V720.2ZM1084.66 728.93C1084.72 731.003 1084.45 733.073 1083.88 735.073C1083.73 735.59 1083.56 736.102 1083.37 736.609C1082.57 738.761 1081.41 740.776 1079.94 742.576C1079.61 743.007 1079.24 743.418 1078.86 743.809C1076.12 746.694 1072.59 748.795 1068.68 749.882C1064.77 750.969 1060.62 750.998 1056.69 749.967C1056.15 749.827 1055.61 749.665 1055.08 749.482C1052.84 748.716 1050.73 747.607 1048.85 746.199C1048.41 745.875 1047.98 745.523 1047.57 745.161C1044.55 742.537 1042.36 739.163 1041.23 735.416C1040.09 731.672 1040.06 727.698 1041.13 723.938C1041.28 723.418 1041.45 722.906 1041.64 722.4C1042.44 720.249 1043.6 718.235 1045.07 716.435C1045.41 716.011 1045.78 715.599 1046.15 715.202C1048.9 712.318 1052.42 710.218 1056.33 709.131C1060.25 708.044 1064.4 708.014 1068.32 709.044C1068.87 709.186 1069.4 709.346 1069.93 709.529C1072.18 710.295 1074.28 711.403 1076.16 712.811C1076.61 713.141 1077.03 713.487 1077.45 713.85C1079.65 715.772 1081.42 718.098 1082.66 720.69C1083.9 723.282 1084.58 726.087 1084.66 728.936V728.93Z" fill="#A65B3C"/>
</g>
</g>
<path d="M794.895 748.787C796.244 747.485 797.758 746.387 799.395 745.525C798.716 745.372 798.018 745.333 797.327 745.409C796.297 746.339 795.467 747.491 794.895 748.787V748.787Z" fill="white"/>
<path d="M802.128 743.108C801.621 743.607 801.191 744.187 800.855 744.827C802.547 744.091 804.327 743.608 806.145 743.389C804.84 742.995 803.471 742.899 802.128 743.108V743.108Z" fill="white"/>
<path d="M799.573 743.9C798.761 744.29 798.006 744.798 797.328 745.409C798.019 745.333 798.716 745.372 799.395 745.525C799.633 745.399 799.874 745.278 800.118 745.16C800.363 745.042 800.608 744.93 800.854 744.825C801.19 744.185 801.62 743.605 802.127 743.105C801.244 743.243 800.385 743.511 799.573 743.9V743.9Z" fill="#F04848"/>
<path d="M794.859 757.185C795.401 758.441 796.185 759.565 797.16 760.486C796.946 760.101 796.75 759.705 796.574 759.299C794.168 753.742 795.801 747.517 800.222 745.397C804.643 743.276 810.175 746.059 812.581 751.615C812.756 752.022 812.912 752.438 813.047 752.861C813.014 750.711 812.325 748.629 811.082 746.923C809.839 745.217 808.108 743.977 806.145 743.387C801.952 743.906 798.019 745.795 794.896 748.787C794.312 750.1 794.007 751.531 794 752.982C793.994 754.432 794.287 755.866 794.859 757.185V757.185Z" fill="#F04848"/>
<path d="M800.219 745.395C802.1 744.492 805.576 748.264 807.981 753.82C809.004 756.184 809.667 758.487 809.948 760.426C810.943 759.467 811.732 758.296 812.266 756.992C812.8 755.688 813.065 754.279 813.044 752.859C812.909 752.436 812.753 752.02 812.578 751.614C810.172 746.058 804.64 743.273 800.219 745.395Z" fill="white"/>
<path d="M804.615 762.991C803.41 761.496 802.194 759.457 801.171 757.091C798.766 751.534 798.341 746.298 800.223 745.395C795.803 747.516 794.17 753.741 796.575 759.297C796.751 759.703 796.947 760.099 797.161 760.484C798.165 761.433 799.349 762.146 800.633 762.579C801.918 763.011 803.275 763.151 804.615 762.991Z" fill="white"/>
<path d="M801.166 757.096C802.189 759.459 803.405 761.498 804.61 762.996C806.601 762.754 808.468 761.858 809.947 760.434C809.666 758.495 809.003 756.192 807.98 753.828C805.575 748.272 802.099 744.5 800.218 745.403C798.336 746.306 798.76 751.54 801.166 757.096Z" fill="#F04848"/>
<path d="M802.521 744.605C802.779 745.205 802.013 746.164 800.807 746.74C799.601 747.316 798.412 747.302 798.152 746.702C797.893 746.102 798.659 745.142 799.866 744.567C801.073 743.991 802.261 744.005 802.521 744.605Z" fill="#CE4545"/>
<path d="M795.984 757.67C795.528 757.388 795.089 757.074 794.672 756.73C794.73 756.884 794.79 757.036 794.855 757.188C795.398 758.444 796.182 759.568 797.157 760.489C796.662 759.602 796.268 758.655 795.984 757.67V757.67Z" fill="#CE3A3A"/>
<path d="M812.918 752.491C812.961 752.615 813.006 752.738 813.047 752.862C813.047 752.669 813.035 752.475 813.02 752.281C812.987 752.352 812.955 752.422 812.918 752.491Z" fill="#CE3A3A"/>
<path d="M809.172 757.047C809.515 758.15 809.775 759.28 809.95 760.426C810.945 759.467 811.734 758.296 812.268 756.992C812.802 755.688 813.067 754.279 813.046 752.859C813.006 752.735 812.961 752.612 812.917 752.488C812.03 754.3 810.746 755.863 809.172 757.047V757.047Z" fill="#E4E4E0"/>
<path d="M802.128 759.426C799.969 759.429 797.849 758.822 795.988 757.668C796.272 758.653 796.666 759.599 797.161 760.487C798.165 761.435 799.349 762.148 800.633 762.579C801.918 763.01 803.275 763.15 804.615 762.989C803.828 762.013 803.037 760.801 802.297 759.422C802.241 759.423 802.185 759.426 802.128 759.426Z" fill="#E4E4E0"/>
<path d="M802.293 759.424C803.033 760.803 803.824 762.015 804.611 762.991C806.602 762.749 808.469 761.853 809.948 760.429C809.773 759.283 809.513 758.154 809.17 757.051C807.162 758.564 804.762 759.392 802.293 759.424V759.424Z" fill="#CE3A3A"/>
<circle cx="802.5" cy="709.5" r="1.5" fill="#865537"/>
<ellipse cx="803.5" cy="705" rx="1.5" ry="1" fill="#865537"/>
<circle cx="800" cy="707" r="1" fill="#865537"/>
<g style="mix-blend-mode:multiply" opacity="0.4">
<g style="mix-blend-mode:multiply">
<path d="M772.103 751.769L774.395 750.707L774.491 745.14L774.418 745.233C772.936 747.104 772.145 749.339 772.103 751.77L772.103 751.769Z" fill="#DF4747"/>
</g>
</g>
<path d="M775.875 703.076C777.795 705.776 783.334 715.016 782.263 730.486L782.217 731.128C782.174 731.728 782.129 732.315 782.083 732.889C781.019 746.342 779.347 752.942 778.72 755.047C778.692 755.141 778.638 755.222 778.561 755.285C778.485 755.349 778.388 755.392 778.279 755.413C778.169 755.433 778.049 755.43 777.928 755.403C777.807 755.377 777.687 755.328 777.579 755.26L774.694 753.451C774.587 753.383 774.468 753.334 774.348 753.308C774.228 753.281 774.109 753.278 774 753.298L771.074 753.824C770.964 753.844 770.844 753.84 770.723 753.813C770.602 753.786 770.483 753.736 770.375 753.668C770.267 753.599 770.172 753.513 770.099 753.417C770.025 753.32 769.974 753.216 769.95 753.11C769.417 750.812 768.048 743.858 767.43 730.769C767.405 730.238 767.381 729.697 767.359 729.145C767.333 728.504 767.308 727.848 767.286 727.178C766.76 711.354 772.577 704.625 774.575 702.788C774.65 702.718 774.749 702.668 774.863 702.645C774.977 702.621 775.103 702.623 775.23 702.651C775.357 702.679 775.482 702.733 775.594 702.807C775.706 702.88 775.803 702.973 775.875 703.076V703.076Z" fill="#DF4747"/>
<path d="M774.363 752.455L774.455 746.456L774.503 743.457L774.558 740.46L774.67 734.465L774.771 728.468L774.971 716.474L775.08 710.479L775.198 704.485L775.202 704.486L775.111 710.485L775.012 716.483L774.794 728.473L774.686 734.469L774.59 740.467L774.54 743.465L774.484 746.463L774.367 752.456L774.363 752.455Z" fill="#1B1A2E"/>
<path d="M774.365 752.455C774.449 752.473 774.533 752.503 774.613 752.544C774.652 752.564 774.691 752.586 774.729 752.61L774.842 752.681L775.296 752.964L776.2 753.529L777.104 754.094L777.331 754.235C777.404 754.284 777.481 754.328 777.561 754.366C777.6 754.384 777.641 754.4 777.682 754.413C777.723 754.425 777.765 754.434 777.806 754.441C777.848 754.448 777.889 754.452 777.929 754.453C777.97 754.453 778.009 754.451 778.047 754.446C778.086 754.441 778.123 754.433 778.159 754.423C778.194 754.411 778.227 754.397 778.258 754.381C778.289 754.365 778.317 754.347 778.344 754.327C778.37 754.305 778.393 754.281 778.414 754.255C778.434 754.229 778.452 754.201 778.467 754.172C778.475 754.158 778.48 754.14 778.486 754.126C778.492 754.11 778.497 754.094 778.501 754.078L778.558 753.883C778.634 753.623 778.702 753.36 778.773 753.097C778.844 752.835 778.908 752.57 778.97 752.304L779.156 751.508C779.399 750.444 779.607 749.367 779.807 748.288C779.998 747.206 780.184 746.122 780.346 745.031C780.427 744.485 780.513 743.941 780.584 743.392L780.695 742.571L780.751 742.16L780.802 741.748L781.005 740.098L781.188 738.443C781.22 738.168 781.247 737.891 781.275 737.615L781.356 736.784L781.436 735.954L781.509 735.121L781.651 733.455L781.774 731.783L781.835 730.948C781.855 730.669 781.868 730.387 781.884 730.109L781.907 729.689L781.918 729.48L781.925 729.268L781.951 728.424C781.963 728.144 781.959 727.859 781.962 727.577L781.964 727.153C781.965 727.012 781.967 726.871 781.963 726.728L781.947 725.875C781.945 725.591 781.927 725.304 781.917 725.019L781.898 724.59C781.895 724.519 781.893 724.448 781.888 724.376L781.874 724.161L781.816 723.3C781.793 723.013 781.764 722.725 781.738 722.437C781.724 722.293 781.713 722.149 781.696 722.005L781.646 721.572C781.583 720.995 781.497 720.415 781.413 719.835L781.27 718.964C781.25 718.821 781.217 718.673 781.19 718.528L781.106 718.092C780.645 715.764 779.99 713.421 779.076 711.099C778.843 710.519 778.602 709.94 778.336 709.363C778.207 709.074 778.065 708.788 777.927 708.501C777.79 708.214 777.639 707.928 777.486 707.645C777.183 707.076 776.861 706.511 776.513 705.954C776.341 705.675 776.158 705.399 775.972 705.124L775.829 704.919C775.784 704.85 775.728 704.786 775.663 704.727C775.532 704.61 775.369 704.526 775.2 704.488L775.201 704.485C775.372 704.523 775.536 704.607 775.669 704.725C775.734 704.783 775.791 704.848 775.837 704.918L775.98 705.123C776.168 705.397 776.352 705.672 776.526 705.952C776.875 706.507 777.203 707.072 777.507 707.642C777.661 707.926 777.804 708.212 777.95 708.498C778.095 708.784 778.231 709.072 778.361 709.36C778.63 709.936 778.872 710.516 779.107 711.096C779.567 712.257 779.963 713.425 780.302 714.593C780.64 715.76 780.919 716.929 781.149 718.094L781.232 718.531C781.259 718.676 781.29 718.822 781.312 718.967L781.457 719.839C781.541 720.419 781.628 720.999 781.689 721.577L781.74 722.01C781.756 722.155 781.767 722.298 781.781 722.443C781.807 722.73 781.836 723.019 781.859 723.307L781.917 724.168L781.931 724.383C781.935 724.454 781.938 724.526 781.941 724.597L781.959 725.026C781.991 725.6 781.994 726.166 782.004 726.736C782.008 726.878 782.005 727.019 782.004 727.16L782.001 727.583C781.997 727.866 782 728.15 781.988 728.431L781.959 729.275L781.952 729.486L781.94 729.696L781.916 730.115C781.899 730.395 781.884 730.676 781.865 730.954L781.801 731.789L781.675 733.459L781.529 735.125L781.455 735.957L781.374 736.788L781.293 737.618C781.266 737.895 781.24 738.172 781.209 738.448L781.027 740.103L780.829 741.754L780.778 742.166L780.724 742.577L780.613 743.399C780.543 743.949 780.458 744.493 780.379 745.039C780.218 746.131 780.039 747.218 779.843 748.298C779.641 749.377 779.433 750.454 779.186 751.514L778.998 752.31C778.933 752.575 778.864 752.838 778.797 753.102C778.73 753.366 778.657 753.627 778.579 753.886L778.523 754.082C778.519 754.099 778.513 754.115 778.506 754.13C778.498 754.145 778.495 754.162 778.488 754.178C778.472 754.208 778.454 754.236 778.433 754.262C778.391 754.317 778.336 754.361 778.27 754.394C778.238 754.411 778.204 754.425 778.168 754.436C778.13 754.447 778.092 754.454 778.052 754.459C778.012 754.464 777.972 754.467 777.93 754.467C777.889 754.465 777.846 754.461 777.804 754.454C777.761 754.447 777.719 754.437 777.676 754.425C777.634 754.411 777.592 754.395 777.55 754.376C777.47 754.338 777.392 754.294 777.318 754.244L777.092 754.101L776.19 753.533L775.288 752.965L774.835 752.681L774.722 752.61C774.685 752.585 774.646 752.563 774.606 752.543C774.527 752.503 774.444 752.472 774.36 752.454L774.365 752.455Z" fill="#1B1A2E"/>
<path d="M775.198 704.49C775.029 704.453 774.864 704.465 774.73 704.524C774.664 704.553 774.607 704.593 774.56 704.642L774.411 704.783C774.217 704.973 774.026 705.167 773.846 705.368C773.481 705.768 773.142 706.187 772.821 706.618C772.659 706.832 772.507 707.053 772.354 707.273C772.207 707.499 772.055 707.721 771.917 707.948C771.631 708.403 771.373 708.871 771.121 709.343C770.133 711.245 769.4 713.282 768.859 715.389L768.761 715.785C768.729 715.918 768.693 716.049 768.666 716.183L768.491 716.983C768.388 717.522 768.28 718.06 768.198 718.604L768.133 719.011C768.111 719.147 768.095 719.285 768.076 719.422C768.04 719.696 768 719.969 767.968 720.245L767.88 721.073L767.857 721.28C767.85 721.349 767.846 721.419 767.841 721.488L767.807 721.906C767.757 722.461 767.732 723.021 767.702 723.581C767.693 723.721 767.691 723.862 767.687 724.003L767.675 724.425C767.668 724.707 767.657 724.988 767.659 725.272L767.658 726.121L767.657 726.333L767.662 726.547L767.672 726.974C767.679 727.258 767.683 727.542 767.693 727.828L767.727 728.684C767.906 733.253 768.189 737.841 768.689 742.459C768.812 743.613 768.958 744.771 769.11 745.928C769.269 747.086 769.439 748.246 769.642 749.409L769.799 750.281C769.853 750.572 769.912 750.863 769.967 751.154C770.023 751.444 770.086 751.736 770.154 752.028L770.203 752.246C770.206 752.264 770.211 752.282 770.217 752.301C770.222 752.318 770.226 752.336 770.233 752.354C770.261 752.426 770.3 752.496 770.35 752.563C770.376 752.595 770.404 752.626 770.435 752.656C770.465 752.687 770.498 752.715 770.532 752.742C770.603 752.793 770.68 752.837 770.76 752.872C770.8 752.888 770.841 752.902 770.883 752.914C770.924 752.925 770.965 752.934 771.007 752.941C771.048 752.946 771.089 752.948 771.129 752.948C771.209 752.945 771.287 752.936 771.361 752.919L771.59 752.878L772.507 752.715L773.424 752.552L773.881 752.47L773.995 752.449C774.033 752.442 774.072 752.436 774.112 752.433C774.192 752.428 774.276 752.435 774.361 752.454L774.359 752.456C774.276 752.438 774.193 752.432 774.114 752.438C774.074 752.441 774.035 752.447 773.997 752.454L773.883 752.475L773.425 752.558L772.51 752.725L771.595 752.891L771.366 752.933C771.29 752.95 771.212 752.96 771.13 752.963C771.089 752.963 771.047 752.961 771.005 752.956C770.962 752.949 770.92 752.94 770.877 752.928C770.835 752.917 770.793 752.902 770.751 752.885C770.669 752.85 770.591 752.805 770.519 752.753C770.484 752.726 770.45 752.696 770.419 752.665C770.387 752.634 770.358 752.602 770.331 752.569C770.305 752.535 770.282 752.5 770.262 752.464C770.242 752.428 770.225 752.391 770.21 752.355C770.203 752.336 770.199 752.317 770.191 752.298C770.185 752.28 770.18 752.261 770.177 752.243L770.127 752.024C770.059 751.732 769.999 751.44 769.938 751.15C769.877 750.859 769.821 750.567 769.767 750.276L769.607 749.403C769.4 748.24 769.228 747.079 769.065 745.92C768.901 744.761 768.767 743.605 768.644 742.451C768.584 741.874 768.517 741.297 768.467 740.72L768.385 739.855L768.344 739.423L768.309 738.992L768.166 737.266L768.044 735.543C768.022 735.256 768.005 734.969 767.988 734.683L767.937 733.823L767.886 732.964L767.844 732.105L767.762 730.389L767.698 728.677L767.666 727.82C767.656 727.535 767.653 727.251 767.646 726.966L767.638 726.539L767.633 726.326L767.634 726.114L767.636 725.266C767.634 724.982 767.648 724.701 767.654 724.419L767.667 723.997C767.671 723.856 767.674 723.715 767.682 723.575L767.727 722.735C767.738 722.454 767.765 722.178 767.786 721.899L767.819 721.482C767.825 721.412 767.829 721.342 767.835 721.273L767.857 721.066L767.943 720.237C767.975 719.961 768.014 719.688 768.049 719.413C768.068 719.277 768.084 719.139 768.105 719.003L768.17 718.594C768.25 718.048 768.356 717.511 768.459 716.972L768.632 716.17C768.657 716.035 768.695 715.905 768.726 715.772L768.823 715.375C769.092 714.32 769.404 713.281 769.783 712.272C770.161 711.263 770.592 710.278 771.089 709.328C771.342 708.854 771.603 708.385 771.889 707.933C772.027 707.704 772.18 707.482 772.326 707.256C772.481 707.036 772.634 706.814 772.796 706.602C773.117 706.171 773.46 705.754 773.827 705.355C774.009 705.155 774.202 704.963 774.397 704.773L774.547 704.633C774.595 704.584 774.654 704.545 774.721 704.515C774.856 704.457 775.022 704.445 775.192 704.483L775.198 704.49Z" fill="#1B1A2E"/>
<path d="M773.074 751.985L774.395 750.708L774.491 745.142L774.448 745.241C773.586 747.25 773.114 749.554 773.073 751.986L773.074 751.985Z" fill="#1B1A2E"/>
<path d="M775.083 731.996L775.049 730.607C775.229 730.624 775.397 730.647 775.546 730.672C775.695 730.697 775.831 730.735 775.958 730.783C776.14 730.85 776.3 730.932 776.442 731.031C776.579 731.129 776.699 731.243 776.792 731.365C776.885 731.488 776.961 731.622 777.009 731.765C777.063 731.908 777.089 732.056 777.092 732.209C777.098 732.418 777.057 732.606 776.976 732.772C776.894 732.934 776.772 733.071 776.621 733.181C776.462 733.289 776.275 733.367 776.055 733.414C775.831 733.46 775.588 733.472 775.317 733.446C775.051 733.42 774.806 733.365 774.584 733.277C774.356 733.188 774.164 733.07 774.003 732.934C773.842 732.791 773.716 732.63 773.626 732.445C773.536 732.259 773.486 732.059 773.481 731.843C773.474 731.562 773.544 731.324 773.693 731.126C773.841 730.928 774.076 730.784 774.398 730.69L774.762 731.388C774.574 731.43 774.445 731.499 774.366 731.591C774.287 731.679 774.249 731.789 774.253 731.913C774.255 732.016 774.285 732.114 774.336 732.204C774.388 732.294 774.458 732.375 774.554 732.445C774.646 732.514 774.76 732.571 774.887 732.618C775.019 732.663 775.164 732.694 775.322 732.709C775.466 732.723 775.601 732.722 775.722 732.705C775.843 732.685 775.951 732.653 776.039 732.601C776.128 732.549 776.199 732.481 776.246 732.401C776.294 732.317 776.314 732.216 776.311 732.102C776.309 732.035 776.298 731.967 776.279 731.901C776.255 731.835 776.222 731.775 776.18 731.721C776.133 731.664 776.074 731.616 776.005 731.577C775.937 731.539 775.85 731.506 775.751 731.486L775.765 732.061L775.083 731.996ZM774.173 727.08L776.972 727.347L776.99 728.093L774.192 727.826L774.207 728.429L773.394 728.352L773.346 726.399L774.158 726.476L774.173 727.08ZM774.518 723.924C774.27 724.063 774.148 724.25 774.154 724.488C774.157 724.595 774.182 724.693 774.234 724.79C774.285 724.883 774.355 724.964 774.438 725.04C774.521 725.111 774.621 725.174 774.74 725.221C774.858 725.268 774.98 725.297 775.116 725.31C775.251 725.323 775.377 725.317 775.494 725.293C775.61 725.265 775.708 725.225 775.792 725.169C775.876 725.11 775.942 725.038 775.985 724.954C776.032 724.87 776.053 724.776 776.05 724.673C776.045 724.449 775.918 724.235 775.669 724.034L776.726 724.135L776.759 724.209C776.811 724.32 776.845 724.423 776.87 724.521C776.895 724.615 776.911 724.709 776.913 724.801C776.918 724.986 776.877 725.163 776.796 725.325C776.71 725.487 776.587 725.624 776.428 725.74C776.268 725.852 776.077 725.94 775.858 725.997C775.634 726.054 775.391 726.07 775.129 726.045C774.868 726.02 774.623 725.957 774.404 725.862C774.181 725.763 773.989 725.642 773.828 725.495C773.662 725.348 773.536 725.184 773.442 725.005C773.347 724.826 773.298 724.64 773.293 724.452C773.29 724.345 773.301 724.24 773.33 724.14C773.355 724.036 773.397 723.931 773.453 723.823L774.518 723.924ZM775.051 722.515C775.186 722.528 775.312 722.519 775.429 722.491C775.545 722.463 775.643 722.416 775.727 722.357C775.811 722.298 775.877 722.222 775.92 722.134C775.962 722.046 775.983 721.949 775.98 721.846C775.977 721.743 775.953 721.645 775.905 721.548C775.853 721.451 775.783 721.363 775.7 721.284C775.613 721.205 775.512 721.139 775.394 721.089C775.275 721.038 775.153 721.005 775.013 720.992C774.873 720.979 774.752 720.988 774.635 721.016C774.519 721.044 774.421 721.091 774.337 721.154C774.253 721.213 774.192 721.289 774.149 721.381C774.102 721.468 774.082 721.562 774.084 721.665C774.087 721.768 774.112 721.866 774.164 721.967C774.211 722.063 774.281 722.148 774.364 722.227C774.451 722.302 774.552 722.369 774.67 722.419C774.789 722.469 774.915 722.503 775.051 722.515ZM775.069 723.247C774.816 723.223 774.576 723.165 774.358 723.069C774.135 722.974 773.938 722.852 773.772 722.705C773.606 722.558 773.472 722.389 773.377 722.2C773.277 722.006 773.227 721.799 773.222 721.583C773.217 721.366 773.257 721.168 773.347 720.996C773.433 720.82 773.555 720.676 773.719 720.56C773.878 720.441 774.07 720.356 774.289 720.303C774.504 720.249 774.742 720.236 774.995 720.26C775.248 720.285 775.488 720.343 775.711 720.439C775.929 720.534 776.126 720.655 776.292 720.806C776.458 720.953 776.593 721.122 776.692 721.315C776.787 721.509 776.837 721.712 776.842 721.928C776.848 722.149 776.808 722.347 776.722 722.519C776.631 722.691 776.509 722.835 776.345 722.951C776.186 723.067 775.994 723.151 775.78 723.205C775.56 723.258 775.326 723.272 775.069 723.247ZM773.153 718.621L776.764 718.966L776.783 719.712L773.172 719.367L773.153 718.621ZM773.412 729.062L777.023 729.407L777.042 730.153L773.43 729.808L773.412 729.062ZM776.745 718.185L773.134 717.84L773.116 717.13L775.289 715.956L773.082 715.745L773.063 714.999L776.674 715.344L776.692 716.061L774.519 717.228L776.726 717.439L776.745 718.185Z" fill="white"/>
<path d="M775.465 735.898C775.984 735.948 776.495 736.116 776.934 736.382L777.43 735.944C776.845 735.572 776.154 735.336 775.449 735.27C774.765 735.205 774.1 735.3 773.538 735.544L774.036 736.095C774.443 735.927 774.939 735.848 775.465 735.898Z" fill="#02E2AC"/>
<path d="M777.785 735.578C777.446 735.876 776.312 736.911 776.162 737.048C775.952 736.942 775.72 736.876 775.486 736.855C775.251 736.834 775.022 736.859 774.819 736.928L773.562 735.536L773.169 735.127C773.089 735.028 773.003 735.005 772.893 735.06C772.751 735.133 772.615 735.214 772.488 735.302C771.809 735.772 771.367 736.451 771.29 737.248L770.476 737.17C770.261 737.15 770.076 737.26 770.066 737.428C770.063 737.471 770.072 737.515 770.092 737.558C770.111 737.601 770.141 737.641 770.18 737.677C770.219 737.712 770.265 737.742 770.316 737.764C770.367 737.787 770.422 737.801 770.478 737.806L771.306 737.885C771.345 738.16 771.427 738.434 771.549 738.703L770.511 738.604C770.296 738.583 770.111 738.693 770.101 738.861C770.099 738.904 770.108 738.948 770.127 738.991C770.147 739.034 770.177 739.075 770.216 739.11C770.254 739.145 770.301 739.175 770.352 739.197C770.403 739.22 770.458 739.234 770.513 739.239L771.951 739.376C772.716 740.396 774.058 741.157 775.573 741.311C777.928 741.55 779.816 740.189 779.77 738.335L779.708 735.86C779.707 735.815 779.686 735.769 779.648 735.731C779.61 735.693 779.558 735.665 779.501 735.653L778.033 735.51C777.985 735.505 777.938 735.509 777.895 735.521C777.852 735.532 777.815 735.552 777.785 735.578ZM778.317 736.169L778.911 736.229L778.961 738.265C778.998 739.762 777.475 740.865 775.574 740.676C774.532 740.572 773.59 740.113 772.948 739.472L773.735 739.547C773.95 739.567 774.135 739.457 774.145 739.289C774.147 739.246 774.138 739.202 774.119 739.159C774.099 739.116 774.069 739.076 774.03 739.04C773.992 739.005 773.945 738.975 773.894 738.953C773.843 738.931 773.788 738.917 773.733 738.911L772.42 738.786C772.21 738.417 772.097 738.027 772.087 737.642C772.07 736.93 772.355 736.359 772.914 735.93L774.245 737.354C774.151 737.499 774.105 737.663 774.109 737.835C774.125 738.451 774.771 739.01 775.552 739.085C776.334 739.16 776.955 738.721 776.94 738.106C776.936 737.931 776.879 737.754 776.775 737.589L778.317 736.169ZM775.513 737.493C775.633 737.504 775.751 737.543 775.852 737.605C775.953 737.667 776.032 737.749 776.081 737.841C776.129 737.933 776.143 738.03 776.122 738.12C776.101 738.211 776.045 738.291 775.962 738.349C775.879 738.408 775.772 738.443 775.655 738.45C775.537 738.458 775.415 738.436 775.303 738.39C775.192 738.343 775.095 738.273 775.027 738.188C774.958 738.103 774.92 738.007 774.918 737.913C774.915 737.786 774.976 737.67 775.087 737.592C775.199 737.513 775.352 737.477 775.513 737.493Z" fill="white"/>
<path d="M337.971 621.582C336.487 621.715 335.114 622.025 333.854 622.514C332.583 622.985 331.445 623.639 330.44 624.475C329.438 625.297 328.59 626.3 327.898 627.483C327.205 628.666 326.691 630.021 326.356 631.547C325.806 634.049 325.95 636.473 326.789 638.819C327.627 641.166 329.168 643.235 331.411 645.025C333.654 646.816 336.6 648.133 340.247 648.978C343.894 649.822 347.107 649.923 349.885 649.281C352.664 648.639 354.927 647.422 356.675 645.631C358.423 643.84 359.585 641.639 360.159 639.027C360.691 636.608 360.645 634.358 360.022 632.278C359.388 630.181 358.238 628.398 356.573 626.929C354.897 625.443 352.77 624.401 350.192 623.805L350.865 622.314L348.073 635.015L343.548 633.967L347.084 617.884L351.609 618.932C355.078 619.735 357.931 621.176 360.169 623.254C362.41 625.319 363.951 627.814 364.792 630.739C365.622 633.647 365.668 636.778 364.931 640.132C364.109 643.871 362.509 646.953 360.131 649.378C357.756 651.79 354.777 653.411 351.193 654.243C347.613 655.061 343.601 654.955 339.159 653.926C335.827 653.155 332.929 652.015 330.466 650.505C327.991 648.979 325.996 647.173 324.48 645.089C322.965 643.004 321.954 640.719 321.449 638.233C320.944 635.747 320.989 633.15 321.584 630.442C322.074 628.215 322.866 626.217 323.961 624.448C325.046 622.663 326.364 621.155 327.917 619.925C329.459 618.679 331.185 617.742 333.096 617.116C334.992 616.486 337.004 616.215 339.132 616.303L337.971 621.582Z" fill="#204473"/>
<path d="M338.402 572.259L378.709 588.188L376.866 593.102L336.559 577.173L338.402 572.259Z" fill="#204473"/>
<path d="M348.502 555.721L344.384 553.548L359.066 524.549L363.183 526.722L357.028 538.88L391.24 556.932L388.869 561.615L354.657 543.562L348.502 555.721Z" fill="#204473"/>
<path d="M403.296 480.224L400.208 484.481C398.824 483.813 397.449 483.446 396.083 483.379C394.726 483.301 393.414 483.472 392.149 483.891C390.881 484.291 389.7 484.909 388.605 485.744C387.511 486.578 386.54 487.58 385.693 488.747C384.149 490.875 383.277 493.207 383.079 495.743C382.888 498.267 383.451 500.825 384.766 503.417C386.09 505.996 388.244 508.429 391.23 510.716C394.216 513.002 397.102 514.428 399.886 514.994C402.68 515.548 405.226 515.371 407.527 514.463C409.836 513.543 411.763 512.019 413.307 509.89C414.154 508.723 414.81 507.481 415.276 506.165C415.743 504.849 415.987 503.514 416.008 502.16C416.027 500.786 415.807 499.442 415.346 498.128C414.882 496.794 414.146 495.545 413.139 494.382L416.228 490.126C417.758 491.795 418.911 493.587 419.689 495.499C420.466 497.412 420.887 499.371 420.95 501.378C421.002 503.376 420.712 505.352 420.08 507.306C419.456 509.249 418.5 511.108 417.213 512.881C415.038 515.879 412.385 517.995 409.254 519.23C406.124 520.464 402.748 520.736 399.128 520.047C395.507 519.357 391.878 517.62 388.241 514.835C384.604 512.05 381.947 508.974 380.269 505.607C378.592 502.24 377.881 498.839 378.138 495.405C378.395 491.97 379.611 488.754 381.787 485.756C383.073 483.982 384.534 482.511 386.168 481.341C387.811 480.16 389.577 479.314 391.467 478.803C393.346 478.284 395.288 478.133 397.295 478.352C399.29 478.563 401.29 479.187 403.296 480.224Z" fill="#204473"/>
<path d="M474.377 390.848L499.121 426.562L494.855 429.642L470.111 393.928L474.377 390.848Z" fill="#204473"/>
<path d="M526.313 359.595L546.407 398.003L541.935 400.414L505.367 381.467L504.995 381.668L520.771 411.824L516.151 414.315L496.057 375.907L500.529 373.496L537.211 392.478L537.583 392.277L521.767 362.046L526.313 359.595Z" fill="#204473"/>
<path d="M611.639 338.956C610.886 336.929 609.492 335.558 607.456 334.843C605.421 334.128 603.127 334.089 600.576 334.727C598.71 335.193 597.151 335.904 595.899 336.858C594.66 337.809 593.778 338.911 593.252 340.165C592.741 341.415 592.648 342.713 592.974 344.06C593.247 345.187 593.75 346.089 594.481 346.766C595.223 347.425 596.084 347.917 597.064 348.24C598.041 348.55 599.038 348.76 600.054 348.87C601.067 348.967 601.989 349.02 602.821 349.031L607.38 349.115C608.547 349.129 609.865 349.223 611.332 349.395C612.813 349.564 614.278 349.934 615.725 350.505C617.183 351.058 618.482 351.914 619.621 353.072C620.76 354.23 621.569 355.798 622.049 357.777C622.602 360.058 622.505 362.269 621.757 364.408C621.024 366.545 619.65 368.44 617.636 370.095C615.636 371.746 613.018 372.977 609.78 373.786C606.763 374.541 604.031 374.706 601.587 374.283C599.155 373.856 597.097 372.927 595.412 371.498C593.741 370.065 592.544 368.215 591.82 365.947L597.087 364.63C597.61 366.19 598.465 367.375 599.651 368.187C600.847 368.98 602.227 369.452 603.79 369.6C605.364 369.731 606.988 369.588 608.661 369.169C610.609 368.682 612.282 367.929 613.678 366.909C615.072 365.876 616.083 364.676 616.712 363.309C617.337 361.928 617.464 360.468 617.091 358.929C616.751 357.528 616.084 356.485 615.089 355.801C614.094 355.117 612.892 354.66 611.483 354.429C610.074 354.198 608.579 354.062 606.998 354.02L601.453 353.832C597.931 353.707 594.997 353.005 592.65 351.727C590.304 350.448 588.786 348.386 588.096 345.542C587.523 343.178 587.662 340.958 588.511 338.88C589.371 336.785 590.766 334.979 592.697 333.461C594.638 331.927 596.953 330.823 599.642 330.151C602.357 329.472 604.89 329.356 607.239 329.804C609.584 330.237 611.577 331.138 613.218 332.506C614.873 333.87 615.992 335.609 616.577 337.722L611.639 338.956Z" fill="#204473"/>
<path d="M674.255 317.258L679.493 316.776L682.018 345.423C682.279 348.38 681.815 351.085 680.626 353.537C679.45 355.973 677.661 357.976 675.258 359.546C672.855 361.101 669.957 362.035 666.564 362.347C663.171 362.658 660.156 362.268 657.519 361.176C654.881 360.069 652.763 358.425 651.165 356.244C649.581 354.047 648.658 351.469 648.397 348.512L645.872 319.865L651.11 319.384L653.598 347.608C653.784 349.721 654.414 351.558 655.489 353.12C656.562 354.669 657.999 355.836 659.8 356.622C661.613 357.392 663.724 357.667 666.132 357.445C668.539 357.224 670.568 356.569 672.218 355.481C673.866 354.378 675.076 352.968 675.847 351.25C676.631 349.517 676.93 347.594 676.744 345.481L674.255 317.258Z" fill="#204473"/>
<path d="M712.274 315.12L718.525 315.759L729.705 353.174L730.212 353.226L748.428 318.811L754.679 319.45L750.441 362.716L745.541 362.216L748.761 329.344L748.339 329.3L731.604 360.793L726.873 360.31L716.578 326.058L716.155 326.015L712.935 358.887L708.036 358.387L712.274 315.12Z" fill="#204473"/>
<path d="M792.41 326.331L798.372 328.233L801.77 367.044L802.253 367.199L826.895 337.333L832.857 339.235L820.061 380.603L815.388 379.112L825.11 347.682L824.707 347.554L802.093 374.87L797.581 373.431L794.412 337.888L794.009 337.76L784.287 369.19L779.614 367.699L792.41 326.331Z" fill="#204473"/>
<path d="M847.85 391.212L868.374 352.799L891.398 365.476L889.194 369.603L870.789 359.469L863.854 372.448L881.067 381.926L878.862 386.052L861.65 376.575L854.675 389.629L873.378 399.927L871.173 404.053L847.85 391.212Z" fill="#204473"/>
<path d="M895.868 419.166L922.095 384.489L933.616 393.605C936.28 395.712 938.117 397.905 939.126 400.183C940.144 402.45 940.457 404.71 940.066 406.962C939.675 409.215 938.707 411.363 937.162 413.406C935.616 415.449 933.835 416.936 931.819 417.867C929.802 418.797 927.603 419.042 925.222 418.602C922.849 418.15 920.342 416.879 917.701 414.789L908.377 407.412L911.246 403.619L920.436 410.891C922.256 412.331 923.926 413.219 925.446 413.555C926.977 413.9 928.368 413.774 929.618 413.176C930.889 412.575 932.049 411.581 933.099 410.192C934.149 408.804 934.812 407.388 935.087 405.946C935.362 404.503 935.152 403.056 934.458 401.605C933.772 400.142 932.508 398.682 930.666 397.224L923.407 391.481L899.997 422.433L895.868 419.166ZM923.699 416.287L920.308 438.503L915.514 434.71L919.038 412.599L923.699 416.287Z" fill="#204473"/>
<path d="M995.111 449.723L973.934 482.578L974.24 482.986L1010.88 470.834L1014.18 475.261L970.282 489.19L967.026 484.832L991.805 445.297L995.111 449.723Z" fill="#204473"/>
<path d="M1032.8 505.372L995.642 527.868L993.023 523.307L1030.18 500.81L1032.8 505.372Z" fill="#204473"/>
<path d="M1006.07 545.76L1045.93 528.512L1051.69 542.556C1052.84 545.354 1053.31 547.869 1053.1 550.102C1052.9 552.329 1052.18 554.236 1050.93 555.821C1049.7 557.401 1048.11 558.612 1046.17 559.454C1044.46 560.195 1042.92 560.5 1041.55 560.368C1040.18 560.249 1038.97 559.833 1037.92 559.12C1036.87 558.421 1035.95 557.563 1035.16 556.547L1034.78 556.715C1035.2 557.978 1035.28 559.399 1035.01 560.978C1034.75 562.557 1034.06 564.079 1032.95 565.545C1031.84 567.01 1030.23 568.198 1028.13 569.108C1026.13 569.972 1024.15 570.292 1022.18 570.067C1020.21 569.843 1018.35 568.945 1016.6 567.375C1014.86 565.805 1013.34 563.438 1012.04 560.273L1006.07 545.76ZM1012.35 548.771L1016.32 558.421C1017.62 561.598 1019.16 563.59 1020.93 564.396C1022.71 565.209 1024.48 565.237 1026.23 564.479C1027.58 563.895 1028.68 563.009 1029.54 561.822C1030.41 560.63 1030.93 559.244 1031.09 557.665C1031.26 556.08 1030.99 554.412 1030.27 552.66L1026.21 542.775L1012.35 548.771ZM1030.41 540.956L1034.12 549.978C1034.72 551.442 1035.55 552.639 1036.6 553.569C1037.66 554.512 1038.85 555.105 1040.17 555.349C1041.5 555.606 1042.87 555.432 1044.27 554.825C1046.02 554.067 1047.25 552.81 1047.97 551.053C1048.69 549.291 1048.51 547.076 1047.41 544.408L1043.64 535.229L1030.41 540.956Z" fill="#204473"/>
<path d="M1026.83 598.647L1068.95 588.451L1074.81 613.939L1070.28 615.034L1065.6 594.661L1051.37 598.106L1055.75 617.16L1051.22 618.255L1046.84 599.201L1032.53 602.666L1037.29 623.369L1032.77 624.465L1026.83 598.647Z" fill="#204473"/>
<path d="M1072.94 673.437C1075.07 673.051 1076.67 671.916 1077.74 670.032C1078.8 668.148 1079.25 665.89 1079.07 663.258C1078.94 661.334 1078.51 659.67 1077.79 658.264C1077.07 656.874 1076.14 655.808 1075 655.069C1073.85 654.343 1072.59 654.023 1071.2 654.108C1070.04 654.179 1069.06 654.516 1068.26 655.119C1067.48 655.735 1066.84 656.499 1066.35 657.41C1065.87 658.32 1065.49 659.267 1065.2 660.251C1064.92 661.234 1064.71 662.135 1064.55 662.954L1063.66 667.442C1063.44 668.592 1063.12 669.876 1062.69 671.295C1062.26 672.728 1061.63 674.108 1060.81 675.437C1060.01 676.779 1058.94 677.911 1057.59 678.831C1056.25 679.752 1054.56 680.275 1052.52 680.4C1050.17 680.544 1048 680.058 1046.02 678.943C1044.04 677.843 1042.41 676.152 1041.14 673.872C1039.86 671.606 1039.11 668.803 1038.88 665.464C1038.67 662.352 1038.99 659.626 1039.84 657.286C1040.69 654.961 1041.97 653.092 1043.68 651.68C1045.39 650.283 1047.43 649.426 1049.8 649.111L1050.16 654.544C1048.53 654.786 1047.21 655.421 1046.2 656.449C1045.21 657.49 1044.5 658.77 1044.07 660.287C1043.67 661.818 1043.52 663.447 1043.64 665.173C1043.77 667.182 1044.22 668.966 1044.98 670.525C1045.76 672.083 1046.76 673.293 1048 674.155C1049.25 675.016 1050.67 675.398 1052.26 675.301C1053.7 675.212 1054.85 674.737 1055.7 673.875C1056.55 673.013 1057.21 671.907 1057.69 670.556C1058.17 669.206 1058.57 667.754 1058.89 666.2L1060.05 660.758C1060.8 657.302 1062.01 654.528 1063.69 652.437C1065.37 650.345 1067.67 649.209 1070.6 649.03C1073.03 648.881 1075.2 649.408 1077.1 650.613C1079.02 651.831 1080.56 653.528 1081.71 655.701C1082.88 657.889 1083.56 660.369 1083.75 663.142C1083.94 665.944 1083.61 668.464 1082.75 670.705C1081.91 672.945 1080.67 674.754 1079.03 676.133C1077.39 677.526 1075.47 678.326 1073.28 678.531L1072.94 673.437Z" fill="#204473"/>
<path d="M1056.1 798.921C1057.59 798.88 1058.99 798.653 1060.28 798.241C1061.58 797.846 1062.76 797.26 1063.82 796.483C1064.88 795.719 1065.79 794.765 1066.55 793.62C1067.32 792.475 1067.91 791.147 1068.34 789.635C1069.04 787.157 1069.04 784.714 1068.34 782.306C1067.64 779.898 1066.22 777.725 1064.07 775.788C1061.93 773.851 1059.05 772.346 1055.45 771.272C1051.84 770.197 1048.62 769.897 1045.8 770.37C1042.98 770.842 1040.63 771.924 1038.77 773.614C1036.91 775.304 1035.62 777.442 1034.89 780.029C1034.21 782.425 1034.12 784.687 1034.62 786.814C1035.13 788.959 1036.18 790.821 1037.76 792.399C1039.36 793.995 1041.43 795.173 1043.98 795.932L1043.21 797.387L1046.77 784.807L1051.24 786.139L1046.74 802.069L1042.26 800.736C1038.83 799.715 1036.06 798.091 1033.94 795.866C1031.81 793.654 1030.42 791.053 1029.75 788.064C1029.09 785.093 1029.23 781.946 1030.17 778.624C1031.22 774.921 1033 771.925 1035.53 769.637C1038.06 767.363 1041.14 765.919 1044.78 765.306C1048.42 764.707 1052.44 765.062 1056.83 766.37C1060.13 767.351 1062.97 768.676 1065.35 770.344C1067.74 772.03 1069.63 773.967 1071.03 776.154C1072.42 778.341 1073.3 780.698 1073.66 783.226C1074.02 785.753 1073.82 788.358 1073.06 791.04C1072.43 793.246 1071.52 795.203 1070.32 796.911C1069.12 798.637 1067.71 800.069 1066.08 801.208C1064.46 802.364 1062.67 803.197 1060.72 803.708C1058.78 804.223 1056.75 804.37 1054.62 804.15L1056.1 798.921Z" fill="#204473"/>
<path d="M1052.8 846.719L1013.31 828.998L1015.4 824.194L1054.9 841.916L1052.8 846.719Z" fill="#204473"/>
<path d="M1041.68 863.645L1045.67 866.061L1029.45 894.313L1025.45 891.897L1032.26 880.051L999.09 859.972L1001.71 855.41L1034.88 875.49L1041.68 863.645Z" fill="#204473"/>
<path d="M983.531 935.954L986.83 931.85C988.179 932.587 989.535 933.023 990.897 933.158C992.25 933.304 993.569 933.199 994.854 932.842C996.141 932.505 997.352 931.947 998.488 931.166C999.624 930.385 1000.64 929.433 1001.55 928.307C1003.2 926.255 1004.18 923.966 1004.51 921.44C1004.82 918.924 1004.39 916.337 1003.2 913.68C1002.01 911.033 999.976 908.492 997.105 906.056C994.235 903.62 991.422 902.05 988.667 901.345C985.903 900.651 983.348 900.701 981.004 901.495C978.651 902.3 976.65 903.729 975.001 905.781C974.096 906.906 973.378 908.115 972.847 909.409C972.316 910.702 972.006 912.025 971.916 913.378C971.829 914.752 971.983 916.107 972.379 917.444C972.776 918.802 973.449 920.088 974.398 921.301L971.099 925.405C969.653 923.658 968.589 921.809 967.907 919.857C967.225 917.905 966.902 915.924 966.939 913.914C966.986 911.913 967.374 909.951 968.103 908.027C968.824 906.115 969.871 904.304 971.245 902.594C973.568 899.704 976.325 897.719 979.515 896.641C982.705 895.563 986.092 895.459 989.676 896.329C993.26 897.199 996.801 899.118 1000.3 902.085C1003.79 905.052 1006.3 908.261 1007.81 911.713C1009.32 915.165 1009.86 918.602 1009.43 922.025C1009 925.447 1007.63 928.604 1005.3 931.494C1003.93 933.204 1002.4 934.603 1000.7 935.691C999.005 936.791 997.197 937.549 995.283 937.965C993.38 938.391 991.431 938.445 989.437 938.126C987.453 937.816 985.485 937.092 983.531 935.954Z" fill="#204473"/>
<path d="M907.309 1021.39L884.663 984.31L889.077 981.447L911.723 1018.52L907.309 1021.39Z" fill="#204473"/>
<path d="M854.094 1050.29L836.234 1010.78L840.83 1008.61L876.225 1029.56L876.608 1029.38L862.585 998.364L867.334 996.126L885.195 1035.63L880.598 1037.8L845.092 1016.81L844.709 1016.99L858.767 1048.08L854.094 1050.29Z" fill="#204473"/>
<path d="M767.721 1065.94C768.35 1068 769.656 1069.44 771.639 1070.26C773.621 1071.08 775.901 1071.23 778.477 1070.73C780.36 1070.36 781.953 1069.73 783.256 1068.84C784.545 1067.96 785.488 1066.9 786.085 1065.68C786.668 1064.46 786.837 1063.17 786.592 1061.81C786.387 1060.67 785.941 1059.74 785.253 1059.03C784.554 1058.33 783.727 1057.8 782.771 1057.42C781.817 1057.06 780.838 1056.8 779.834 1056.64C778.832 1056.49 777.918 1056.39 777.091 1056.33L772.56 1056.01C771.4 1055.94 770.095 1055.78 768.645 1055.53C767.181 1055.29 765.746 1054.84 764.34 1054.2C762.922 1053.57 761.681 1052.65 760.617 1051.43C759.552 1050.22 758.84 1048.61 758.48 1046.61C758.065 1044.3 758.293 1042.1 759.163 1040C760.019 1037.91 761.498 1036.09 763.6 1034.54C765.687 1033 768.366 1031.9 771.634 1031.26C774.681 1030.67 777.408 1030.64 779.815 1031.19C782.208 1031.74 784.201 1032.78 785.792 1034.29C787.37 1035.81 788.452 1037.72 789.038 1040.02L783.719 1041.06C783.291 1039.48 782.511 1038.25 781.379 1037.38C780.236 1036.52 778.892 1035.98 777.345 1035.75C775.787 1035.54 774.163 1035.6 772.474 1035.93C770.507 1036.31 768.799 1036.98 767.349 1037.93C765.901 1038.89 764.824 1040.03 764.117 1041.36C763.413 1042.71 763.201 1044.16 763.481 1045.72C763.736 1047.13 764.338 1048.21 765.287 1048.94C766.237 1049.68 767.405 1050.19 768.793 1050.5C770.181 1050.8 771.661 1051.01 773.231 1051.14L778.736 1051.61C782.232 1051.92 785.11 1052.77 787.369 1054.17C789.627 1055.57 791.015 1057.7 791.533 1060.58C791.963 1062.97 791.693 1065.18 790.725 1067.21C789.746 1069.26 788.251 1070.99 786.24 1072.4C784.218 1073.83 781.849 1074.81 779.135 1075.35C776.393 1075.88 773.867 1075.87 771.556 1075.3C769.249 1074.75 767.319 1073.74 765.768 1072.29C764.203 1070.85 763.192 1069.05 762.735 1066.91L767.721 1065.94Z" fill="#204473"/>
<path d="M704.573 1084.29L699.309 1084.5L698.181 1055.72C698.064 1052.75 698.661 1050.07 699.97 1047.67C701.266 1045.3 703.154 1043.39 705.635 1041.94C708.116 1040.51 711.061 1039.72 714.472 1039.58C717.882 1039.44 720.88 1039.99 723.465 1041.22C726.051 1042.46 728.09 1044.21 729.582 1046.48C731.06 1048.76 731.858 1051.38 731.974 1054.35L733.102 1083.14L727.838 1083.35L726.726 1054.99C726.643 1052.87 726.102 1051 725.103 1049.38C724.105 1047.78 722.724 1046.53 720.961 1045.66C719.183 1044.79 717.085 1044.41 714.665 1044.51C712.245 1044.61 710.183 1045.16 708.479 1046.16C706.776 1047.18 705.496 1048.53 704.641 1050.21C703.771 1051.9 703.379 1053.81 703.462 1055.93L704.573 1084.29Z" fill="#204473"/>
<path d="M666.578 1084.4L660.36 1083.45L651.042 1045.47L650.538 1045.39L630.611 1078.89L624.393 1077.94L630.783 1034.89L635.657 1035.63L630.802 1068.34L631.222 1068.41L649.523 1037.76L654.229 1038.48L662.819 1073.25L663.24 1073.31L668.094 1040.6L672.969 1041.35L666.578 1084.4Z" fill="#204473"/>
<path d="M586.88 1069.92L581.018 1067.69L579.575 1028.61L579.1 1028.43L552.975 1057.03L547.113 1054.8L561.98 1014.04L566.575 1015.79L555.28 1046.76L555.676 1046.91L579.646 1020.75L584.082 1022.44L585.461 1058.23L585.857 1058.38L597.152 1027.41L601.747 1029.16L586.88 1069.92Z" fill="#204473"/>
<path d="M535.286 1001.11L512.978 1038.33L490.808 1024.39L493.204 1020.39L510.926 1031.54L518.464 1018.96L501.89 1008.53L504.286 1004.53L520.86 1014.96L528.442 1002.31L510.433 990.976L512.829 986.977L535.286 1001.11Z" fill="#204473"/>
<path d="M488.4 971.233L460.528 1004.5L449.555 994.774C447.018 992.524 445.307 990.234 444.423 987.903C443.53 985.582 443.337 983.306 443.843 981.075C444.349 978.843 445.423 976.747 447.065 974.787C448.707 972.827 450.554 971.436 452.607 970.613C454.659 969.79 456.857 969.663 459.2 970.23C461.535 970.809 463.96 972.213 466.476 974.444L475.356 982.317L472.307 985.956L463.554 978.195C461.82 976.658 460.207 975.681 458.715 975.264C457.211 974.837 455.823 974.889 454.549 975.42C453.255 975.953 452.05 976.885 450.934 978.218C449.818 979.55 449.086 980.929 448.738 982.357C448.389 983.784 448.522 985.242 449.136 986.73C449.741 988.229 450.921 989.757 452.676 991.312L459.59 997.442L484.467 967.746L488.4 971.233ZM460.593 972.626L465.121 950.595L469.688 954.644L465.033 976.562L460.593 972.626Z" fill="#204473"/>
<path d="M398.098 935.845L394.298 938.542L376.139 911.548L379.939 908.851L387.553 920.169L419.128 897.762L422.059 902.12L390.484 924.527L398.098 935.845Z" fill="#204473"/>
<path d="M357.061 880.604L395.384 859.942L397.807 864.625L359.483 885.286L357.061 880.604Z" fill="#204473"/>
<path d="M343.969 855.586L341.944 849.633L371.216 823.567L371.052 823.084L332.255 821.157L330.229 815.205L371.232 800.664L372.819 805.33L341.667 816.377L341.804 816.779L377.335 818.602L378.868 823.107L352.095 847.025L352.232 847.427L383.384 836.38L384.971 841.045L343.969 855.586Z" fill="#204473"/>
<path d="M364.021 770.868L320.999 776.636L317.69 750.649L322.311 750.029L324.956 770.802L339.493 768.853L337.019 749.426L341.641 748.807L344.115 768.234L358.735 766.274L356.047 745.164L360.669 744.545L364.021 770.868Z" fill="#204473"/>
</svg>
