<svg width="3069" height="2965" viewBox="0 0 3069 2965" fill="none" xmlns="http://www.w3.org/2000/svg">
<g clip-path="url(#clip0_82_2421)">
<rect width="3069" height="2965" fill="white"/>
<path d="M1588.35 1619.05C1915.15 1614.7 2177.47 1359.97 2174.26 1050.09C2171.04 740.211 1903.52 492.524 1576.72 496.867C1249.92 501.21 987.605 755.939 990.817 1065.82C994.03 1375.7 1261.56 1623.39 1588.35 1619.05Z" fill="#FFD74F"/>
<path d="M1058.3 1821.42L1579.69 2130.98L1578.51 2557.34L1058.3 1821.42Z" fill="#29A9AF" stroke="#2B1EBC" stroke-width="1.5" stroke-linejoin="round"/>
<path d="M1058.56 1721.96L1581.47 1486.23L1583.21 858.166L1058.56 1721.96Z" fill="#64CAE7" stroke="#2B1EBC" stroke-width="1.5" stroke-linejoin="round"/>
<path d="M1058.57 1721.97L1581.47 1486.23L1579.95 2031.96L1058.57 1721.97Z" fill="#8AE9EE" stroke="#2B1EBC" stroke-width="1.5" stroke-linejoin="round"/>
<path d="M2102.76 1824.74L1579.66 2130.98L1578.48 2557.34L2102.76 1824.74Z" fill="#18CAD3" stroke="#2B1EBC" stroke-width="1.5" stroke-linejoin="round"/>
<path d="M2103.07 1725.28L1581.48 1486.23L1583.23 858.172L2103.07 1725.28Z" fill="#64CAE6" stroke="#2B1EBC" stroke-width="1.5" stroke-linejoin="round"/>
<path d="M2102.69 1725.68L1581.11 1486.62L1579.59 2032.35L2102.69 1725.68Z" fill="#8AE9EE" stroke="#2B1EBC" stroke-width="1.5" stroke-linejoin="round"/>
<path d="M600.413 514.376C607.312 520.55 612.236 528.658 614.579 537.7L628.731 535.322C625.918 522.963 619.375 511.844 610.001 503.49C600.906 495.357 589.589 490.162 577.475 488.559L576.221 503.076C584.864 504.37 593.423 508.121 600.413 514.376Z" fill="#02E2AC"/>
<path d="M639.639 532.866C629.972 534.467 597.055 540.502 592.686 541.301C591.25 537.342 588.856 533.823 585.719 531.06C582.582 528.298 578.8 526.379 574.714 525.476L577.892 488.823L578.472 477.805C578.839 475.299 577.927 474.019 575.434 473.849C572.188 473.627 568.926 473.615 565.67 473.814C548.281 474.869 531.147 481.921 517.569 494.729L506.754 485.052C503.893 482.491 499.443 482.472 496.676 485.238C495.963 485.948 495.4 486.796 495.021 487.728C494.641 488.661 494.455 489.659 494.471 490.66C494.488 491.662 494.708 492.645 495.119 493.55C495.529 494.454 496.12 495.261 496.856 495.919L507.858 505.765C504.149 510.856 501.065 516.378 498.678 522.205L484.896 509.872C482.035 507.312 477.584 507.293 474.818 510.059C474.105 510.769 473.542 511.616 473.163 512.548C472.783 513.481 472.597 514.479 472.614 515.48C472.63 516.482 472.851 517.465 473.261 518.369C473.671 519.274 474.263 520.08 474.998 520.739L494.099 537.832C489.49 563.075 497.425 589.827 517.409 608.004C548.463 636.247 597.622 632.389 625.901 600.277L663.652 557.41C664.34 556.628 664.736 555.63 664.77 554.593C664.803 553.556 664.473 552.547 663.837 551.745L644.363 534.24C643.732 533.67 642.98 533.252 642.163 533.015C641.347 532.777 640.485 532.726 639.639 532.866ZM638.271 548.399L646.107 555.516L615.044 590.788C592.222 616.703 552.481 619.894 527.352 597.178C513.557 584.71 506.815 567.21 507.348 549.692L517.792 559.038C520.654 561.599 525.104 561.618 527.871 558.852C528.584 558.142 529.146 557.295 529.526 556.362C529.905 555.429 530.092 554.431 530.075 553.43C530.058 552.429 529.838 551.446 529.427 550.542C529.017 549.637 528.426 548.831 527.691 548.173L510.253 532.569C512.918 524.109 517.332 516.29 523.201 509.636C534.063 497.302 547.199 490.477 562.154 488.892L559.578 526.849C555.939 528.358 552.682 530.696 550.064 533.675C540.675 544.337 541.481 560.514 551.867 569.807C562.252 579.101 578.282 577.991 587.672 567.329C590.336 564.308 592.269 560.707 593.313 556.819L638.271 548.399ZM576.154 542.229C577.748 543.655 578.879 545.535 579.404 547.63C579.928 549.725 579.823 551.941 579.102 553.999C578.381 556.057 577.075 557.863 575.351 559.19C573.626 560.517 571.56 561.304 569.414 561.452C567.268 561.601 565.138 561.104 563.294 560.025C561.449 558.945 559.973 557.331 559.052 555.386C558.131 553.442 557.806 551.256 558.118 549.102C558.431 546.95 559.367 544.927 560.809 543.29C562.741 541.096 565.443 539.751 568.321 539.552C571.199 539.353 574.017 540.316 576.154 542.229Z" fill="#11538C"/>
<path d="M2406.22 2526.67C2399.49 2518.86 2395.18 2509.2 2393.82 2498.86L2378.02 2499.49C2379.45 2513.56 2385.13 2526.79 2394.28 2537.36C2403.15 2547.64 2414.85 2554.99 2427.89 2558.48L2431.2 2542.6C2421.91 2539.94 2413.04 2534.58 2406.22 2526.67Z" fill="#02E2AC"/>
<path d="M2365.75 2500.66C2376.54 2500.26 2413.37 2498.25 2418.26 2497.98C2419.31 2502.57 2421.46 2506.8 2424.52 2510.3C2427.59 2513.8 2431.47 2516.46 2435.83 2518.04L2427.47 2558.14L2425.37 2570.24C2424.63 2572.96 2425.46 2574.51 2428.17 2575.05C2431.69 2575.76 2435.26 2576.23 2438.85 2576.47C2458.02 2577.77 2477.71 2572.39 2494.28 2560.15L2504.83 2572.39C2507.62 2575.62 2512.49 2576.28 2515.88 2573.61C2516.76 2572.92 2517.49 2572.06 2518.03 2571.09C2518.57 2570.11 2518.9 2569.03 2519.02 2567.92C2519.13 2566.81 2519.02 2565.69 2518.69 2564.63C2518.37 2563.57 2517.83 2562.6 2517.11 2561.76L2506.38 2549.31C2511.11 2544.21 2515.22 2538.53 2518.61 2532.43L2532.06 2548.02C2534.85 2551.26 2539.71 2551.91 2543.11 2549.24C2543.99 2548.56 2544.71 2547.7 2545.25 2546.72C2545.79 2545.75 2546.13 2544.67 2546.25 2543.56C2546.36 2542.45 2546.25 2541.33 2545.92 2540.27C2545.59 2539.21 2545.05 2538.24 2544.33 2537.4L2525.7 2515.79C2534.11 2488.51 2528.98 2457.79 2509.53 2434.85C2479.3 2399.21 2424.98 2396.51 2389.76 2428.03L2342.73 2470.11C2341.88 2470.88 2341.31 2471.92 2341.13 2473.07C2340.96 2474.21 2341.19 2475.37 2341.78 2476.35L2360.76 2498.47C2361.38 2499.19 2362.14 2499.76 2363 2500.14C2363.87 2500.52 2364.8 2500.7 2365.75 2500.66ZM2369.31 2483.67L2361.68 2474.69L2400.38 2440.07C2428.81 2414.63 2472.73 2416.73 2497.21 2445.42C2510.65 2461.17 2515.7 2481.48 2512.78 2500.79L2502.59 2488.97C2499.8 2485.73 2494.93 2485.08 2491.54 2487.75C2490.66 2488.43 2489.94 2489.29 2489.4 2490.27C2488.86 2491.25 2488.52 2492.32 2488.4 2493.43C2488.29 2494.54 2488.4 2495.66 2488.73 2496.72C2489.06 2497.78 2489.6 2498.76 2490.31 2499.59L2507.32 2519.32C2503.28 2528.3 2497.41 2536.33 2490.1 2542.86C2476.57 2554.96 2461.28 2560.65 2444.7 2560.29L2452.58 2518.66C2456.76 2517.51 2460.63 2515.38 2463.9 2512.46C2475.59 2501.99 2476.86 2483.98 2466.73 2472.23C2456.6 2460.47 2438.91 2459.43 2427.21 2469.9C2423.9 2472.86 2421.3 2476.57 2419.64 2480.72L2369.31 2483.67ZM2436.48 2499.3C2434.92 2497.49 2433.94 2495.25 2433.64 2492.86C2433.35 2490.47 2433.76 2488.03 2434.82 2485.86C2435.88 2483.68 2437.55 2481.87 2439.62 2480.65C2441.68 2479.42 2444.05 2478.84 2446.42 2478.99C2448.78 2479.12 2451.05 2479.98 2452.92 2481.43C2454.8 2482.89 2456.2 2484.88 2456.95 2487.16C2457.7 2489.44 2457.76 2491.91 2457.13 2494.25C2456.51 2496.59 2455.21 2498.69 2453.42 2500.3C2451.01 2502.45 2447.87 2503.56 2444.7 2503.37C2441.52 2503.18 2438.56 2501.72 2436.48 2499.3Z" fill="#11538C"/>
<path d="M1387.04 916.603C1376.47 915.414 1366.24 911.914 1356.96 906.315C1354.47 904.819 1351.67 904.037 1348.82 904.042C1345.98 904.036 1343.18 904.816 1340.68 906.309C1338.19 907.803 1336.09 909.96 1334.58 912.578C1334.32 913.022 1333.96 913.387 1333.54 913.64C1333.12 913.893 1332.64 914.024 1332.16 914.022V914.022C1331.51 914.026 1330.87 913.79 1330.36 913.352C1329.85 912.915 1329.5 912.302 1329.35 911.615C1327.99 905.032 1324.61 899.148 1319.76 894.933C1314.91 890.719 1308.88 888.424 1302.67 888.429C1301.7 888.427 1300.73 888.483 1299.76 888.597C1298.73 888.718 1297.7 888.904 1296.68 889.153C1296.62 888.969 1296.56 888.781 1296.5 888.597C1293.57 879.813 1288.23 872.22 1281.19 866.854C1274.15 861.487 1265.76 858.607 1257.16 858.606C1254.56 858.613 1251.97 858.879 1249.42 859.401C1242.63 860.795 1236.27 863.99 1230.9 868.7C1225.52 873.41 1221.3 879.49 1218.61 886.399C1218.09 887.722 1217.64 889.09 1217.24 890.503C1214.84 889.144 1212.18 888.435 1209.47 888.438C1208.71 888.439 1207.95 888.495 1207.19 888.607C1213.71 880.036 1217.22 869.229 1217.09 858.11C1216.85 833.112 1198.41 812.501 1175.41 811.543C1169.58 811.298 1163.76 812.333 1158.3 814.587C1152.84 816.84 1147.86 820.267 1143.65 824.66C1139.44 829.054 1136.09 834.325 1133.8 840.158C1131.51 845.991 1130.32 852.265 1130.32 858.606C1130.32 859.47 1130.32 860.329 1130.38 861.177C1120.32 862.846 1110.84 867.331 1102.87 874.191C1094.89 881.05 1088.7 890.047 1084.9 900.295V900.295C1073.44 900.296 1062.28 904.278 1053.06 911.66L1050.11 914.022L996.25 924.008H1453.75L1387.04 916.603Z" fill="#F0F2F5"/>
<path d="M2114.53 913.546C2108.13 913.07 2101.92 911.67 2096.29 909.431C2094.78 908.832 2093.08 908.519 2091.36 908.521C2089.63 908.519 2087.93 908.831 2086.42 909.428C2084.91 910.026 2083.63 910.889 2082.72 911.936C2082.56 912.113 2082.34 912.26 2082.08 912.361C2081.83 912.462 2081.54 912.514 2081.25 912.514V912.514C2080.85 912.515 2080.47 912.421 2080.16 912.246C2079.85 912.071 2079.63 911.826 2079.54 911.551C2078.72 908.918 2076.67 906.564 2073.73 904.878C2070.78 903.192 2067.13 902.274 2063.36 902.276C2062.77 902.275 2062.18 902.298 2061.6 902.344C2060.97 902.392 2060.35 902.466 2059.73 902.566C2059.69 902.492 2059.66 902.417 2059.62 902.344C2057.84 898.83 2054.6 895.793 2050.33 893.646C2046.06 891.5 2040.97 890.348 2035.75 890.347C2034.18 890.35 2032.61 890.456 2031.06 890.665C2026.95 891.223 2023.09 892.501 2019.83 894.385C2016.57 896.269 2014.01 898.701 2012.38 901.464C2012.06 901.994 2011.78 902.541 2011.54 903.106C2010.09 902.562 2008.47 902.279 2006.83 902.28C2006.37 902.28 2005.91 902.303 2005.45 902.348C2009.4 898.919 2011.53 894.596 2011.45 890.149C2011.3 880.149 2000.12 871.905 1986.17 871.522C1982.63 871.424 1979.1 871.838 1975.79 872.739C1972.48 873.641 1969.46 875.011 1966.91 876.769C1964.35 878.526 1962.32 880.635 1960.93 882.968C1959.54 885.301 1958.82 887.811 1958.82 890.347C1958.82 890.693 1958.82 891.036 1958.86 891.376C1952.76 892.043 1947.01 893.837 1942.17 896.581C1937.33 899.325 1933.58 902.923 1931.27 907.023V907.023C1924.32 907.023 1917.55 908.616 1911.96 911.569L1910.17 912.514L1877.5 916.508H2155L2114.53 913.546Z" fill="#F0F2F5"/>
<g style="mix-blend-mode:multiply" opacity="0.5">
<path d="M1815.59 1722.38C1818.97 1707.28 1832.85 1694.63 1837.32 1694.4C1838.73 1694.47 1840.12 1694.91 1841.38 1695.7C1839.72 1694.9 1837.9 1694.76 1836.17 1695.32C1834.31 1696.47 1825.06 1704.02 1821.76 1712.99C1820.47 1717.26 1820.07 1721.86 1820.62 1726.37C1821.16 1730.87 1822.62 1735.14 1824.87 1738.75C1826.53 1740.92 1828.56 1742.63 1830.8 1743.75C1833.04 1744.86 1835.46 1745.37 1837.88 1745.23C1843.25 1745.46 1838.87 1740.55 1840.76 1732.89L1849.46 1734.04L1861.35 1722.54V1723.38C1860.35 1729.59 1851.26 1742.24 1844.52 1746.38C1837.78 1750.52 1825.06 1748.64 1822.79 1747.19C1819.5 1744.66 1817 1740.83 1815.7 1736.33C1814.39 1731.83 1814.35 1726.91 1815.59 1722.38V1722.38Z" fill="#5B412D"/>
</g>
<path d="M1864.14 1704.1C1860.17 1702.83 1852.47 1708.24 1848.28 1714.48C1844.09 1720.73 1839.46 1729.4 1840.7 1736.95C1841.43 1742.13 1843.77 1746.75 1847.22 1749.83C1854.25 1751.66 1861.53 1751.43 1868.49 1749.18C1876.43 1745.77 1887.67 1735.57 1889.87 1727.29C1892.08 1719.01 1871.71 1706.59 1864.14 1704.1Z" fill="#664B35"/>
<g style="mix-blend-mode:screen" opacity="0.3">
<path d="M1887.36 1728.24C1884.39 1734.73 1880.11 1740.15 1874.94 1744C1872.07 1745.42 1868.89 1745.62 1865.91 1744.57C1863.49 1742.81 1862.37 1735.37 1862.37 1728.28C1862.37 1725.06 1862.09 1722.07 1862.09 1722.07C1867.52 1724.32 1872.6 1727.66 1877.15 1731.96C1874.8 1726.95 1872.16 1722.16 1869.26 1717.62C1867.12 1714.41 1865.13 1711.04 1863.3 1707.54C1869.51 1710.25 1875.43 1713.9 1880.9 1718.43C1887.64 1724.67 1888.23 1726.44 1887.36 1728.24Z" fill="#664B35"/>
</g>
<g style="mix-blend-mode:multiply" opacity="0.4">
<path d="M1840.7 1736.91C1839.46 1729.24 1844.12 1720.69 1848.27 1714.45C1850.32 1711.52 1852.73 1709.02 1855.41 1707.05C1851.69 1710.79 1848.77 1715.61 1846.91 1721.08C1844.39 1729.51 1848.4 1740.25 1851.1 1744.08C1853.8 1747.91 1862.46 1747.91 1866.62 1747.72C1870.78 1747.53 1880.09 1741.97 1887.11 1733.27C1882.51 1740.54 1876.29 1745.99 1869.21 1748.93C1862.13 1751.88 1854.5 1752.19 1847.28 1749.83C1843.8 1746.76 1841.43 1742.12 1840.7 1736.91V1736.91Z" fill="#664B35"/>
</g>
<path d="M1824.4 1149.74C1824.4 1149.74 1905.11 1095.42 1987.84 1204.67C2070.57 1313.93 2043.5 1408.23 2008.05 1456.69C2008.05 1456.69 2008.77 1432.5 1996.88 1401.6C1996.88 1401.6 2007.59 1391.59 2010.94 1380.29C2005.94 1383.49 2000.75 1386.21 1995.42 1388.41C1999.89 1381.15 2002.7 1372.53 2003.55 1363.46C1999.73 1368.45 1995.32 1372.72 1990.48 1376.11C1983.66 1349.49 1974.04 1324.1 1961.86 1300.59C1961.86 1300.59 1971.67 1281.42 1972.6 1266.78C1972.6 1266.78 1965.71 1270.07 1959.59 1285.94C1959.59 1285.94 1958.07 1272.18 1948.36 1251.13C1948.36 1251.13 1955.53 1231.97 1960.77 1225.49C1955.73 1228.65 1951.2 1232.93 1947.39 1238.1C1947.39 1238.1 1926.13 1203.41 1892.54 1187.77C1895.34 1181.63 1896.95 1174.76 1897.23 1167.72L1890.15 1178.37C1890.15 1178.37 1867.77 1157.52 1824.4 1149.74Z" fill="#65B204"/>
<path d="M1844.23 1134.29C1844.23 1134.29 1909.67 1069.15 2015 1144.41C2120.34 1219.66 2116.03 1307.03 2093 1356.82C2093 1356.82 2088.08 1335.83 2069.41 1311.93C2069.41 1311.93 2077.45 1300.87 2078.07 1290.37C2073.98 1294.27 2069.59 1297.79 2064.94 1300.9C2067.59 1293.63 2068.3 1285.57 2067.02 1277.56C2064.48 1282.74 2061.21 1287.41 2057.32 1291.43C2044.55 1270.06 2029.36 1250.39 2012.13 1232.91C2012.13 1232.91 2017.17 1214.17 2014.67 1201.35C2014.67 1201.35 2008.77 1205.76 2006.54 1220.82C2006.54 1220.82 2001.88 1209.31 1987.6 1193.4C1987.6 1193.4 1990.09 1175.26 1993.66 1168.49C1989.52 1172.37 1986.12 1177.08 1983.65 1182.4C1983.65 1182.4 1955.04 1157.36 1918.93 1151.53C1920.22 1145.61 1920.18 1139.33 1918.82 1133.2L1914.45 1143.99C1914.45 1143.99 1887.97 1131.13 1844.23 1134.29Z" fill="#65B204"/>
<path d="M1868.39 1115.94C1868.39 1115.94 1874.09 1050.06 1978.58 1085.94C2083.06 1121.83 2126.65 1191.63 2138.85 1235.99C2138.85 1235.99 2124.73 1220.54 2100.62 1205.86C2100.62 1205.86 2099.7 1195.36 2094.53 1186.95C2094.08 1190.93 2093.25 1194.68 2092.04 1198.17C2089.82 1191.84 2085.99 1185.33 2080.97 1179.31C2082.15 1183.95 2082.61 1188.36 2082.35 1192.4C2063.21 1178.4 2043.47 1166.27 2023.64 1156.33C2023.64 1156.33 2016.82 1140.44 2008.5 1130.89C2008.5 1130.89 2007.22 1135.68 2013.81 1148.04C2013.81 1148.04 2004.86 1140.01 1987.68 1130.65C1987.68 1130.65 1979.61 1115.8 1978.22 1109.67C1977.72 1113.64 1978.13 1118.11 1979.43 1122.85C1979.43 1122.85 1948.62 1109.48 1923.37 1112.92C1921.03 1107.96 1917.68 1103.02 1913.6 1098.5L1916.63 1107.97C1916.63 1107.97 1893.56 1103.72 1868.39 1115.94Z" fill="#4EAA3C"/>
<g style="mix-blend-mode:screen">
<path d="M2008.05 1456.69C2043.5 1408.23 2066.35 1316 1986.32 1210.11C1903.68 1100.74 1824.4 1149.74 1824.4 1149.74C1824.4 1149.74 1871.93 1139.81 1896.51 1155.95L1906.76 1150.85L1901.01 1164.57C1901.01 1164.57 1932.96 1180.9 1953.04 1212.18L1974.59 1209.35C1969.09 1214.91 1964.82 1222.1 1962.17 1230.24C1965.55 1238.66 1967.75 1247.74 1968.66 1257.08C1975.77 1252.88 1983.22 1249.64 1990.88 1247.41C1988.16 1262.6 1983.7 1277.24 1977.66 1290.89C1988.18 1308.71 1995.84 1328.85 2000.23 1350.23C2000.23 1350.23 2017.09 1331.06 2021.46 1311.17C2021.46 1311.17 2017.77 1341.64 2009.26 1363.84C2009.26 1363.84 2019.82 1357.86 2028.51 1334.21C2028.51 1334.21 2026.58 1380.21 2011.62 1399.76C2011.81 1399.76 2019.29 1434.45 2008.05 1456.69Z" fill="#237812"/>
</g>
<path d="M1805.18 1160.65C1805.18 1160.65 1750.97 1130.66 1686.65 1198.93C1622.33 1267.2 1584.2 1405.43 1623.92 1472.22C1627.9 1449.32 1633.51 1426.4 1640.68 1403.7C1640.68 1403.7 1635.02 1380.92 1640.27 1358.51C1640.27 1358.51 1641.72 1379.35 1646.32 1387.86C1646.32 1387.86 1654.14 1344.55 1668.61 1309.66C1667.09 1319.07 1666.52 1328.42 1666.92 1337.51C1674.8 1329.66 1681.9 1320.86 1688 1311.36C1688.46 1291.39 1691.91 1270.91 1698.23 1250.74C1696.66 1259.8 1696.04 1268.79 1696.39 1277.55C1696.39 1277.55 1721.44 1238.07 1727.98 1208.75C1727.98 1208.75 1732.05 1211.82 1726.73 1224.96C1726.68 1224.94 1763.32 1174.77 1805.18 1160.65Z" fill="#239F0A"/>
<path d="M1800.52 1145.13C1800.52 1145.13 1825 1109.61 1777.22 1059.44C1729.44 1009.28 1628.79 972 1577.7 994.578C1594.48 999.126 1611.19 1004.8 1627.68 1011.56C1627.68 1011.56 1644.78 1009.36 1661.13 1014.76C1661.13 1014.76 1645.65 1014.17 1639.16 1016.72C1639.16 1016.72 1670.87 1025.52 1696.07 1038.31C1689.17 1036.52 1682.28 1035.41 1675.54 1034.98C1681.01 1041.09 1687.22 1046.72 1693.99 1051.72C1708.75 1053.57 1723.75 1057.56 1738.4 1063.53C1731.77 1061.73 1725.14 1060.61 1718.65 1060.18C1718.65 1060.18 1746.79 1080.71 1768.2 1087.54C1768.2 1087.54 1765.76 1090.14 1756.26 1085.41C1756.28 1085.38 1791.84 1114.82 1800.52 1145.13Z" fill="#237812"/>
<g style="mix-blend-mode:screen">
<path d="M1577.74 994.53C1640.27 973.719 1733.07 1016.52 1775.18 1060.8C1822.92 1110.99 1800.53 1145.12 1800.53 1145.12C1800.53 1145.12 1809.55 1119.6 1785.06 1100.16L1796.83 1097.76C1796.83 1097.76 1767.99 1078.88 1741.28 1070.38C1749.96 1068.84 1759.27 1068.63 1768.86 1069.75C1768.86 1069.75 1716.33 1048.34 1679.08 1021.93C1685.96 1019.3 1693.62 1017.83 1701.76 1017.6C1701.76 1017.6 1663.33 1004.43 1634.2 1006.31C1615.48 998.137 1596 994.072 1577.74 994.53Z" fill="#7AD616"/>
</g>
<path d="M1824.4 1149.74C1824.4 1149.74 1826.11 1054.98 1943.23 1016.95C2061.6 978.613 2145.57 1090.25 2145.57 1090.25L2102.42 1102.78C2095.72 1091.93 2087.26 1082.93 2077.59 1076.33C2080.14 1083.28 2083.39 1089.8 2087.27 1095.73C2064.48 1097.19 2041.63 1096.17 2018.98 1092.7C2018.98 1092.7 2009.42 1075.41 2002.37 1065.17C2002.36 1074.14 2001.98 1083.09 2001.22 1092.01C1996.9 1085.1 1991.55 1079.28 1985.45 1074.87C1985.45 1074.87 1989.61 1085.53 1984.92 1087.52C1983.84 1087.98 1948.91 1083.08 1916.19 1092.35L1904.65 1077.02C1904.92 1083.51 1905.8 1089.94 1907.25 1096.19C1907.25 1096.19 1855.38 1110.75 1824.4 1149.74Z" fill="#237812"/>
<path d="M1824.4 1149.74C1824.41 1147.93 1824.53 1146.13 1824.74 1144.34C1824.92 1142.16 1825.19 1140 1825.55 1137.86C1825.73 1136.59 1825.92 1135.21 1826.2 1133.79C1826.48 1132.38 1826.85 1130.88 1827.19 1129.27C1827.81 1126.01 1828.99 1122.64 1830.02 1118.8C1831.04 1114.97 1832.72 1111.14 1834.3 1106.96C1838.17 1097.71 1842.89 1089.04 1848.36 1081.12L1852.99 1074.45L1858.3 1068.13C1860.13 1066.06 1861.84 1063.68 1863.89 1061.76L1870.09 1055.74C1874.37 1051.56 1878.86 1047.72 1883.54 1044.24L1887.11 1041.41C1888.29 1040.45 1889.59 1039.8 1890.86 1038.95L1898.53 1034.12C1903.77 1030.85 1909.16 1027.96 1914.67 1025.46C1917.47 1024.16 1920.2 1022.58 1923.05 1021.43L1931.72 1018.14C1943.39 1013.34 1955.39 1009.88 1967.57 1007.79C1979.8 1005.81 1992.15 1005.32 2004.45 1006.33C2016.36 1007.32 2028.17 1009.63 2039.75 1013.23C2060.18 1019.71 2079.75 1029.82 2097.83 1043.25C2110.58 1052.61 2122.58 1063.46 2133.65 1075.64C2137.89 1080.21 2141.9 1085.09 2145.67 1090.25C2145.67 1090.25 2141.32 1084.88 2133.03 1076.6C2121.53 1065.23 2109.27 1055.1 2096.37 1046.31C2087.81 1040.43 2078.96 1035.23 2069.86 1030.75C2059.75 1025.8 2049.38 1021.72 2038.82 1018.56C2027.5 1015.2 2015.97 1013.11 2004.36 1012.31C1992.37 1011.47 1980.33 1012.08 1968.44 1014.15C1956.44 1016.04 1944.6 1019.3 1933.08 1023.89L1924.54 1027.03C1921.72 1028.14 1919.05 1029.64 1916.32 1030.86C1910.9 1033.28 1905.59 1036.07 1900.42 1039.22C1895.38 1042.09 1890.46 1045.27 1885.68 1048.77C1881.05 1052 1876.58 1055.57 1872.3 1059.46L1866.09 1065.14C1864.14 1067.02 1862.28 1069.03 1860.5 1071.15L1855.16 1077.13L1850.51 1083.46C1844.99 1091.05 1840.11 1099.31 1835.95 1108.11C1834.24 1111.94 1832.59 1115.78 1831.29 1119.61C1829.99 1123.44 1828.84 1126.59 1828.19 1129.73C1827.4 1132.48 1826.72 1135.29 1826.17 1138.13C1825.61 1140.62 1825.3 1142.76 1825.02 1144.49C1824.74 1146.23 1824.53 1147.98 1824.4 1149.74V1149.74Z" fill="#B5EA00"/>
<path d="M2058.66 1039.22C2093.4 1048.03 2133.76 1077.55 2133.76 1077.55C2106.22 1050.22 2033.27 990.647 1944.58 1019.4C1883.73 1039.1 1853.68 1073.87 1838.81 1102.55C1845.45 1098.11 1853.16 1096.75 1860.54 1098.71C1874.92 1078.31 1885.18 1085.55 1905.14 1074.44L1922.35 1057.24V1041.9L1932.33 1066.9C1952.48 1061.45 1982.94 1066.9 1982.94 1066.9L1986.04 1053.02L1994.39 1063.48L1995.88 1053.4C1995.88 1053.4 2015.92 1025.42 2052.36 1038.41C2053.81 1035.75 2054.79 1032.75 2055.25 1029.6C2055.25 1029.6 2057.79 1036.34 2058.66 1039.22Z" fill="#65B204"/>
<path d="M1824.39 1149.74C1824.39 1149.74 1803.18 1085.22 1701.36 1068.58C1557.6 1045.04 1510.1 1145.25 1510.1 1145.25C1510.1 1145.25 1527.3 1133.94 1568.25 1132.33C1563.78 1137 1559.82 1142.34 1556.45 1148.24C1556.45 1148.24 1576.22 1146.59 1598.89 1147.51C1598.89 1147.51 1621.21 1121.18 1641.66 1117.99C1634.27 1124.24 1628.37 1132.82 1624.56 1142.84C1624.56 1142.84 1646.79 1130.54 1671.65 1129.92C1671.65 1129.92 1662.56 1142.61 1654.89 1146.87C1680.02 1153.45 1705.6 1150.26 1731.29 1151C1731.29 1151 1741.84 1144.52 1752.68 1136.78C1748.97 1142.36 1746.09 1148.71 1744.17 1155.52C1744.17 1155.52 1764.72 1149.01 1794.09 1156.33C1803.79 1151.94 1814.05 1149.7 1824.39 1149.74Z" fill="#65B204"/>
<path d="M1797.4 1135.05C1780.6 1117.26 1738.41 1114.77 1738.41 1114.77C1739.29 1108.47 1717.94 1120.64 1719.99 1114.77C1718.69 1115.46 1700.91 1114.77 1700.91 1114.77C1674.16 1107.37 1679.08 1093.57 1651.71 1095.53C1652.89 1087.67 1642.84 1103.73 1642.84 1103.73C1625.39 1121.75 1636.08 1097.28 1628.77 1106.8C1614.96 1104.43 1601 1103.71 1587.08 1104.65C1589 1099.48 1570.11 1114.77 1570.11 1114.77C1517.33 1125.39 1510.06 1145.13 1510.06 1145.13C1510.06 1145.13 1558.83 1050.14 1700.91 1071.61C1767.41 1081.61 1799.85 1110.56 1814.19 1130.99C1814.13 1130.99 1803.82 1129.49 1797.4 1135.05Z" fill="#237812"/>
<path d="M1834.68 1714.3C1834.68 1714.3 1877.12 1726.61 1901.49 1755.25C1910.08 1720.9 1913.24 1684.84 1910.8 1649.02L1922.04 1646.57C1922.04 1646.57 1932.16 1589.06 1930.2 1543.94L1941.97 1539.42C1941.97 1539.42 1949.76 1476.44 1932.81 1420.89L1942.37 1417.78C1942.37 1417.78 1938.18 1344.52 1901.83 1281.92L1911.98 1274.91C1911.98 1274.91 1889.91 1209.74 1840.58 1167.95C1820.31 1150.78 1812.42 1155.57 1831.79 1193.83C1851.17 1232.09 1864.89 1292.23 1864.89 1292.23L1872.77 1287.98C1872.77 1287.98 1885.19 1381.33 1883.08 1429.32L1891.71 1427.75C1891.71 1427.75 1897.92 1491.65 1880.72 1536.54L1886.74 1538.54C1886.74 1538.54 1883.2 1589.87 1867.46 1632.5L1875.78 1638.59C1875.78 1638.59 1867.84 1676.93 1834.68 1714.3Z" fill="#865537"/>
<g style="mix-blend-mode:screen">
<path d="M1930.19 1421.25L1942.24 1417.78C1942.24 1417.78 1938.05 1344.52 1901.69 1281.92L1911.85 1274.9C1900.11 1243.53 1884.89 1217.21 1864.73 1193.25C1882.25 1218.83 1868.63 1231.83 1877.95 1263.29L1883.09 1286.64C1883.09 1286.64 1897.31 1314.4 1906.01 1407.51L1901.69 1417.78C1912.48 1455.32 1914.35 1482.34 1906.01 1520.83L1909.55 1543.94C1909.55 1543.94 1898.43 1594.92 1883.09 1634.14L1891.18 1645.87C1891.18 1645.87 1877.42 1655.63 1864.73 1684.96C1864.73 1684.96 1910.25 1687.71 1909.55 1691.83C1913.95 1665.24 1913.68 1677.66 1911.85 1650.62L1922.03 1646.56C1922.03 1646.56 1932.15 1589.06 1930.19 1543.94L1941.96 1539.41C1941.96 1539.41 1950.03 1465.2 1930.19 1421.25Z" fill="#865537"/>
</g>
<path d="M1945.11 951.23C1921.06 947.667 1875.51 970.575 1868.1 977.974C1860.69 985.374 1852.02 1003.06 1852.02 1003.06C1851.69 998.266 1852.51 993.227 1854.39 988.393C1843.06 999.607 1832.45 1011.66 1822.67 1024.44L1825.45 1042.57L1815.13 1034.61C1774.32 1104.18 1809.85 1141.47 1809.85 1141.47C1847.93 1005.02 1945.11 951.23 1945.11 951.23Z" fill="#6B9A23"/>
<path d="M1851.87 922.583C1829.34 931.749 1801.77 974.642 1799.16 984.78C1796.54 994.919 1798.07 1014.55 1798.07 1014.55C1795.35 1010.6 1793.49 1005.84 1792.66 1000.72C1788.61 1016.14 1785.6 1031.92 1783.68 1047.89L1795.29 1062.08L1782.35 1060.48C1782.61 1141.14 1832.16 1155.18 1832.16 1155.18C1795.55 1018.32 1851.87 922.583 1851.87 922.583Z" fill="#237812"/>
<path d="M1999.33 984.038C1976.48 976.814 1930.78 991.037 1923.04 996.808C1915.31 1002.58 1905.51 1017.82 1905.51 1017.82C1905.59 1013.26 1906.79 1008.65 1909 1004.41C1897.18 1013.14 1885.99 1022.77 1875.53 1033.22L1876.71 1050.73L1867.43 1041.57C1822.46 1100.48 1853.58 1141.29 1853.58 1141.29C1901.42 1019.01 1999.33 984.038 1999.33 984.038Z" fill="#237812"/>
<path d="M1845.75 1044.33L1836.19 1044.46C1839.07 1039.16 1848.58 1032.35 1848.58 1032.35C1849.39 1011.24 1856.73 981.232 1856.73 981.232C1852.35 980.075 1841.67 983.325 1841.67 983.325C1844.96 978.948 1848.87 975.412 1853.15 972.945C1850.7 951.599 1853.33 929.205 1860.71 908.545C1860.71 908.545 1791.35 1001.64 1809.19 1149.16C1846.92 1110.62 1845.75 1044.33 1845.75 1044.33Z" fill="#65B204"/>
<path d="M1883.38 1146.98C1883.05 1154.7 1880.87 1162.12 1877.12 1168.31C1873.38 1174.5 1868.23 1179.18 1862.32 1181.76C1856.42 1184.33 1850.04 1184.69 1843.97 1182.78C1837.9 1180.87 1832.43 1176.78 1828.25 1171.03C1824.07 1165.28 1821.36 1158.13 1820.47 1150.48C1819.58 1142.82 1820.55 1135.02 1823.26 1128.05C1825.96 1121.08 1830.28 1115.26 1835.67 1111.32C1841.05 1107.38 1847.26 1105.5 1853.51 1105.92C1861.87 1106.5 1869.71 1111.14 1875.31 1118.83C1880.91 1126.53 1883.81 1136.65 1883.38 1146.98Z" fill="#916831"/>
<g style="mix-blend-mode:multiply" opacity="0.5">
<path d="M1853.49 1105.92C1847.24 1105.51 1841.03 1107.4 1835.64 1111.36C1830.26 1115.31 1825.94 1121.15 1823.25 1128.13C1820.55 1135.11 1819.59 1142.93 1820.49 1150.58C1821.39 1158.24 1824.11 1165.39 1828.3 1171.14C1832.5 1176.89 1837.98 1180.97 1844.05 1182.87C1850.12 1184.77 1856.51 1184.4 1862.42 1181.82C1868.32 1179.23 1873.47 1174.54 1877.21 1168.34C1880.96 1162.13 1883.13 1154.7 1883.45 1146.97C1883.67 1141.85 1883.07 1136.72 1881.69 1131.88C1880.3 1127.04 1878.15 1122.58 1875.37 1118.77C1872.59 1114.96 1869.22 1111.86 1865.47 1109.65C1861.72 1107.45 1857.65 1106.18 1853.49 1105.92V1105.92ZM1850.92 1167.02C1849.92 1167.02 1848.93 1166.79 1847.97 1166.6C1847.97 1166.14 1847.97 1165.72 1847.97 1165.26C1848.26 1157.98 1846.39 1150.82 1842.71 1145.12C1839.03 1139.43 1833.79 1135.59 1827.98 1134.32C1828.43 1128.5 1830.26 1122.97 1833.24 1118.42C1836.22 1113.88 1840.22 1110.51 1844.73 1108.74C1849.25 1106.97 1854.08 1106.87 1858.64 1108.47C1863.2 1110.06 1867.27 1113.28 1870.37 1117.71C1873.46 1122.14 1875.43 1127.59 1876.03 1133.4C1876.64 1139.2 1875.85 1145.09 1873.76 1150.34C1871.68 1155.6 1868.39 1159.98 1864.31 1162.94C1860.22 1165.91 1855.52 1167.33 1850.79 1167.02H1850.92Z" fill="#A5743A"/>
</g>
<path d="M1945.13 951.24C1945.13 951.24 1852.57 1011 1800.19 1145.81C1800.19 1145.81 1812.15 1135.7 1820.9 1136.04C1831.92 1118.35 1842.03 1100.17 1851.16 1081.64L1843.03 1078.37C1843.03 1078.37 1842.85 1076.64 1854.58 1074.65C1854.58 1074.65 1881.56 1025.47 1893.78 1013.03L1890.59 1009.92C1890.59 1009.92 1897.03 1009.76 1903.97 1008.77C1903.87 1008.92 1909.41 982.159 1945.13 951.24Z" fill="#8CD618"/>
<path d="M1966.1 1025.09C1966.1 1025.09 1889.05 1026.04 1834.67 1102.97C1834.67 1102.97 1844.88 1101.04 1851.53 1105.48C1861.83 1097.37 1871.49 1088.45 1880.44 1078.8L1874.58 1072.44C1874.58 1072.44 1874.62 1071.04 1883.8 1075.15C1883.8 1075.15 1909.64 1050.84 1920.3 1047.27L1918.2 1043.4C1918.2 1043.4 1923.13 1046.35 1928.54 1048.93C1928.45 1048.99 1935.53 1031.4 1966.1 1025.09Z" fill="#8CD618"/>
<path d="M1791 973.579C1791 973.579 1765.73 1056.06 1820.4 1149.91C1820.4 1149.91 1813.92 1135.01 1820.4 1130C1816.19 1115.25 1819.1 1103.92 1812.96 1089.88L1804.93 1093.15C1804.93 1093.15 1803.61 1092.45 1810.64 1084.6C1810.64 1084.6 1796.31 1045.73 1796.53 1032.71L1792.14 1033.14C1792.14 1033.14 1796.62 1029.27 1800.9 1024.71C1800.93 1024.84 1786.61 1009.08 1791 973.579Z" fill="#6C9A23"/>
<path d="M1754.31 1096.19C1754.31 1096.19 1803.24 1091.81 1820.36 1142.52C1820.36 1142.52 1816.62 1135.94 1811.37 1139.51C1806.65 1134.46 1800.19 1134.69 1796.69 1128.47L1801.87 1123.6C1801.87 1123.6 1802.17 1122.61 1795.38 1126.11C1795.38 1126.11 1784.44 1110.66 1778.46 1108.84L1780.68 1105.97C1780.68 1105.97 1776.87 1108.37 1772.83 1110.55C1772.87 1110.59 1772.37 1098.64 1754.31 1096.19Z" fill="#6C9A23"/>
<path d="M1837.8 1173.46C1837.54 1179.68 1835.79 1185.67 1832.77 1190.66C1829.76 1195.65 1825.61 1199.43 1820.86 1201.51C1816.11 1203.59 1810.96 1203.89 1806.07 1202.35C1801.18 1200.82 1796.77 1197.53 1793.4 1192.91C1790.03 1188.28 1787.84 1182.52 1787.12 1176.35C1786.4 1170.19 1787.17 1163.9 1789.35 1158.28C1791.52 1152.66 1794.99 1147.96 1799.33 1144.79C1803.67 1141.61 1808.67 1140.09 1813.71 1140.42C1817.05 1140.63 1820.32 1141.65 1823.34 1143.43C1826.36 1145.21 1829.07 1147.7 1831.3 1150.77C1833.54 1153.84 1835.27 1157.42 1836.38 1161.32C1837.49 1165.21 1837.98 1169.34 1837.8 1173.46V1173.46Z" fill="#A5743A"/>
<path d="M1864.71 1185.17C1864.54 1188.43 1863.38 1191.56 1861.38 1194.17C1859.38 1196.79 1856.63 1198.77 1853.48 1199.86C1850.33 1200.95 1846.92 1201.1 1843.67 1200.3C1840.43 1199.5 1837.51 1197.77 1835.27 1195.35C1833.04 1192.93 1831.59 1189.91 1831.11 1186.68C1830.63 1183.45 1831.14 1180.16 1832.58 1177.22C1834.03 1174.27 1836.33 1171.81 1839.2 1170.15C1842.08 1168.48 1845.4 1167.69 1848.74 1167.86C1850.95 1167.97 1853.12 1168.51 1855.12 1169.44C1857.12 1170.37 1858.92 1171.68 1860.4 1173.28C1861.89 1174.89 1863.03 1176.77 1863.77 1178.81C1864.51 1180.85 1864.83 1183.01 1864.71 1185.17V1185.17Z" fill="#A5743A"/>
<path d="M1811.83 1175.47C1811.64 1181.3 1822.82 1184.27 1820.6 1188.95C1818.38 1193.63 1815.33 1197.17 1811.83 1199.12C1808.34 1201.06 1804.55 1201.33 1800.96 1199.89C1797.37 1198.44 1794.13 1195.35 1791.65 1191.01C1789.18 1186.66 1787.57 1181.25 1787.05 1175.47C1786.52 1169.68 1787.09 1163.78 1788.69 1158.51C1790.3 1153.24 1792.85 1148.84 1796.04 1145.86C1799.23 1142.89 1802.91 1141.47 1806.61 1141.79C1811.57 1142.22 1803.3 1152.7 1806.61 1158.51C1809.93 1164.33 1812.09 1167.66 1811.83 1175.47Z" fill="#774C1E"/>
<path d="M1851.01 1185.96C1850.92 1189.48 1855.85 1191.27 1854.87 1194.09C1853.89 1196.91 1852.55 1199.04 1851.01 1200.21C1849.47 1201.39 1847.8 1201.55 1846.22 1200.68C1844.63 1199.81 1843.21 1197.95 1842.11 1195.33C1841.02 1192.71 1840.32 1189.45 1840.08 1185.96C1839.85 1182.48 1840.1 1178.92 1840.81 1175.75C1841.52 1172.57 1842.64 1169.92 1844.05 1168.12C1845.46 1166.33 1847.08 1165.48 1848.71 1165.67C1850.89 1165.93 1847.25 1172.24 1848.71 1175.75C1850.17 1179.25 1851.12 1181.26 1851.01 1185.96Z" fill="#774C1E"/>
<path d="M1644.82 1711.06C1642.07 1711.67 1560.36 1729.53 1598.54 1753.59C1636.71 1777.66 1766.43 1785.37 1830.14 1786.48C1878.11 1787.32 2040.69 1772.92 2034.02 1734.83C2027.34 1696.74 1776.71 1682.09 1644.82 1711.06Z" fill="#17C1EA"/>
<g style="mix-blend-mode:screen">
<path d="M1831.38 1786.51C1831.53 1786.27 1831.66 1786.01 1831.78 1785.74C1832.95 1782.94 1827.91 1781.9 1826.58 1781.48C1819.69 1779.41 1812.48 1779.38 1805.46 1779.2C1798.12 1779.01 1607.79 1768.57 1600.61 1742.22C1599.45 1737.99 1598.24 1733.77 1599.77 1729.77C1600.33 1728.29 1601.07 1726.93 1601.98 1725.73C1588.55 1733.05 1581.24 1742.68 1598.54 1753.59C1636.73 1777.66 1766.44 1785.36 1830.14 1786.47L1831.38 1786.51Z" fill="#17C1EA"/>
</g>
<g style="mix-blend-mode:multiply">
<path d="M2034.01 1734.83C2027.41 1696.71 1776.67 1682.11 1644.82 1711.06C1644 1711.24 1636.72 1712.84 1627.64 1715.57C1628.03 1715.57 1628.41 1715.65 1628.78 1715.72C1631.2 1716.12 1633.94 1717.38 1634.22 1720.69C1634.26 1723.88 1633.6 1727.03 1632.31 1729.81C1631.52 1731.9 1630.74 1734.13 1631.45 1736.44C1632.4 1739.05 1633.88 1741.33 1635.75 1743.07C1642.52 1749.91 1651.61 1752.67 1660.13 1754.5C1670.63 1756.79 1681.31 1758 1691.94 1759.03C1703.85 1760.17 1715.78 1760.92 1727.72 1761.35C1751.61 1762.25 1775.51 1762.23 1799.4 1761.68C1805.33 1761.53 1811.28 1761.42 1817.21 1761.45C1821.63 1761.45 1826.13 1761.28 1830.54 1761.45C1832.65 1761.57 1836.16 1761.85 1837.05 1764.76C1838.17 1768.41 1834.52 1769.85 1834.01 1773.05C1833.45 1776.7 1837.14 1779 1839.52 1780.06C1842.59 1781.35 1845.78 1782.2 1849.01 1782.6C1854.78 1783.44 1860.54 1783.49 1866.34 1783.78C1870.47 1783.98 1874.72 1784.19 1878.89 1784.34C1944.78 1779.3 2039.09 1764.02 2034.01 1734.83Z" fill="#17C1EA"/>
</g>
<path d="M1693.44 1700.65C1691.06 1701.16 1622.02 1716.01 1654.1 1738.42C1686.18 1760.83 1857.43 1755.78 1857.43 1755.78C1857.43 1755.78 1825.14 1765.34 1857.24 1771.8C1889.33 1778.27 2021.55 1765.31 2016.21 1730.68C2010.87 1696.06 1804.98 1676.55 1693.44 1700.65Z" fill="#F9CA67"/>
<g style="mix-blend-mode:multiply" opacity="0.4">
<path d="M1694.62 1725.92C1696.68 1726.04 1698.57 1726.11 1700.12 1726.24C1717.03 1727.68 1733.85 1727.02 1750.78 1727.47C1772.91 1728.05 1795.09 1729.12 1817.22 1727.58C1835.01 1726.39 1853.07 1726.31 1870.79 1724.27C1875.67 1723.7 1890.14 1719.1 1893.39 1725.92C1895.98 1731.33 1886.76 1736.47 1888.33 1742.5C1889.15 1745.68 1895.66 1745.81 1897.89 1746.21C1905.72 1747.29 1913.95 1746.48 1921.77 1745.52C1933.99 1744.04 1948.56 1742.91 1957.93 1732.06C1966.84 1721.73 1943.59 1721.12 1939.53 1720.45C1934.55 1719.58 1929.13 1718.35 1925.39 1713.96C1925.37 1713.94 1925.36 1713.92 1925.35 1713.9C1925.34 1713.88 1925.34 1713.86 1925.34 1713.83C1925.34 1713.81 1925.34 1713.79 1925.35 1713.77C1925.36 1713.74 1925.37 1713.72 1925.39 1713.71C1926.25 1713.03 1927.17 1712.47 1928.14 1712.05C1930.37 1711.06 1932.68 1710.39 1934.95 1709.5C1937.21 1708.88 1939.32 1707.61 1941.09 1705.8C1941.69 1705.02 1942.09 1704.05 1942.25 1703.01C1942.41 1701.96 1942.31 1700.88 1941.97 1699.9C1870.53 1687.72 1763.42 1685.66 1693.45 1700.8C1692.73 1700.95 1685.97 1702.45 1677.77 1704.96C1676.58 1706.18 1675.55 1707.63 1674.73 1709.23C1674.22 1710.09 1673.85 1711.07 1673.66 1712.1C1673.47 1713.14 1673.45 1714.21 1673.62 1715.25C1675.8 1724.23 1686.52 1725.48 1694.62 1725.92Z" fill="#F9CA67"/>
</g>
<g style="mix-blend-mode:screen" opacity="0.5">
<path d="M2016.21 1730.68C2014.03 1716.59 1978.68 1705 1929.99 1697.84C1939.77 1700.58 1949.42 1703.96 1958.89 1707.95C1964.94 1710.43 1970.77 1713.61 1976.3 1717.45C1979 1719.29 1981.54 1721.44 1983.91 1723.85C1996.4 1737.11 1977.25 1747.29 1968.17 1750.37C1953.03 1755.57 1937.6 1758.28 1922 1760.43C1907.64 1762.39 1892.31 1764.69 1877.86 1762.92C1874.49 1762.5 1870.73 1761.86 1867.83 1759.6C1866.75 1758.8 1865.89 1757.65 1865.34 1756.29C1864.99 1755.34 1864.86 1754.3 1864.94 1753.27C1865.02 1752.25 1865.31 1751.26 1865.79 1750.4C1867.07 1747.96 1868.73 1745.83 1870.68 1744.14L1871.7 1743.23C1852.81 1744.29 1833.91 1744.55 1815.01 1744.27C1785.23 1743.81 1755.41 1742.35 1725.71 1739.6C1713.51 1738.58 1701.38 1736.62 1689.39 1733.75C1682.25 1731.95 1666.74 1728.28 1665.27 1717.4C1664.76 1713.69 1666.37 1710.46 1668.49 1707.95C1651.44 1714.6 1635.16 1725.18 1654.08 1738.44C1686.16 1760.86 1857.41 1755.79 1857.41 1755.79C1857.41 1755.79 1825.13 1765.35 1857.22 1771.82C1889.31 1778.28 2021.52 1765.3 2016.21 1730.68Z" fill="#F9CA67"/>
</g>
<path d="M1630.13 1656.9C1633.15 1656.27 1637.31 1655.25 1641.19 1653.79C1641.78 1653.58 1642.28 1653.2 1642.67 1652.7C1643.05 1652.21 1643.3 1651.6 1643.38 1650.95L1643.85 1647.41L1642.91 1629.49C1638.51 1631.91 1635.6 1633.52 1635.55 1633.6C1635.39 1633.83 1630.18 1646.71 1627.42 1653.55C1627.27 1653.93 1627.23 1654.37 1627.3 1654.8C1627.38 1655.24 1627.57 1655.65 1627.85 1656C1628.14 1656.35 1628.5 1656.62 1628.9 1656.78C1629.31 1656.94 1629.73 1656.98 1630.13 1656.9Z" fill="#E1E6EB"/>
<path d="M1643.87 1647.41L1646.8 1651.53C1647.15 1652.01 1647.63 1652.37 1648.17 1652.54C1648.71 1652.71 1649.27 1652.68 1649.75 1652.46C1653.33 1650.79 1661.91 1646.95 1669.46 1644.73C1670.02 1644.56 1670.48 1644.17 1670.73 1643.64C1670.98 1643.1 1671.02 1642.46 1670.82 1641.84L1670.03 1639.33L1718.32 1615.83L1720.17 1617.88C1720.69 1618.45 1721.35 1618.86 1722.06 1619.03C1722.77 1619.21 1723.49 1619.15 1724.11 1618.87C1728.64 1616.79 1739.23 1612.02 1745.3 1609.84C1745.72 1609.69 1746.09 1609.45 1746.39 1609.13C1746.7 1608.82 1746.93 1608.44 1747.08 1608.01C1747.23 1607.58 1747.29 1607.11 1747.26 1606.63C1747.22 1606.16 1747.1 1605.69 1746.89 1605.24V1605.24L1744.31 1585.68L1732.11 1589.92L1703.9 1595.14L1686.22 1605.88C1686.22 1605.88 1673.63 1612.72 1661 1619.61C1654.39 1623.22 1647.77 1626.84 1642.94 1629.49C1638.54 1631.91 1635.63 1633.52 1635.58 1633.6C1635.35 1633.91 1643.87 1647.41 1643.87 1647.41Z" fill="#6F3FF5"/>
<path d="M1670 1639.34L1673.11 1641.42C1673.83 1641.9 1674.63 1642.18 1675.43 1642.24C1676.24 1642.29 1677.02 1642.12 1677.7 1641.74C1684.37 1637.97 1704.41 1626.82 1716.04 1622.1C1716.86 1621.77 1717.53 1621.16 1717.97 1620.38C1718.41 1619.59 1718.59 1618.65 1718.49 1617.69L1718.3 1615.83L1706.93 1596.08L1686.2 1605.88C1686.2 1605.88 1672.42 1609.88 1659.79 1616.76L1659.86 1617.21L1670 1639.34Z" fill="#E1E6EB"/>
<path d="M1667.17 1570.55L1671.08 1568.7L1737.57 1698.56L1733.66 1700.41L1667.17 1570.55Z" fill="#6F3FF5"/>
<path d="M1729.7 1585.85C1732.81 1589.63 1746.86 1605.24 1746.86 1605.24L1748.97 1605.44C1749.91 1605.53 1750.83 1605.4 1751.66 1605.05C1752.5 1604.7 1753.22 1604.15 1753.79 1603.44C1755.61 1601.14 1759.07 1597.34 1764.77 1593.11C1765.04 1592.91 1765.24 1592.62 1765.34 1592.28C1765.45 1591.94 1765.44 1591.57 1765.34 1591.21C1765.24 1590.85 1765.04 1590.51 1764.76 1590.25C1764.49 1589.99 1764.15 1589.81 1763.8 1589.74L1744.28 1585.68L1729.7 1585.85Z" fill="#E1E6EB"/>
<path d="M1620.95 1643.59C1625.72 1638.62 1633.78 1632.5 1644.17 1625.9C1655.68 1618.6 1670.07 1610.71 1686.04 1603.15C1702.02 1595.6 1717.3 1589.47 1730.35 1585.16C1741.98 1581.32 1751.83 1578.94 1758.83 1578.3L1758.84 1578.3C1759.23 1578.26 1759.6 1578.23 1759.97 1578.21C1760.01 1578.2 1760.04 1578.2 1760.07 1578.2L1760.11 1578.19L1666.06 1563.66L1620.95 1643.59Z" fill="white"/>
<path d="M1636.15 1626.78L1638.81 1631.44L1643.32 1639.93C1643.57 1640.39 1643.89 1640.8 1644.29 1641.13C1644.68 1641.47 1645.12 1641.72 1645.6 1641.88C1646.07 1642.04 1646.55 1642.09 1647.03 1642.04C1647.5 1641.99 1647.94 1641.84 1648.33 1641.59C1653.72 1638.18 1661.66 1633.63 1665.41 1631.5C1666.02 1631.16 1666.49 1630.6 1666.75 1629.92C1667.01 1629.24 1667.05 1628.47 1666.85 1627.72L1663.99 1616.39L1706.94 1596.09L1715.23 1603.74C1716.02 1604.46 1716.96 1604.96 1717.95 1605.18C1718.94 1605.39 1719.94 1605.32 1720.83 1604.96C1726.81 1602.57 1730.72 1601.05 1735.2 1599.59C1735.92 1599.35 1736.56 1598.95 1737.08 1598.4C1737.6 1597.86 1737.98 1597.19 1738.21 1596.44C1738.43 1595.69 1738.49 1594.88 1738.37 1594.07C1738.26 1593.26 1737.97 1592.46 1737.54 1591.74L1734.43 1586.52C1734.43 1586.52 1726.02 1580.83 1725.12 1580.68C1724.95 1580.65 1723.43 1581.16 1721.01 1582.03C1719.51 1582.57 1717.67 1583.25 1715.59 1584.03C1711 1585.74 1705.26 1587.94 1699.47 1590.16C1686.42 1595.18 1673.17 1600.4 1672.6 1600.77C1672.2 1601.03 1668.87 1602.76 1664.81 1604.85C1661.58 1606.52 1657.87 1608.4 1654.8 1609.97C1651.85 1611.48 1649.49 1612.68 1648.7 1613.07L1648.41 1613.22L1636.15 1626.78Z" fill="white"/>
<path d="M1663.99 1616.38L1668.98 1625.19C1669.21 1625.61 1669.52 1625.98 1669.89 1626.29C1670.25 1626.6 1670.66 1626.84 1671.09 1626.99C1671.53 1627.14 1671.98 1627.2 1672.42 1627.17C1672.86 1627.14 1673.28 1627.02 1673.65 1626.82C1680.1 1623.32 1684.65 1620.96 1693.13 1616.95C1699.54 1613.92 1704.85 1611.39 1710.61 1608.94C1711.04 1608.76 1711.42 1608.48 1711.72 1608.12C1712.01 1607.76 1712.23 1607.33 1712.34 1606.86C1712.46 1606.39 1712.47 1605.88 1712.39 1605.38C1712.3 1604.88 1712.11 1604.39 1711.84 1603.95L1706.94 1596.07L1699.47 1590.15L1666.08 1563.65L1663.99 1616.38Z" fill="#6F3FF5"/>
<path d="M1620.98 1643.58L1624.13 1652.36C1624.33 1652.93 1624.65 1653.45 1625.07 1653.88C1625.49 1654.31 1625.99 1654.64 1626.53 1654.85C1627.07 1655.05 1627.64 1655.13 1628.18 1655.06C1628.73 1654.99 1629.23 1654.79 1629.66 1654.46C1632.54 1652.28 1636.19 1649.92 1639.7 1647.49C1640.28 1647.09 1640.73 1646.51 1640.98 1645.82C1641.24 1645.13 1641.3 1644.36 1641.15 1643.6L1638.82 1631.44L1666.08 1563.66L1620.98 1643.58Z" fill="#6F3FF5"/>
<path d="M1666.06 1563.66L1720.99 1582.02L1730.35 1585.15L1734.41 1586.52L1744.74 1594.13C1745.65 1594.8 1746.67 1595.26 1747.73 1595.48C1748.78 1595.7 1749.85 1595.68 1750.84 1595.41C1754.61 1594.38 1759.95 1592.91 1763.77 1591.85C1764.32 1591.7 1764.81 1591.42 1765.2 1591.02C1765.6 1590.62 1765.89 1590.11 1766.06 1589.55C1766.22 1588.98 1766.25 1588.37 1766.14 1587.76C1766.03 1587.15 1765.79 1586.56 1765.44 1586.04L1760.12 1578.2L1666.06 1563.66Z" fill="#6F3FF5"/>
<path d="M1734.4 1586.52L1737.63 1585.51L1740.85 1584.49L1747.29 1582.43L1753.71 1580.34L1756.91 1579.28L1760.11 1578.2L1756.89 1579.21L1753.67 1580.23L1747.23 1582.29L1740.81 1584.39L1737.61 1585.45L1734.4 1586.52Z" fill="#1B1A2E"/>
<path d="M1706.95 1596.08L1710.4 1594.92L1713.84 1593.74L1720.72 1591.37L1727.58 1588.96L1731.01 1587.74L1734.43 1586.52L1730.98 1587.68L1727.54 1588.85L1720.66 1591.23L1713.8 1593.64L1710.37 1594.85L1706.95 1596.08Z" fill="#1B1A2E"/>
<path d="M1663.98 1616.39L1666.68 1615.15L1669.37 1613.89L1672.06 1612.63C1672.96 1612.22 1673.84 1611.78 1674.74 1611.36L1680.1 1608.8C1680.98 1608.37 1681.88 1607.95 1682.78 1607.53L1685.47 1606.27C1689.06 1604.6 1692.64 1602.92 1696.22 1601.23C1698.01 1600.38 1699.8 1599.52 1701.58 1598.67C1703.36 1597.81 1705.15 1596.96 1706.93 1596.09L1706.92 1596.07C1705.12 1596.9 1703.33 1597.73 1701.53 1598.57C1699.74 1599.41 1697.94 1600.24 1696.15 1601.09C1692.57 1602.78 1689 1604.48 1685.43 1606.2L1682.75 1607.48C1681.86 1607.9 1680.97 1608.33 1680.07 1608.75L1674.69 1611.26C1673.8 1611.68 1672.89 1612.09 1672 1612.52L1669.33 1613.8L1666.65 1615.08L1663.98 1616.38L1663.98 1616.39Z" fill="#1B1A2E"/>
<path d="M1638.79 1631.44L1641.96 1629.59L1645.11 1627.72L1651.42 1623.97L1657.71 1620.2L1660.84 1618.3L1663.97 1616.38L1660.81 1618.23L1657.65 1620.1L1651.34 1623.85L1645.06 1627.63L1641.92 1629.53L1638.79 1631.44Z" fill="#1B1A2E"/>
<path d="M1620.95 1643.58L1623.2 1642.09L1625.45 1640.59L1629.91 1637.57L1634.37 1634.52L1636.58 1632.98L1638.79 1631.43L1636.54 1632.92L1634.3 1634.42L1629.83 1637.45L1625.38 1640.49L1623.16 1642.03L1620.95 1643.58Z" fill="#1B1A2E"/>
<path d="M221.346 1453.48C219.454 1449.47 217.231 1445.61 214.698 1441.94C214.065 1441.04 213.432 1440.17 212.798 1439.3C205.124 1429.05 195.149 1420.57 183.605 1414.48C172.061 1408.4 159.242 1404.87 146.086 1404.14C144.984 1404.08 143.87 1404.04 142.756 1404.02C138.159 1403.94 133.562 1404.21 129.009 1404.82C124.812 1405.39 120.663 1406.24 116.592 1407.37C112.521 1408.51 108.54 1409.93 104.682 1411.61C100.491 1413.42 96.4577 1415.55 92.6201 1417.98C91.6956 1418.58 90.7712 1419.19 89.8721 1419.8C79.16 1427.14 70.3016 1436.69 63.9468 1447.75C57.5921 1458.8 53.902 1471.07 53.1474 1483.67C53.0777 1484.73 53.0398 1485.8 53.0144 1486.86C52.9306 1491.26 53.2121 1495.66 53.8565 1500.02C54.4424 1504.04 55.329 1508.01 56.5096 1511.91C57.704 1515.8 59.1851 1519.61 60.9418 1523.31C62.834 1527.31 65.0551 1531.16 67.584 1534.83C68.2172 1535.72 68.8504 1536.59 69.4836 1537.46C77.1594 1547.71 87.1346 1556.19 98.678 1562.28C110.221 1568.36 123.041 1571.9 136.196 1572.62C137.304 1572.69 138.418 1572.72 139.533 1572.74C144.13 1572.83 148.727 1572.56 153.279 1571.94C161.682 1570.81 169.874 1568.54 177.606 1565.19C181.786 1563.37 185.809 1561.24 189.636 1558.82C190.567 1558.21 191.485 1557.6 192.385 1557C203.097 1549.65 211.955 1540.1 218.31 1529.04C224.665 1517.99 228.355 1505.72 229.109 1493.12C229.173 1492.05 229.217 1490.99 229.236 1489.93C229.319 1485.53 229.039 1481.13 228.4 1476.78C227.22 1468.73 224.842 1460.89 221.34 1453.48H221.346ZM189.466 1500.98C189.136 1502.15 188.756 1503.31 188.326 1504.45C186.514 1509.32 183.895 1513.87 180.569 1517.94C179.797 1518.91 178.98 1519.84 178.119 1520.73C174.828 1524.2 171.017 1527.18 166.81 1529.58C159.439 1533.79 151.066 1536.11 142.49 1536.34C137.596 1536.47 132.709 1535.9 127.99 1534.65C126.768 1534.34 125.552 1533.97 124.355 1533.56C119.273 1531.82 114.516 1529.31 110.267 1526.13C109.266 1525.39 108.298 1524.6 107.361 1523.78C100.549 1517.85 95.5838 1510.22 93.0139 1501.75C90.4439 1493.28 90.369 1484.3 92.7974 1475.79C93.1308 1474.62 93.5128 1473.46 93.9434 1472.31C95.7701 1467.45 98.4019 1462.89 101.738 1458.83C102.517 1457.87 103.34 1456.93 104.195 1456.04C110.401 1449.52 118.365 1444.77 127.211 1442.31C136.057 1439.85 145.44 1439.78 154.324 1442.11C155.552 1442.43 156.762 1442.8 157.952 1443.22C163.038 1444.94 167.797 1447.45 172.047 1450.64C173.047 1451.38 174.016 1452.17 174.953 1452.98C181.772 1458.91 186.743 1466.54 189.313 1475.01C191.884 1483.48 191.954 1492.47 189.516 1500.98H189.466Z" fill="#F26E91"/>
<path d="M129.024 1404.84L139.788 1440.43C131.217 1440.65 122.848 1442.98 115.487 1447.19L104.723 1411.59C108.581 1409.9 112.561 1408.48 116.633 1407.35C120.696 1406.23 124.837 1405.39 129.024 1404.84V1404.84Z" fill="white"/>
<path d="M166.815 1529.58L177.579 1565.17C169.847 1568.52 161.656 1570.8 153.252 1571.93L142.488 1536.34C151.065 1536.11 159.438 1533.79 166.809 1529.58H166.815Z" fill="white"/>
<path d="M93.0418 1501.75C94.2237 1505.68 95.926 1509.44 98.1072 1512.96L60.933 1523.26C59.1763 1519.57 57.6951 1515.76 56.5007 1511.86C55.3202 1507.97 54.4335 1503.99 53.8477 1499.98L91.0219 1489.67C91.1501 1493.76 91.8289 1497.82 93.0418 1501.75V1501.75Z" fill="white"/>
<path d="M225.751 1464.89C226.931 1468.78 227.82 1472.76 228.41 1476.78L191.236 1487.08C190.993 1478.87 188.563 1470.85 184.176 1463.79L221.35 1453.48C223.099 1457.18 224.569 1460.99 225.751 1464.89V1464.89Z" fill="white"/>
<g style="mix-blend-mode:multiply" opacity="0.4">
<g style="mix-blend-mode:multiply">
<path d="M219.303 1453.51C217.415 1449.5 215.191 1445.65 212.654 1441.99C212.021 1441.1 211.388 1440.22 210.755 1439.36C203.088 1429.11 193.121 1420.63 181.585 1414.56C170.05 1408.48 157.239 1404.95 144.093 1404.23C142.985 1404.16 141.871 1404.12 140.763 1404.11C136.167 1404.02 131.572 1404.29 127.022 1404.91C118.626 1406.04 110.44 1408.32 102.714 1411.66C98.5317 1413.47 94.5084 1415.6 90.684 1418.02C89.7595 1418.63 88.8351 1419.24 87.9423 1419.84C77.2386 1427.19 68.3879 1436.73 62.0396 1447.78C55.6913 1458.82 52.0065 1471.09 51.2557 1483.67C51.186 1484.73 51.148 1485.81 51.1353 1486.87C51.0402 1491.27 51.3198 1495.67 51.9712 1500.02C53.1392 1508.06 55.5127 1515.9 59.0185 1523.29C60.9069 1527.29 63.1258 1531.14 65.6542 1534.81C66.2874 1535.69 66.9206 1536.57 67.5538 1537.45C75.2264 1547.69 85.1967 1556.16 96.7337 1562.24C108.271 1568.32 121.082 1571.84 134.228 1572.56C135.336 1572.64 136.451 1572.67 137.559 1572.69C142.154 1572.78 146.749 1572.51 151.299 1571.89C155.492 1571.33 159.638 1570.48 163.703 1569.35C167.771 1568.22 171.749 1566.81 175.607 1565.14C179.79 1563.33 183.813 1561.2 187.637 1558.77C188.562 1558.17 189.486 1557.56 190.379 1556.95C201.082 1549.61 209.932 1540.06 216.282 1529.02C222.631 1517.97 226.318 1505.71 227.072 1493.12C227.129 1492.04 227.18 1490.98 227.198 1489.92C227.282 1485.53 227.001 1481.13 226.356 1476.78C225.181 1468.74 222.806 1460.9 219.303 1453.51V1453.51ZM222.215 1486.24C222.433 1494.02 221.449 1501.78 219.296 1509.28C218.748 1511.22 218.114 1513.14 217.397 1515.04C214.394 1523.11 210.052 1530.67 204.537 1537.41C203.27 1539.03 201.915 1540.57 200.472 1542.04C190.187 1552.86 176.978 1560.74 162.305 1564.81C147.632 1568.89 132.069 1569 117.335 1565.13C115.3 1564.61 113.293 1564 111.313 1563.31C102.884 1560.44 94.9939 1556.28 87.9486 1551C86.2834 1549.79 84.6751 1548.47 83.1238 1547.11C71.8218 1537.27 63.5952 1524.62 59.3604 1510.57C55.0819 1496.53 54.9592 1481.62 59.0058 1467.52C59.5546 1465.57 60.1878 1463.65 60.9054 1461.76C63.9082 1453.69 68.2483 1446.14 73.759 1439.39C75.0507 1437.8 76.4078 1436.25 77.8304 1434.76C88.1183 1423.95 101.328 1416.07 115.999 1412C130.671 1407.92 146.233 1407.81 160.967 1411.67C163 1412.2 165.007 1412.8 166.989 1413.49C175.418 1416.36 183.308 1420.52 190.353 1425.8C192.021 1427.03 193.629 1428.33 195.178 1429.69C203.425 1436.9 210.07 1445.62 214.716 1455.34C219.361 1465.06 221.912 1475.58 222.215 1486.27V1486.24Z" fill="#A65B3C"/>
</g>
</g>
<path d="M2989.6 1567.73C2987.7 1563.72 2985.48 1559.86 2982.95 1556.19C2982.31 1555.29 2981.68 1554.42 2981.05 1553.55C2973.37 1543.3 2963.4 1534.82 2951.85 1528.73C2940.31 1522.65 2927.49 1519.12 2914.34 1518.39C2913.23 1518.33 2912.12 1518.29 2911.01 1518.27C2906.41 1518.19 2901.81 1518.46 2897.26 1519.07C2893.06 1519.64 2888.91 1520.49 2884.84 1521.62C2880.77 1522.76 2876.79 1524.18 2872.93 1525.86C2868.74 1527.67 2864.71 1529.8 2860.87 1532.23C2859.95 1532.83 2859.02 1533.44 2858.12 1534.05C2847.41 1541.39 2838.55 1550.94 2832.2 1562C2825.84 1573.05 2822.15 1585.32 2821.4 1597.92C2821.33 1598.98 2821.29 1600.05 2821.26 1601.11C2821.18 1605.51 2821.46 1609.91 2822.11 1614.27C2822.69 1618.29 2823.58 1622.26 2824.76 1626.16C2825.95 1630.05 2827.44 1633.86 2829.19 1637.56C2831.08 1641.56 2833.31 1645.41 2835.83 1649.08C2836.47 1649.97 2837.1 1650.84 2837.73 1651.71C2845.41 1661.96 2855.38 1670.44 2866.93 1676.53C2878.47 1682.61 2891.29 1686.15 2904.45 1686.87C2905.55 1686.94 2906.67 1686.97 2907.78 1686.99C2912.38 1687.08 2916.98 1686.81 2921.53 1686.19C2929.93 1685.06 2938.12 1682.79 2945.86 1679.44C2950.04 1677.62 2954.06 1675.49 2957.89 1673.07C2958.82 1672.46 2959.74 1671.85 2960.63 1671.25C2971.35 1663.9 2980.21 1654.35 2986.56 1643.29C2992.91 1632.24 2996.6 1619.97 2997.36 1607.37C2997.42 1606.3 2997.47 1605.24 2997.49 1604.18C2997.57 1599.78 2997.29 1595.38 2996.65 1591.03C2995.47 1582.98 2993.09 1575.14 2989.59 1567.73H2989.6ZM2957.72 1615.23C2957.39 1616.4 2957.01 1617.56 2956.58 1618.7C2954.76 1623.57 2952.15 1628.12 2948.82 1632.19C2948.05 1633.16 2947.23 1634.09 2946.37 1634.98C2943.08 1638.45 2939.27 1641.43 2935.06 1643.83C2927.69 1648.04 2919.32 1650.36 2910.74 1650.59C2905.85 1650.72 2900.96 1650.15 2896.24 1648.9C2895.02 1648.59 2893.8 1648.22 2892.61 1647.81C2887.52 1646.07 2882.77 1643.56 2878.52 1640.38C2877.52 1639.64 2876.55 1638.85 2875.61 1638.03C2868.8 1632.1 2863.83 1624.47 2861.26 1616C2858.69 1607.53 2858.62 1598.55 2861.05 1590.04C2861.38 1588.87 2861.76 1587.71 2862.19 1586.56C2864.02 1581.7 2866.65 1577.14 2869.99 1573.08C2870.77 1572.12 2871.59 1571.18 2872.44 1570.29C2878.65 1563.77 2886.62 1559.02 2895.46 1556.56C2904.31 1554.1 2913.69 1554.03 2922.57 1556.36C2923.8 1556.68 2925.01 1557.05 2926.2 1557.47C2931.29 1559.19 2936.05 1561.7 2940.3 1564.89C2941.3 1565.63 2942.27 1566.42 2943.2 1567.23C2950.02 1573.16 2954.99 1580.79 2957.56 1589.26C2960.13 1597.73 2960.2 1606.72 2957.77 1615.23H2957.72Z" fill="#F26E91"/>
<path d="M2897.27 1519.09L2908.04 1554.68C2899.47 1554.9 2891.1 1557.23 2883.74 1561.44L2872.97 1525.84C2876.83 1524.15 2880.81 1522.73 2884.88 1521.6C2888.95 1520.48 2893.09 1519.64 2897.27 1519.09V1519.09Z" fill="white"/>
<path d="M2935.07 1643.83L2945.83 1679.42C2938.1 1682.77 2929.91 1685.05 2921.5 1686.18L2910.74 1650.59C2919.31 1650.36 2927.69 1648.04 2935.06 1643.83H2935.07Z" fill="white"/>
<path d="M2861.29 1616C2862.47 1619.93 2864.18 1623.69 2866.36 1627.21L2829.18 1637.51C2827.43 1633.82 2825.95 1630.01 2824.75 1626.11C2823.57 1622.22 2822.68 1618.24 2822.1 1614.23L2859.27 1603.92C2859.4 1608.01 2860.08 1612.07 2861.29 1616V1616Z" fill="white"/>
<path d="M2994 1579.14C2995.18 1583.03 2996.07 1587.01 2996.66 1591.03L2959.49 1601.33C2959.24 1593.12 2956.81 1585.1 2952.43 1578.04L2989.6 1567.73C2991.35 1571.43 2992.82 1575.24 2994 1579.14V1579.14Z" fill="white"/>
<g style="mix-blend-mode:multiply" opacity="0.4">
<g style="mix-blend-mode:multiply">
<path d="M2989.55 1567.76C2987.66 1563.76 2985.44 1559.9 2982.9 1556.24C2982.27 1555.36 2981.64 1554.47 2981 1553.61C2973.34 1543.36 2963.37 1534.89 2951.84 1528.81C2940.3 1522.73 2927.49 1519.2 2914.34 1518.49C2913.24 1518.41 2912.12 1518.38 2911.01 1518.37C2906.42 1518.27 2901.82 1518.54 2897.27 1519.17C2888.88 1520.3 2880.69 1522.57 2872.96 1525.92C2868.78 1527.72 2864.76 1529.85 2860.93 1532.28C2860.01 1532.88 2859.09 1533.49 2858.19 1534.1C2847.49 1541.44 2838.64 1550.98 2832.29 1562.03C2825.94 1573.07 2822.26 1585.34 2821.51 1597.93C2821.44 1598.99 2821.4 1600.06 2821.39 1601.12C2821.29 1605.52 2821.57 1609.92 2822.22 1614.28C2823.39 1622.32 2825.76 1630.15 2829.27 1637.54C2831.16 1641.55 2833.38 1645.4 2835.9 1649.06C2836.54 1649.95 2837.17 1650.82 2837.8 1651.7C2845.48 1661.94 2855.45 1670.42 2866.98 1676.49C2878.52 1682.57 2891.33 1686.1 2904.48 1686.82C2905.59 1686.89 2906.7 1686.93 2907.81 1686.95C2912.4 1687.03 2917 1686.76 2921.55 1686.14C2925.74 1685.58 2929.89 1684.73 2933.95 1683.6C2938.02 1682.47 2942 1681.06 2945.86 1679.39C2950.04 1677.58 2954.06 1675.46 2957.89 1673.03C2958.81 1672.42 2959.74 1671.81 2960.63 1671.21C2971.33 1663.86 2980.18 1654.32 2986.53 1643.27C2992.88 1632.23 2996.57 1619.96 2997.32 1607.37C2997.38 1606.3 2997.43 1605.24 2997.45 1604.18C2997.53 1599.78 2997.25 1595.39 2996.61 1591.03C2995.43 1582.99 2993.06 1575.16 2989.55 1567.76V1567.76ZM2992.47 1600.5C2992.68 1608.27 2991.7 1616.03 2989.55 1623.53C2989 1625.47 2988.36 1627.39 2987.65 1629.29C2984.64 1637.37 2980.3 1644.92 2974.79 1651.67C2973.52 1653.29 2972.17 1654.83 2970.72 1656.29C2960.44 1667.11 2947.23 1674.99 2932.56 1679.07C2917.88 1683.14 2902.32 1683.25 2887.58 1679.39C2885.55 1678.86 2883.54 1678.25 2881.56 1677.57C2873.13 1674.69 2865.24 1670.54 2858.2 1665.25C2856.53 1664.04 2854.93 1662.72 2853.37 1661.36C2842.07 1651.52 2833.85 1638.87 2829.61 1624.82C2825.33 1610.78 2825.21 1595.88 2829.26 1581.78C2829.8 1579.83 2830.44 1577.91 2831.16 1576.01C2834.16 1567.94 2838.5 1560.39 2844.01 1553.64C2845.3 1552.05 2846.66 1550.51 2848.08 1549.02C2858.37 1538.2 2871.58 1530.33 2886.25 1526.25C2900.92 1522.18 2916.48 1522.06 2931.22 1525.92C2933.25 1526.46 2935.26 1527.06 2937.24 1527.74C2945.67 1530.61 2953.56 1534.77 2960.6 1540.05C2962.27 1541.29 2963.88 1542.59 2965.43 1543.95C2973.68 1551.15 2980.32 1559.88 2984.97 1569.6C2989.61 1579.32 2992.16 1589.84 2992.47 1600.52V1600.5Z" fill="#A65B3C"/>
</g>
</g>
<path d="M1895.86 1676.96C1900.91 1672.08 1906.59 1667.96 1912.73 1664.73C1910.18 1664.15 1907.57 1664 1904.98 1664.29C1901.11 1667.78 1898 1672.1 1895.86 1676.96V1676.96Z" fill="white"/>
<path d="M1922.98 1655.66C1921.08 1657.53 1919.47 1659.71 1918.21 1662.11C1924.55 1659.35 1931.23 1657.54 1938.04 1656.72C1933.15 1655.24 1928.01 1654.88 1922.98 1655.66V1655.66Z" fill="white"/>
<path d="M1913.4 1658.63C1910.35 1660.09 1907.52 1662 1904.98 1664.29C1907.57 1664.01 1910.19 1664.15 1912.73 1664.73C1913.62 1664.25 1914.53 1663.8 1915.44 1663.36C1916.36 1662.91 1917.28 1662.49 1918.2 1662.1C1919.46 1659.7 1921.07 1657.52 1922.98 1655.65C1919.67 1656.17 1916.44 1657.17 1913.4 1658.63V1658.63Z" fill="#F04848"/>
<path d="M1895.72 1708.46C1897.75 1713.17 1900.69 1717.38 1904.35 1720.84C1903.55 1719.39 1902.81 1717.91 1902.15 1716.38C1893.13 1695.55 1899.25 1672.2 1915.83 1664.25C1932.41 1656.3 1953.16 1666.74 1962.18 1687.57C1962.84 1689.1 1963.42 1690.66 1963.93 1692.24C1963.8 1684.18 1961.22 1676.38 1956.56 1669.98C1951.9 1663.58 1945.41 1658.93 1938.04 1656.71C1922.32 1658.66 1907.57 1665.74 1895.86 1676.97C1893.67 1681.89 1892.52 1687.26 1892.5 1692.7C1892.48 1698.13 1893.57 1703.51 1895.72 1708.46V1708.46Z" fill="#F04848"/>
<path d="M1915.82 1664.25C1922.88 1660.86 1935.91 1675.01 1944.93 1695.84C1948.77 1704.7 1951.25 1713.34 1952.31 1720.61C1956.03 1717.01 1959 1712.63 1961 1707.74C1963 1702.84 1963.99 1697.56 1963.91 1692.24C1963.41 1690.65 1962.82 1689.09 1962.17 1687.57C1953.15 1666.73 1932.4 1656.29 1915.82 1664.25Z" fill="white"/>
<path d="M1932.31 1730.23C1927.79 1724.62 1923.23 1716.97 1919.39 1708.1C1910.37 1687.26 1908.78 1667.63 1915.83 1664.24C1899.26 1672.2 1893.14 1695.54 1902.15 1716.37C1902.82 1717.89 1903.55 1719.38 1904.35 1720.82C1908.12 1724.38 1912.56 1727.06 1917.37 1728.68C1922.19 1730.3 1927.28 1730.83 1932.31 1730.23Z" fill="white"/>
<path d="M1919.37 1708.11C1923.21 1716.97 1927.77 1724.62 1932.29 1730.24C1939.75 1729.33 1946.75 1725.97 1952.3 1720.63C1951.25 1713.36 1948.76 1704.72 1944.92 1695.86C1935.9 1675.02 1922.87 1660.88 1915.81 1664.26C1908.76 1667.65 1910.35 1687.27 1919.37 1708.11Z" fill="#F04848"/>
<path d="M1924.45 1661.28C1925.42 1663.53 1922.55 1667.13 1918.02 1669.29C1913.5 1671.45 1909.04 1671.4 1908.07 1669.15C1907.09 1666.9 1909.97 1663.3 1914.5 1661.14C1919.02 1658.98 1923.48 1659.03 1924.45 1661.28Z" fill="#CE4545"/>
<path d="M1899.94 1710.26C1898.23 1709.2 1896.58 1708.03 1895.02 1706.74C1895.24 1707.31 1895.46 1707.89 1895.71 1708.45C1897.74 1713.16 1900.68 1717.38 1904.34 1720.83C1902.48 1717.51 1901.01 1713.96 1899.94 1710.26V1710.26Z" fill="#CE3A3A"/>
<path d="M1963.44 1690.84C1963.6 1691.31 1963.77 1691.77 1963.92 1692.23C1963.92 1691.51 1963.88 1690.78 1963.83 1690.05C1963.7 1690.32 1963.58 1690.58 1963.44 1690.84Z" fill="#CE3A3A"/>
<path d="M1949.39 1707.94C1950.68 1712.08 1951.66 1716.32 1952.31 1720.61C1956.04 1717.02 1959 1712.63 1961.01 1707.74C1963.01 1702.85 1964 1697.56 1963.92 1692.24C1963.77 1691.77 1963.6 1691.31 1963.44 1690.85C1960.11 1697.64 1955.3 1703.5 1949.39 1707.94V1707.94Z" fill="#E4E4E0"/>
<path d="M1922.98 1716.86C1914.89 1716.87 1906.93 1714.6 1899.96 1710.27C1901.02 1713.96 1902.5 1717.51 1904.35 1720.84C1908.12 1724.4 1912.56 1727.07 1917.38 1728.69C1922.19 1730.3 1927.28 1730.83 1932.31 1730.22C1929.36 1726.56 1926.39 1722.02 1923.61 1716.85C1923.41 1716.85 1923.2 1716.86 1922.98 1716.86Z" fill="#E4E4E0"/>
<path d="M1923.6 1716.85C1926.37 1722.02 1929.34 1726.56 1932.29 1730.23C1939.76 1729.32 1946.76 1725.96 1952.31 1720.62C1951.65 1716.32 1950.67 1712.09 1949.39 1707.95C1941.86 1713.62 1932.86 1716.73 1923.6 1716.85V1716.85Z" fill="#CE3A3A"/>
<ellipse cx="1924.38" cy="1529.63" rx="5.625" ry="5.62499" fill="#865537"/>
<ellipse cx="1928.12" cy="1512.76" rx="5.625" ry="3.74999" fill="#865537"/>
<ellipse cx="1915" cy="1520.26" rx="3.75" ry="3.74999" fill="#865537"/>
<path d="M1824.53 1505.54C1831.73 1515.66 1852.5 1550.31 1848.48 1608.32L1848.31 1610.73C1848.15 1612.98 1847.98 1615.19 1847.81 1617.34C1843.82 1667.78 1837.55 1692.54 1835.2 1700.43C1835.1 1700.78 1834.89 1701.09 1834.61 1701.32C1834.32 1701.56 1833.96 1701.72 1833.54 1701.8C1833.13 1701.88 1832.68 1701.86 1832.23 1701.77C1831.78 1701.67 1831.33 1701.48 1830.92 1701.23L1820.1 1694.44C1819.7 1694.19 1819.26 1694.01 1818.81 1693.91C1818.35 1693.81 1817.91 1693.79 1817.5 1693.87L1806.53 1695.84C1806.12 1695.92 1805.67 1695.9 1805.21 1695.8C1804.76 1695.7 1804.31 1695.51 1803.91 1695.26C1803.5 1695 1803.15 1694.68 1802.87 1694.32C1802.59 1693.95 1802.4 1693.56 1802.31 1693.17C1800.31 1684.55 1795.18 1658.47 1792.86 1609.39C1792.77 1607.4 1792.68 1605.37 1792.6 1603.3C1792.5 1600.89 1792.41 1598.43 1792.32 1595.92C1790.35 1536.58 1812.16 1511.35 1819.66 1504.46C1819.94 1504.19 1820.31 1504.01 1820.74 1503.92C1821.16 1503.83 1821.64 1503.84 1822.11 1503.95C1822.59 1504.05 1823.06 1504.25 1823.48 1504.53C1823.9 1504.8 1824.26 1505.15 1824.53 1505.54V1505.54Z" fill="#DF4747"/>
<path d="M1818.86 1690.71L1819.2 1668.22L1819.38 1656.97L1819.59 1645.73L1820.01 1623.25L1820.39 1600.76L1821.14 1555.78L1821.55 1533.3L1821.99 1510.82L1822 1510.83L1821.66 1533.32L1821.29 1555.81L1820.48 1600.78L1820.07 1623.26L1819.71 1645.76L1819.52 1657L1819.31 1668.24L1818.87 1690.72L1818.86 1690.71Z" fill="#1B1A2E"/>
<path d="M1818.87 1690.71C1819.18 1690.78 1819.5 1690.89 1819.8 1691.04C1819.95 1691.12 1820.09 1691.2 1820.23 1691.29L1820.66 1691.55L1822.36 1692.62L1825.75 1694.73L1829.14 1696.85L1829.99 1697.38C1830.26 1697.57 1830.55 1697.73 1830.85 1697.88C1831 1697.94 1831.15 1698 1831.31 1698.05C1831.46 1698.1 1831.62 1698.13 1831.77 1698.15C1831.93 1698.18 1832.08 1698.2 1832.23 1698.2C1832.38 1698.2 1832.53 1698.19 1832.68 1698.17C1832.82 1698.15 1832.96 1698.13 1833.09 1698.09C1833.22 1698.04 1833.35 1697.99 1833.47 1697.93C1833.58 1697.87 1833.69 1697.8 1833.79 1697.73C1833.89 1697.65 1833.97 1697.55 1834.05 1697.46C1834.13 1697.36 1834.2 1697.26 1834.25 1697.15C1834.28 1697.09 1834.3 1697.03 1834.32 1696.97C1834.34 1696.92 1834.36 1696.86 1834.38 1696.79L1834.59 1696.06C1834.88 1695.09 1835.13 1694.1 1835.4 1693.12C1835.66 1692.13 1835.9 1691.14 1836.14 1690.14L1836.84 1687.16C1837.74 1683.17 1838.52 1679.13 1839.27 1675.08C1839.99 1671.02 1840.69 1666.96 1841.3 1662.87C1841.6 1660.82 1841.92 1658.78 1842.19 1656.72L1842.6 1653.64L1842.82 1652.1L1843.01 1650.56L1843.77 1644.37L1844.46 1638.16C1844.58 1637.13 1844.68 1636.09 1844.78 1635.06L1845.08 1631.94L1845.39 1628.83L1845.66 1625.71L1846.19 1619.46L1846.65 1613.19L1846.88 1610.06C1846.95 1609.01 1847 1607.95 1847.06 1606.91L1847.15 1605.34L1847.19 1604.55L1847.22 1603.76L1847.31 1600.59C1847.36 1599.54 1847.35 1598.47 1847.36 1597.42L1847.36 1595.83C1847.37 1595.3 1847.38 1594.77 1847.36 1594.23L1847.3 1591.03C1847.29 1589.97 1847.23 1588.89 1847.19 1587.82L1847.12 1586.22C1847.11 1585.95 1847.1 1585.68 1847.08 1585.41L1847.03 1584.61L1846.81 1581.38C1846.72 1580.3 1846.61 1579.22 1846.52 1578.14C1846.46 1577.6 1846.42 1577.06 1846.36 1576.52L1846.17 1574.9C1845.94 1572.73 1845.61 1570.56 1845.3 1568.38L1844.76 1565.12C1844.68 1564.58 1844.56 1564.03 1844.46 1563.48L1844.15 1561.85C1842.42 1553.12 1839.96 1544.33 1836.53 1535.62C1835.66 1533.45 1834.76 1531.28 1833.76 1529.11C1833.28 1528.03 1832.74 1526.96 1832.23 1525.88C1831.71 1524.8 1831.14 1523.73 1830.57 1522.67C1829.44 1520.54 1828.23 1518.42 1826.92 1516.33C1826.28 1515.28 1825.59 1514.25 1824.89 1513.22L1824.36 1512.45C1824.19 1512.19 1823.98 1511.95 1823.74 1511.73C1823.24 1511.29 1822.63 1510.97 1822 1510.83L1822 1510.82C1822.64 1510.96 1823.26 1511.28 1823.76 1511.72C1824 1511.94 1824.22 1512.18 1824.39 1512.44L1824.93 1513.21C1825.63 1514.24 1826.32 1515.27 1826.97 1516.32C1828.28 1518.41 1829.51 1520.52 1830.65 1522.66C1831.23 1523.72 1831.77 1524.8 1832.31 1525.87C1832.86 1526.94 1833.37 1528.02 1833.85 1529.1C1834.86 1531.26 1835.77 1533.44 1836.65 1535.61C1838.38 1539.97 1839.86 1544.34 1841.13 1548.72C1842.4 1553.1 1843.44 1557.49 1844.31 1561.85L1844.62 1563.49C1844.72 1564.04 1844.84 1564.58 1844.92 1565.13L1845.46 1568.4C1845.78 1570.57 1846.1 1572.75 1846.33 1574.91L1846.52 1576.54C1846.58 1577.08 1846.63 1577.62 1846.68 1578.16C1846.77 1579.24 1846.88 1580.32 1846.97 1581.4L1847.19 1584.63L1847.24 1585.44C1847.26 1585.71 1847.27 1585.97 1847.28 1586.24L1847.35 1587.85C1847.46 1590 1847.48 1592.12 1847.51 1594.26C1847.53 1594.79 1847.52 1595.32 1847.51 1595.85L1847.5 1597.44C1847.49 1598.5 1847.5 1599.57 1847.45 1600.62L1847.35 1603.78L1847.32 1604.57L1847.27 1605.36L1847.18 1606.93C1847.12 1607.98 1847.06 1609.04 1846.99 1610.08L1846.75 1613.21L1846.28 1619.47L1845.73 1625.72L1845.46 1628.84L1845.15 1631.96L1844.85 1635.07C1844.75 1636.11 1844.65 1637.15 1844.53 1638.18L1843.85 1644.39L1843.11 1650.58L1842.92 1652.13L1842.71 1653.67L1842.3 1656.75C1842.04 1658.81 1841.72 1660.85 1841.42 1662.9C1840.81 1666.99 1840.15 1671.07 1839.41 1675.12C1838.65 1679.16 1837.87 1683.2 1836.95 1687.18L1836.24 1690.17C1836 1691.16 1835.74 1692.14 1835.49 1693.13C1835.24 1694.12 1834.96 1695.1 1834.67 1696.08L1834.46 1696.81C1834.44 1696.87 1834.42 1696.93 1834.4 1696.99C1834.37 1697.05 1834.36 1697.11 1834.33 1697.17C1834.27 1697.28 1834.2 1697.39 1834.12 1697.49C1833.97 1697.69 1833.76 1697.86 1833.51 1697.98C1833.39 1698.04 1833.26 1698.09 1833.13 1698.14C1832.99 1698.18 1832.84 1698.21 1832.69 1698.22C1832.55 1698.24 1832.39 1698.25 1832.24 1698.25C1832.08 1698.25 1831.92 1698.23 1831.76 1698.2C1831.6 1698.18 1831.44 1698.14 1831.28 1698.1C1831.13 1698.04 1830.97 1697.98 1830.81 1697.91C1830.51 1697.77 1830.22 1697.6 1829.94 1697.42L1829.09 1696.88L1825.71 1694.75L1822.33 1692.62L1820.63 1691.55L1820.21 1691.29C1820.07 1691.2 1819.92 1691.11 1819.77 1691.04C1819.48 1690.89 1819.16 1690.77 1818.85 1690.7L1818.87 1690.71Z" fill="#1B1A2E"/>
<path d="M1821.99 1510.84C1821.36 1510.7 1820.74 1510.75 1820.24 1510.97C1819.99 1511.08 1819.78 1511.23 1819.6 1511.41L1819.04 1511.94C1818.31 1512.65 1817.6 1513.38 1816.92 1514.13C1815.55 1515.63 1814.28 1517.2 1813.08 1518.82C1812.47 1519.62 1811.9 1520.45 1811.33 1521.28C1810.78 1522.12 1810.21 1522.95 1809.69 1523.81C1808.62 1525.51 1807.65 1527.27 1806.7 1529.04C1803 1536.17 1800.25 1543.81 1798.22 1551.71L1797.85 1553.2C1797.73 1553.69 1797.6 1554.18 1797.5 1554.69L1796.84 1557.69C1796.46 1559.71 1796.05 1561.73 1795.74 1563.77L1795.5 1565.3C1795.42 1565.8 1795.36 1566.32 1795.28 1566.83C1795.15 1567.86 1795 1568.89 1794.88 1569.92L1794.55 1573.02L1794.46 1573.8C1794.44 1574.06 1794.42 1574.32 1794.4 1574.58L1794.28 1576.15C1794.09 1578.23 1793.99 1580.33 1793.88 1582.43C1793.85 1582.96 1793.84 1583.48 1793.83 1584.01L1793.78 1585.6C1793.76 1586.65 1793.71 1587.71 1793.72 1588.77L1793.72 1591.96L1793.72 1592.75L1793.73 1593.55L1793.77 1595.15C1793.8 1596.22 1793.81 1597.29 1793.85 1598.36L1793.98 1601.57C1794.65 1618.7 1795.71 1635.9 1797.59 1653.22C1798.04 1657.55 1798.59 1661.89 1799.16 1666.23C1799.76 1670.57 1800.4 1674.93 1801.16 1679.28L1801.75 1682.56C1801.95 1683.65 1802.17 1684.74 1802.38 1685.83C1802.59 1686.92 1802.82 1688.01 1803.08 1689.11L1803.26 1689.93C1803.27 1689.99 1803.29 1690.06 1803.31 1690.13C1803.33 1690.2 1803.35 1690.26 1803.37 1690.33C1803.48 1690.6 1803.63 1690.86 1803.81 1691.11C1803.91 1691.23 1804.02 1691.35 1804.13 1691.46C1804.25 1691.58 1804.37 1691.68 1804.5 1691.78C1804.76 1691.98 1805.05 1692.14 1805.35 1692.27C1805.5 1692.33 1805.65 1692.39 1805.81 1692.43C1805.96 1692.47 1806.12 1692.51 1806.27 1692.53C1806.43 1692.55 1806.58 1692.56 1806.73 1692.56C1807.03 1692.55 1807.33 1692.51 1807.61 1692.45L1808.46 1692.29L1811.9 1691.68L1815.34 1691.07L1817.05 1690.76L1817.48 1690.69C1817.62 1690.66 1817.77 1690.64 1817.92 1690.63C1818.22 1690.61 1818.54 1690.63 1818.85 1690.7L1818.85 1690.71C1818.53 1690.65 1818.22 1690.62 1817.93 1690.64C1817.78 1690.66 1817.63 1690.68 1817.49 1690.71L1817.06 1690.78L1815.35 1691.1L1811.91 1691.72L1808.48 1692.34L1807.62 1692.5C1807.34 1692.56 1807.04 1692.6 1806.74 1692.61C1806.58 1692.61 1806.43 1692.61 1806.27 1692.59C1806.11 1692.56 1805.95 1692.53 1805.79 1692.48C1805.63 1692.44 1805.47 1692.39 1805.32 1692.32C1805.01 1692.19 1804.72 1692.02 1804.45 1691.83C1804.31 1691.72 1804.19 1691.61 1804.07 1691.5C1803.95 1691.38 1803.84 1691.26 1803.74 1691.13C1803.65 1691.01 1803.56 1690.88 1803.48 1690.74C1803.41 1690.61 1803.34 1690.47 1803.29 1690.33C1803.26 1690.26 1803.25 1690.19 1803.22 1690.12C1803.19 1690.05 1803.18 1689.98 1803.16 1689.91L1802.98 1689.09C1802.72 1688 1802.5 1686.9 1802.27 1685.81C1802.04 1684.72 1801.83 1683.63 1801.62 1682.54L1801.03 1679.26C1800.25 1674.9 1799.61 1670.55 1798.99 1666.2C1798.38 1661.86 1797.88 1657.52 1797.41 1653.19C1797.19 1651.03 1796.94 1648.87 1796.75 1646.7L1796.44 1643.46L1796.29 1641.84L1796.16 1640.22L1795.62 1633.75L1795.16 1627.29C1795.08 1626.21 1795.02 1625.14 1794.96 1624.06L1794.76 1620.84L1794.57 1617.62L1794.41 1614.4L1794.11 1607.96L1793.87 1601.54L1793.75 1598.33C1793.71 1597.26 1793.7 1596.19 1793.67 1595.13L1793.64 1593.52L1793.62 1592.72L1793.63 1591.93L1793.64 1588.75C1793.63 1587.68 1793.68 1586.63 1793.7 1585.57L1793.75 1583.99C1793.77 1583.46 1793.78 1582.93 1793.81 1582.41L1793.98 1579.26C1794.02 1578.21 1794.12 1577.17 1794.2 1576.12L1794.32 1574.56C1794.34 1574.3 1794.36 1574.04 1794.38 1573.78L1794.46 1573L1794.79 1569.89C1794.91 1568.86 1795.05 1567.83 1795.19 1566.8C1795.26 1566.29 1795.31 1565.77 1795.39 1565.26L1795.64 1563.73C1795.94 1561.68 1796.34 1559.67 1796.72 1557.65L1797.37 1554.64C1797.46 1554.13 1797.61 1553.65 1797.72 1553.15L1798.09 1551.66C1799.09 1547.7 1800.26 1543.81 1801.68 1540.02C1803.11 1536.24 1804.72 1532.54 1806.58 1528.98C1807.53 1527.21 1808.51 1525.45 1809.58 1523.75C1810.1 1522.89 1810.67 1522.06 1811.22 1521.21C1811.8 1520.39 1812.38 1519.56 1812.98 1518.76C1814.19 1517.14 1815.48 1515.58 1816.85 1514.09C1817.53 1513.33 1818.26 1512.61 1818.99 1511.9L1819.55 1511.38C1819.73 1511.19 1819.95 1511.05 1820.2 1510.93C1820.71 1510.71 1821.33 1510.67 1821.97 1510.82L1821.99 1510.84Z" fill="#1B1A2E"/>
<g style="mix-blend-mode:multiply" opacity="0.4">
<g style="mix-blend-mode:multiply">
<path d="M1810.39 1688.13L1818.98 1684.15L1819.34 1663.27L1819.07 1663.62C1813.51 1670.64 1810.54 1679.02 1810.39 1688.13L1810.39 1688.13Z" fill="#DF4747"/>
</g>
</g>
<path d="M1814.02 1688.94L1818.98 1684.15L1819.34 1663.28L1819.18 1663.65C1815.94 1671.18 1814.17 1679.82 1814.02 1688.94L1814.02 1688.94Z" fill="#1B1A2E"/>
<path d="M1820.59 1604.62L1820.46 1598.93C1821.16 1599 1821.8 1599.1 1822.38 1599.2C1822.95 1599.3 1823.48 1599.46 1823.97 1599.65C1824.67 1599.93 1825.29 1600.27 1825.83 1600.67C1826.36 1601.07 1826.83 1601.54 1827.19 1602.04C1827.54 1602.54 1827.84 1603.09 1828.02 1603.68C1828.23 1604.26 1828.33 1604.87 1828.34 1605.5C1828.36 1606.35 1828.21 1607.12 1827.89 1607.8C1827.58 1608.47 1827.11 1609.03 1826.53 1609.48C1825.91 1609.92 1825.19 1610.24 1824.34 1610.43C1823.48 1610.62 1822.54 1610.67 1821.5 1610.56C1820.47 1610.46 1819.53 1610.23 1818.67 1609.87C1817.79 1609.5 1817.05 1609.02 1816.43 1608.47C1815.81 1607.88 1815.32 1607.22 1814.98 1606.46C1814.63 1605.7 1814.44 1604.88 1814.42 1604C1814.39 1602.85 1814.66 1601.87 1815.23 1601.06C1815.8 1600.25 1816.71 1599.66 1817.95 1599.27L1819.36 1602.13C1818.63 1602.3 1818.13 1602.59 1817.83 1602.96C1817.53 1603.32 1817.38 1603.77 1817.39 1604.28C1817.4 1604.7 1817.52 1605.11 1817.71 1605.48C1817.91 1605.84 1818.18 1606.18 1818.55 1606.46C1818.91 1606.74 1819.35 1606.98 1819.84 1607.17C1820.35 1607.35 1820.9 1607.48 1821.51 1607.55C1822.07 1607.6 1822.59 1607.6 1823.06 1607.53C1823.53 1607.44 1823.94 1607.31 1824.28 1607.1C1824.62 1606.89 1824.9 1606.61 1825.08 1606.28C1825.26 1605.94 1825.34 1605.52 1825.33 1605.06C1825.32 1604.78 1825.28 1604.5 1825.2 1604.23C1825.11 1603.96 1824.98 1603.72 1824.82 1603.5C1824.64 1603.26 1824.41 1603.06 1824.15 1602.91C1823.89 1602.75 1823.55 1602.61 1823.17 1602.53L1823.22 1604.89L1820.59 1604.62ZM1817.09 1584.49L1827.88 1585.58L1827.95 1588.64L1817.16 1587.54L1817.22 1590.01L1814.08 1589.7L1813.9 1581.7L1817.03 1582.01L1817.09 1584.49ZM1818.42 1571.56C1817.46 1572.13 1816.99 1572.9 1817.01 1573.87C1817.02 1574.31 1817.12 1574.71 1817.32 1575.11C1817.52 1575.49 1817.79 1575.82 1818.11 1576.13C1818.43 1576.42 1818.81 1576.68 1819.27 1576.87C1819.73 1577.06 1820.2 1577.18 1820.72 1577.24C1821.24 1577.29 1821.73 1577.27 1822.18 1577.17C1822.63 1577.05 1823 1576.89 1823.33 1576.66C1823.65 1576.42 1823.91 1576.12 1824.07 1575.78C1824.26 1575.43 1824.33 1575.05 1824.32 1574.63C1824.3 1573.71 1823.81 1572.83 1822.86 1572.01L1826.93 1572.42L1827.06 1572.73C1827.26 1573.18 1827.39 1573.6 1827.49 1574C1827.58 1574.39 1827.64 1574.77 1827.65 1575.15C1827.67 1575.91 1827.51 1576.63 1827.2 1577.3C1826.87 1577.96 1826.39 1578.52 1825.78 1579C1825.17 1579.46 1824.43 1579.82 1823.58 1580.05C1822.72 1580.28 1821.78 1580.35 1820.77 1580.25C1819.76 1580.14 1818.82 1579.89 1817.98 1579.5C1817.12 1579.09 1816.38 1578.59 1815.75 1577.99C1815.11 1577.39 1814.63 1576.72 1814.27 1575.99C1813.9 1575.25 1813.71 1574.49 1813.69 1573.72C1813.68 1573.29 1813.72 1572.85 1813.84 1572.45C1813.93 1572.02 1814.09 1571.59 1814.31 1571.14L1818.42 1571.56ZM1820.47 1565.79C1820.99 1565.84 1821.48 1565.81 1821.93 1565.69C1822.38 1565.58 1822.75 1565.38 1823.08 1565.14C1823.4 1564.9 1823.65 1564.59 1823.82 1564.23C1823.99 1563.87 1824.06 1563.47 1824.05 1563.05C1824.04 1562.63 1823.95 1562.22 1823.76 1561.83C1823.56 1561.43 1823.29 1561.07 1822.97 1560.75C1822.64 1560.42 1822.25 1560.15 1821.79 1559.95C1821.34 1559.74 1820.86 1559.6 1820.32 1559.55C1819.79 1559.49 1819.32 1559.53 1818.87 1559.65C1818.42 1559.76 1818.04 1559.96 1817.72 1560.21C1817.39 1560.46 1817.16 1560.77 1816.99 1561.14C1816.81 1561.5 1816.73 1561.88 1816.74 1562.31C1816.75 1562.73 1816.85 1563.13 1817.05 1563.54C1817.23 1563.94 1817.5 1564.28 1817.82 1564.61C1818.16 1564.92 1818.55 1565.19 1819 1565.39C1819.46 1565.6 1819.95 1565.74 1820.47 1565.79ZM1820.54 1568.79C1819.57 1568.69 1818.64 1568.45 1817.8 1568.06C1816.94 1567.67 1816.18 1567.17 1815.54 1566.57C1814.9 1565.96 1814.38 1565.27 1814.02 1564.5C1813.63 1563.7 1813.44 1562.86 1813.42 1561.97C1813.4 1561.08 1813.55 1560.27 1813.9 1559.57C1814.23 1558.84 1814.7 1558.25 1815.33 1557.78C1815.95 1557.29 1816.69 1556.95 1817.53 1556.73C1818.36 1556.51 1819.28 1556.45 1820.25 1556.55C1821.23 1556.65 1822.16 1556.89 1823.02 1557.28C1823.86 1557.67 1824.62 1558.17 1825.26 1558.79C1825.9 1559.39 1826.41 1560.08 1826.8 1560.87C1827.16 1561.67 1827.36 1562.5 1827.38 1563.39C1827.4 1564.29 1827.24 1565.1 1826.91 1565.81C1826.56 1566.51 1826.09 1567.1 1825.46 1567.57C1824.85 1568.05 1824.11 1568.39 1823.28 1568.61C1822.43 1568.83 1821.53 1568.89 1820.54 1568.79ZM1813.15 1549.84L1827.08 1551.25L1827.15 1554.31L1813.22 1552.89L1813.15 1549.84ZM1814.15 1592.61L1828.07 1594.02L1828.15 1597.07L1814.22 1595.66L1814.15 1592.61ZM1827 1548.05L1813.08 1546.64L1813.01 1543.73L1821.39 1538.92L1812.88 1538.06L1812.81 1535L1826.73 1536.41L1826.8 1539.35L1818.42 1544.13L1826.93 1545L1827 1548.05Z" fill="white"/>
<path d="M1822.07 1620.59C1824.07 1620.8 1826.04 1621.49 1827.74 1622.57L1829.65 1620.78C1827.4 1619.26 1824.73 1618.29 1822.01 1618.02C1819.37 1617.75 1816.81 1618.14 1814.64 1619.14L1816.56 1621.4C1818.13 1620.71 1820.04 1620.39 1822.07 1620.59Z" fill="#02E2AC"/>
<path d="M1831.03 1619.3C1829.72 1620.52 1825.35 1624.76 1824.77 1625.33C1823.96 1624.89 1823.06 1624.62 1822.16 1624.53C1821.25 1624.45 1820.37 1624.55 1819.59 1624.83L1814.74 1619.13L1813.23 1617.45C1812.92 1617.05 1812.59 1616.95 1812.16 1617.18C1811.61 1617.48 1811.09 1617.81 1810.6 1618.17C1807.98 1620.1 1806.28 1622.88 1805.98 1626.14L1802.84 1625.83C1802.01 1625.74 1801.3 1626.19 1801.26 1626.88C1801.25 1627.06 1801.28 1627.24 1801.36 1627.41C1801.44 1627.59 1801.55 1627.76 1801.7 1627.9C1801.85 1628.05 1802.03 1628.17 1802.23 1628.26C1802.42 1628.35 1802.63 1628.41 1802.85 1628.43L1806.04 1628.75C1806.19 1629.88 1806.51 1631 1806.98 1632.1L1802.98 1631.7C1802.15 1631.61 1801.43 1632.06 1801.4 1632.75C1801.39 1632.93 1801.42 1633.11 1801.5 1633.28C1801.57 1633.46 1801.69 1633.63 1801.84 1633.77C1801.99 1633.92 1802.16 1634.04 1802.36 1634.13C1802.56 1634.22 1802.77 1634.28 1802.99 1634.3L1808.53 1634.86C1811.48 1639.04 1816.65 1642.15 1822.5 1642.79C1831.57 1643.77 1838.86 1638.19 1838.68 1630.6L1838.44 1620.46C1838.44 1620.27 1838.35 1620.09 1838.21 1619.93C1838.06 1619.78 1837.86 1619.66 1837.64 1619.61L1831.98 1619.02C1831.8 1619 1831.62 1619.02 1831.45 1619.07C1831.29 1619.12 1831.14 1619.2 1831.03 1619.3ZM1833.08 1621.72L1835.37 1621.97L1835.56 1630.31C1835.7 1636.44 1829.83 1640.96 1822.5 1640.18C1818.48 1639.76 1814.85 1637.88 1812.37 1635.25L1815.41 1635.56C1816.24 1635.64 1816.95 1635.19 1816.99 1634.51C1817 1634.33 1816.96 1634.15 1816.89 1633.97C1816.81 1633.8 1816.7 1633.63 1816.55 1633.49C1816.4 1633.34 1816.22 1633.22 1816.02 1633.13C1815.82 1633.04 1815.61 1632.98 1815.4 1632.96L1810.34 1632.44C1809.53 1630.93 1809.09 1629.33 1809.06 1627.76C1808.99 1624.84 1810.09 1622.5 1812.24 1620.74L1817.37 1626.58C1817.01 1627.17 1816.83 1627.85 1816.85 1628.55C1816.91 1631.07 1819.4 1633.36 1822.42 1633.67C1825.43 1633.97 1827.83 1632.18 1827.77 1629.66C1827.75 1628.94 1827.53 1628.22 1827.13 1627.54L1833.08 1621.72ZM1822.26 1627.15C1822.73 1627.19 1823.18 1627.35 1823.57 1627.61C1823.96 1627.86 1824.27 1628.2 1824.45 1628.57C1824.64 1628.95 1824.69 1629.35 1824.61 1629.72C1824.53 1630.09 1824.32 1630.41 1824 1630.65C1823.67 1630.89 1823.26 1631.04 1822.81 1631.07C1822.36 1631.1 1821.89 1631.01 1821.46 1630.82C1821.03 1630.63 1820.65 1630.34 1820.39 1629.99C1820.13 1629.64 1819.98 1629.25 1819.97 1628.87C1819.96 1628.35 1820.19 1627.87 1820.62 1627.55C1821.05 1627.23 1821.64 1627.08 1822.26 1627.15Z" fill="white"/>
<path d="M150.68 1189.6C144.788 1190.1 139.331 1191.3 134.311 1193.21C129.249 1195.05 124.705 1197.61 120.678 1200.89C116.664 1204.12 113.254 1208.07 110.45 1212.73C107.646 1217.39 105.541 1222.73 104.135 1228.75C101.829 1238.62 102.28 1248.19 105.488 1257.47C108.695 1266.76 114.701 1274.95 123.505 1282.06C132.309 1289.17 143.92 1294.43 158.338 1297.83C172.756 1301.23 185.488 1301.69 196.534 1299.2C207.58 1296.71 216.614 1291.95 223.634 1284.91C230.655 1277.86 235.369 1269.19 237.776 1258.89C240.005 1249.34 239.936 1240.46 237.568 1232.23C235.159 1223.94 230.69 1216.88 224.16 1211.05C217.589 1205.15 209.208 1201 199.018 1198.6L201.763 1192.72L190.058 1242.83L172.171 1238.61L186.993 1175.17L204.88 1179.38C218.593 1182.62 229.833 1188.36 238.601 1196.6C247.381 1204.8 253.365 1214.68 256.554 1226.24C259.701 1237.74 259.729 1250.11 256.638 1263.34C253.192 1278.09 246.696 1290.23 237.148 1299.76C227.613 1309.25 215.722 1315.6 201.473 1318.82C187.237 1321.98 171.339 1321.49 153.777 1317.35C140.606 1314.25 129.175 1309.69 119.483 1303.69C109.75 1297.62 101.93 1290.45 96.0249 1282.19C90.1194 1273.93 86.2271 1264.89 84.3479 1255.06C82.4687 1245.24 82.7769 1234.98 85.2725 1224.3C87.3247 1215.51 90.5656 1207.64 94.995 1200.67C99.3829 1193.64 104.686 1187.71 110.903 1182.88C117.079 1177.99 123.969 1174.32 131.573 1171.88C139.123 1169.43 147.114 1168.39 155.545 1168.78L150.68 1189.6Z" fill="#11538C"/>
<path d="M150.078 1012.24L309.724 1073.7L302.348 1093.06L142.702 1031.6L150.078 1012.24Z" fill="#11538C"/>
<path d="M189.094 952.182L172.718 943.764L232.485 829.943L248.862 838.361L223.803 886.083L359.878 956.028L350.228 974.405L214.153 904.46L189.094 952.182Z" fill="#11538C"/>
<path d="M406.415 667.448L393.904 683.97C388.386 681.383 382.893 679.962 377.426 679.707C371.993 679.407 366.737 680.073 361.657 681.706C356.567 683.26 351.816 685.658 347.404 688.901C342.992 692.143 339.071 696.029 335.641 700.559C329.385 708.82 325.817 717.869 324.937 727.707C324.09 737.5 326.255 747.42 331.434 757.469C336.647 767.473 345.192 776.905 357.071 785.765C368.95 794.625 380.455 800.148 391.586 802.335C402.752 804.478 412.955 803.784 422.198 800.253C431.474 796.677 439.24 790.759 445.495 782.498C448.926 777.968 451.596 773.149 453.507 768.042C455.418 762.934 456.441 757.755 456.574 752.503C456.697 747.173 455.857 741.96 454.056 736.864C452.244 731.69 449.341 726.849 445.348 722.341L457.859 705.819C463.928 712.293 468.487 719.237 471.536 726.654C474.584 734.071 476.201 741.671 476.387 749.455C476.528 757.205 475.299 764.871 472.701 772.455C470.137 779.994 466.248 787.206 461.036 794.09C452.224 805.726 441.53 813.943 428.953 818.739C416.376 823.536 402.851 824.603 388.377 821.938C373.903 819.274 359.432 812.545 344.964 801.753C330.495 790.962 319.959 779.037 313.355 765.98C306.751 752.923 304.021 739.732 305.166 726.408C306.311 713.084 311.289 700.604 320.1 688.968C325.313 682.084 331.212 676.371 337.795 671.83C344.412 667.244 351.513 663.957 359.097 661.97C366.637 659.949 374.42 659.36 382.446 660.204C390.428 661.014 398.417 663.429 406.415 667.448Z" fill="#11538C"/>
<path d="M678.516 337.824L776.425 477.904L759.431 489.715L661.521 349.635L678.516 337.824Z" fill="#11538C"/>
<path d="M881.693 217.262L960.739 369.36L942.913 378.619L797.956 302.249L796.47 303.02L858.534 422.442L840.113 432.009L761.067 279.91L778.893 270.652L924.302 347.164L925.787 346.393L863.569 226.674L881.693 217.262Z" fill="#11538C"/>
<path d="M1208.26 148.575C1205.32 140.567 1199.84 135.121 1191.81 132.238C1183.79 129.355 1174.74 129.129 1164.66 131.56C1157.29 133.337 1151.12 136.085 1146.16 139.804C1141.26 143.51 1137.76 147.823 1135.66 152.744C1133.62 157.652 1133.24 162.763 1134.5 168.077C1135.56 172.524 1137.53 176.093 1140.41 178.783C1143.33 181.406 1146.72 183.37 1150.58 184.674C1154.43 185.925 1158.37 186.784 1162.37 187.251C1166.37 187.664 1170.01 187.905 1173.29 187.974L1191.29 188.452C1195.9 188.546 1201.09 188.956 1206.88 189.682C1212.73 190.394 1218.5 191.898 1224.21 194.193C1229.96 196.421 1235.07 199.833 1239.55 204.431C1244.02 209.029 1247.19 215.233 1249.06 223.042C1251.2 232.045 1250.78 240.748 1247.8 249.152C1244.87 257.543 1239.42 264.965 1231.44 271.418C1223.52 277.859 1213.17 282.621 1200.38 285.705C1188.45 288.579 1177.67 289.143 1168.02 287.397C1158.43 285.637 1150.33 281.915 1143.7 276.229C1137.12 270.531 1132.42 263.205 1129.6 254.251L1150.41 249.233C1152.46 255.393 1155.81 260.09 1160.48 263.323C1165.19 266.488 1170.63 268.389 1176.8 269.023C1183.01 269.59 1189.42 269.077 1196.03 267.483C1203.73 265.627 1210.34 262.714 1215.87 258.743C1221.39 254.717 1225.4 250.023 1227.9 244.659C1230.39 239.241 1230.91 233.495 1229.47 227.421C1228.15 221.889 1225.53 217.761 1221.61 215.035C1217.7 212.309 1212.96 210.469 1207.4 209.515C1201.84 208.561 1195.94 207.976 1189.7 207.76L1167.82 206.842C1153.92 206.236 1142.35 203.377 1133.1 198.265C1123.86 193.153 1117.9 184.984 1115.23 173.758C1113 164.43 1113.58 155.687 1116.97 147.531C1120.39 139.306 1125.93 132.237 1133.58 126.322C1141.26 120.339 1150.42 116.068 1161.04 113.506C1171.77 110.919 1181.77 110.545 1191.03 112.383C1200.29 114.167 1208.14 117.779 1214.59 123.219C1221.1 128.646 1225.5 135.53 1227.77 143.871L1208.26 148.575Z" fill="#11538C"/>
<path d="M1449.04 66.0112L1469.71 64.1789L1478.81 177.309C1479.75 188.989 1477.84 199.662 1473.07 209.327C1468.36 218.931 1461.24 226.816 1451.72 232.981C1442.19 239.091 1430.73 242.74 1417.33 243.927C1403.94 245.114 1392.06 243.534 1381.69 239.188C1371.31 234.786 1363.01 228.267 1356.77 219.633C1350.59 210.939 1347.02 200.752 1346.08 189.072L1336.98 75.9413L1357.66 74.109L1366.63 185.571C1367.3 193.914 1369.73 201.176 1373.92 207.359C1378.11 213.485 1383.74 218.112 1390.82 221.237C1397.95 224.302 1406.27 225.414 1415.78 224.571C1425.28 223.729 1433.3 221.169 1439.84 216.893C1446.38 212.56 1451.2 207.008 1454.29 200.236C1457.44 193.404 1458.67 185.816 1458 177.473L1449.04 66.0112Z" fill="#11538C"/>
<path d="M1588.92 59.6601L1613.61 62.0912L1657.41 209.573L1659.41 209.771L1731.72 73.7208L1756.41 76.1519L1739.24 246.938L1719.89 245.033L1732.93 115.275L1731.26 115.111L1664.84 239.612L1646.15 237.773L1605.82 102.759L1604.15 102.594L1591.1 232.352L1571.75 230.446L1588.92 59.6601Z" fill="#11538C"/>
<path d="M1896.4 100.926L1919.98 108.42L1932.42 261.475L1934.33 262.083L2032.78 144.272L2056.36 151.766L2004.55 314.923L1986.07 309.049L2025.43 185.088L2023.84 184.581L1933.5 292.339L1915.65 286.667L1904.03 146.502L1902.44 145.996L1863.08 269.957L1844.6 264.083L1896.4 100.926Z" fill="#11538C"/>
<path d="M2105.06 350.896L2187.35 200.87L2278.35 249.681L2269.51 265.797L2196.77 226.78L2168.96 277.472L2237 313.962L2228.16 330.078L2160.13 293.588L2132.16 344.574L2206.08 384.223L2197.24 400.339L2105.06 350.896Z" fill="#11538C"/>
<path d="M2289.22 453.562L2393.98 318.635L2439.7 353.87C2450.27 362.017 2457.55 370.505 2461.53 379.335C2465.55 388.12 2466.77 396.887 2465.19 405.636C2463.6 414.385 2459.73 422.734 2453.55 430.684C2447.38 438.634 2440.28 444.427 2432.25 448.064C2424.21 451.701 2415.46 452.68 2406 451C2396.56 449.276 2386.61 444.374 2376.12 436.295L2339.13 407.781L2350.59 393.024L2387.05 421.13C2394.28 426.697 2400.91 430.124 2406.95 431.41C2413.03 432.731 2418.57 432.222 2423.55 429.884C2428.61 427.537 2433.24 423.662 2437.43 418.26C2441.63 412.857 2444.28 407.355 2445.39 401.753C2446.5 396.15 2445.69 390.537 2442.95 384.912C2440.24 379.244 2435.23 373.592 2427.92 367.957L2399.11 345.757L2305.61 466.19L2289.22 453.562ZM2399.97 442.036L2386.2 528.31L2367.18 513.646L2381.47 427.778L2399.97 442.036Z" fill="#11538C"/>
<path d="M2673.07 566.585L2588.26 693.226L2589.47 694.825L2735.62 649.194L2748.74 666.516L2573.62 718.741L2560.7 701.686L2659.95 549.264L2673.07 566.585Z" fill="#11538C"/>
<path d="M2820.37 775.648L2671.3 860.849L2660.84 842.885L2809.9 757.684L2820.37 775.648Z" fill="#11538C"/>
<path d="M2709.02 926.188L2867.25 861.191L2890.27 916.384C2894.86 927.382 2896.74 937.235 2895.91 945.944C2895.13 954.631 2892.27 962.034 2887.35 968.152C2882.47 974.249 2876.17 978.885 2868.44 982.058C2861.64 984.851 2855.52 985.95 2850.09 985.354C2844.67 984.81 2839.86 983.113 2835.66 980.266C2831.47 977.469 2827.82 974.064 2824.7 970.049L2823.15 970.684C2824.86 975.642 2825.18 981.196 2824.13 987.348C2823.08 993.499 2820.35 999.404 2815.95 1005.06C2811.56 1010.72 2805.19 1015.26 2796.84 1018.69C2788.91 1021.95 2781.03 1023.08 2773.19 1022.09C2765.36 1021.09 2757.96 1017.48 2751.02 1011.24C2744.07 1005 2738.01 995.667 2732.82 983.231L2709.02 926.188ZM2733.99 938.323L2749.82 976.249C2755.02 988.737 2761.14 996.607 2768.17 999.86C2775.27 1003.14 2782.3 1003.36 2789.25 1000.5C2794.61 998.3 2798.99 994.907 2802.38 990.321C2805.83 985.715 2807.87 980.332 2808.5 974.175C2809.18 967.996 2808.08 961.464 2805.21 954.577L2789 915.726L2733.99 938.323ZM2805.69 908.871L2820.48 944.33C2822.88 950.086 2826.18 954.811 2830.38 958.505C2834.6 962.251 2839.33 964.639 2844.59 965.67C2849.87 966.753 2855.29 966.151 2860.85 963.866C2867.8 961.01 2872.69 956.172 2875.52 949.352C2878.4 942.512 2877.65 933.85 2873.28 923.366L2858.23 887.29L2805.69 908.871Z" fill="#11538C"/>
<path d="M2790.88 1122.76L2958.28 1085.38L2980.86 1186.41L2962.87 1190.43L2944.83 1109.67L2888.26 1122.3L2905.14 1197.83L2887.16 1201.84L2870.28 1126.31L2813.39 1139.02L2831.73 1221.08L2813.74 1225.1L2790.88 1122.76Z" fill="#11538C"/>
<path d="M2964.77 1407.88C2973.17 1406.46 2979.53 1402.08 2983.85 1394.73C2988.16 1387.38 2990.06 1378.54 2989.55 1368.19C2989.17 1360.63 2987.62 1354.08 2984.89 1348.53C2982.17 1343.03 2978.58 1338.81 2974.14 1335.85C2969.71 1332.95 2964.77 1331.64 2959.32 1331.91C2954.76 1332.13 2950.89 1333.41 2947.72 1335.74C2944.6 1338.13 2942.05 1341.1 2940.05 1344.65C2938.11 1348.21 2936.54 1351.91 2935.34 1355.76C2934.19 1359.6 2933.28 1363.13 2932.6 1366.34L2928.8 1383.92C2927.85 1388.43 2926.49 1393.46 2924.7 1399.01C2922.92 1404.62 2920.37 1410.01 2917.06 1415.19C2913.81 1420.42 2909.51 1424.82 2904.17 1428.37C2898.83 1431.93 2892.16 1433.9 2884.15 1434.3C2874.92 1434.76 2866.46 1432.76 2858.77 1428.29C2851.08 1423.88 2844.81 1417.17 2839.96 1408.16C2835.11 1399.2 2832.36 1388.16 2831.71 1375.04C2831.1 1362.81 2832.54 1352.12 2836.05 1342.97C2839.55 1333.88 2844.71 1326.6 2851.51 1321.13C2858.32 1315.72 2866.38 1312.45 2875.69 1311.32L2876.75 1332.67C2870.33 1333.54 2865.1 1335.98 2861.06 1339.97C2857.08 1344.01 2854.21 1349.01 2852.44 1354.95C2850.74 1360.94 2850.05 1367.33 2850.39 1374.11C2850.78 1382.01 2852.41 1389.03 2855.28 1395.19C2858.21 1401.34 2862.07 1406.14 2866.87 1409.58C2871.72 1413.01 2877.26 1414.58 2883.49 1414.27C2889.16 1413.99 2893.7 1412.17 2897.1 1408.83C2900.5 1405.48 2903.18 1401.17 2905.15 1395.88C2907.11 1390.6 2908.78 1384.92 2910.15 1378.83L2915.11 1357.51C2918.28 1343.98 2923.23 1333.14 2929.96 1325.01C2936.69 1316.87 2945.81 1312.51 2957.32 1311.94C2966.88 1311.46 2975.35 1313.64 2982.73 1318.45C2990.16 1323.32 2996.07 1330.05 3000.45 1338.64C3004.9 1347.28 3007.39 1357.05 3007.93 1367.95C3008.48 1378.96 3006.99 1388.84 3003.47 1397.6C3000 1406.36 2995 1413.4 2988.47 1418.75C2981.94 1424.14 2974.37 1427.19 2965.77 1427.9L2964.77 1407.88Z" fill="#11538C"/>
<path d="M2894.95 1876.84C2900.87 1876.7 2906.4 1875.83 2911.54 1874.23C2916.72 1872.7 2921.42 1870.41 2925.65 1867.38C2929.87 1864.39 2933.52 1860.66 2936.61 1856.18C2939.71 1851.69 2942.15 1846.49 2943.93 1840.56C2946.85 1830.85 2947 1821.26 2944.37 1811.79C2941.74 1802.33 2936.25 1793.78 2927.89 1786.15C2919.53 1778.52 2908.25 1772.57 2894.05 1768.3C2879.85 1764.04 2867.15 1762.81 2855.95 1764.63C2844.75 1766.44 2835.42 1770.65 2827.97 1777.26C2820.51 1783.87 2815.26 1792.24 2812.21 1802.39C2809.38 1811.78 2808.9 1820.66 2810.75 1829.02C2812.64 1837.44 2816.67 1844.76 2822.83 1850.98C2829.03 1857.27 2837.15 1861.92 2847.19 1864.93L2844.08 1870.63L2858.91 1821.31L2876.53 1826.6L2857.75 1889.06L2840.13 1883.77C2826.62 1879.71 2815.74 1873.3 2807.49 1864.53C2799.23 1855.82 2793.86 1845.59 2791.4 1833.85C2788.97 1822.18 2789.71 1809.83 2793.63 1796.8C2797.99 1782.28 2805.24 1770.55 2815.38 1761.61C2825.51 1752.72 2837.79 1747.09 2852.24 1744.74C2866.67 1742.44 2882.53 1743.89 2899.83 1749.08C2912.8 1752.98 2923.95 1758.22 2933.26 1764.8C2942.61 1771.45 2949.98 1779.08 2955.37 1787.68C2960.76 1796.29 2964.09 1805.55 2965.35 1815.48C2966.62 1825.41 2965.67 1835.63 2962.51 1846.14C2959.91 1854.79 2956.18 1862.46 2951.31 1869.15C2946.49 1875.91 2940.82 1881.51 2934.3 1885.95C2927.82 1890.47 2920.7 1893.71 2912.95 1895.69C2905.25 1897.68 2897.19 1898.23 2888.79 1897.34L2894.95 1876.84Z" fill="#11538C"/>
<path d="M2882.93 2054.17L2727.42 1982.79L2736.06 1963.96L2891.57 2035.34L2882.93 2054.17Z" fill="#11538C"/>
<path d="M2835.84 2111.88L2851.56 2121.44L2784.47 2230.96L2768.76 2221.39L2796.89 2175.48L2666.31 2096.04L2677.14 2078.35L2807.72 2157.8L2835.84 2111.88Z" fill="#11538C"/>
<path d="M2603.45 2381.64L2616.98 2365.94C2622.32 2368.88 2627.71 2370.65 2633.15 2371.25C2638.55 2371.89 2643.84 2371.56 2649.01 2370.26C2654.19 2369.03 2659.08 2366.94 2663.69 2363.98C2668.29 2361.02 2672.45 2357.39 2676.16 2353.09C2682.93 2345.24 2687.06 2336.43 2688.57 2326.66C2690.03 2316.94 2688.5 2306.9 2683.97 2296.53C2679.41 2286.22 2671.48 2276.25 2660.19 2266.65C2648.9 2257.05 2637.77 2250.8 2626.81 2247.91C2615.8 2245.06 2605.58 2245.1 2596.13 2248.04C2586.65 2251.02 2578.53 2256.44 2571.76 2264.29C2568.05 2268.59 2565.08 2273.23 2562.85 2278.21C2560.62 2283.19 2559.27 2288.29 2558.8 2293.53C2558.34 2298.84 2558.85 2304.1 2560.32 2309.3C2561.8 2314.59 2564.39 2319.6 2568.09 2324.36L2554.56 2340.06C2548.91 2333.21 2544.81 2325.98 2542.24 2318.39C2539.66 2310.79 2538.53 2303.1 2538.84 2295.31C2539.19 2287.57 2540.91 2279.99 2543.98 2272.58C2547.02 2265.22 2551.35 2258.27 2556.99 2251.72C2566.52 2240.67 2577.71 2233.14 2590.57 2229.15C2603.42 2225.17 2616.98 2224.96 2631.25 2228.54C2645.52 2232.12 2659.54 2239.76 2673.29 2251.46C2687.04 2263.15 2696.79 2275.73 2702.55 2289.19C2708.31 2302.64 2710.2 2315.99 2708.21 2329.22C2706.22 2342.45 2700.46 2354.59 2690.93 2365.65C2685.3 2372.19 2679.05 2377.52 2672.19 2381.64C2665.3 2385.79 2658 2388.62 2650.31 2390.12C2642.66 2391.66 2634.86 2391.75 2626.9 2390.4C2618.99 2389.08 2611.17 2386.17 2603.45 2381.64Z" fill="#11538C"/>
<path d="M2311.65 2692.1L2221.93 2546.25L2239.67 2535.51L2329.39 2681.36L2311.65 2692.1Z" fill="#11538C"/>
<path d="M2102.74 2798.74L2032.11 2642.81L2050.48 2634.76L2191.37 2719.73L2192.9 2719.06L2137.44 2596.63L2156.42 2588.31L2227.06 2744.23L2208.69 2752.29L2067.35 2667.15L2065.82 2667.82L2121.42 2790.55L2102.74 2798.74Z" fill="#11538C"/>
<path d="M1773.84 2849.85C1776.36 2857.99 1781.55 2863.73 1789.41 2867.08C1797.28 2870.42 1806.3 2871.18 1816.5 2869.35C1823.95 2868.02 1830.25 2865.65 1835.39 2862.24C1840.48 2858.84 1844.2 2854.75 1846.54 2849.98C1848.83 2845.22 1849.48 2840.15 1848.49 2834.79C1847.66 2830.3 1845.88 2826.63 1843.15 2823.78C1840.37 2821 1837.09 2818.85 1833.29 2817.32C1829.51 2815.85 1825.63 2814.76 1821.65 2814.06C1817.68 2813.41 1814.06 2812.96 1810.79 2812.7L1792.84 2811.16C1788.25 2810.79 1783.08 2810.08 1777.33 2809.01C1771.53 2807.96 1765.84 2806.12 1760.27 2803.5C1754.64 2800.95 1749.71 2797.25 1745.48 2792.41C1741.25 2787.57 1738.4 2781.2 1736.95 2773.32C1735.27 2764.23 1736.14 2755.6 1739.55 2747.41C1742.91 2739.23 1748.73 2732.16 1757.03 2726.21C1765.27 2720.27 1775.86 2716.14 1788.79 2713.82C1800.85 2711.67 1811.64 2711.74 1821.18 2714.05C1830.67 2716.36 1838.57 2720.55 1844.9 2726.6C1851.17 2732.66 1855.48 2740.23 1857.84 2749.31L1836.8 2753.07C1835.08 2746.82 1831.97 2741.95 1827.47 2738.45C1822.94 2735.03 1817.6 2732.81 1811.47 2731.82C1805.3 2730.89 1798.87 2731.02 1792.19 2732.22C1784.41 2733.61 1777.65 2736.12 1771.93 2739.75C1766.21 2743.43 1761.96 2747.86 1759.19 2753.05C1756.42 2758.3 1755.6 2763.99 1756.73 2770.12C1757.76 2775.7 1760.17 2779.97 1763.94 2782.91C1767.71 2785.85 1772.34 2787.97 1777.84 2789.24C1783.34 2790.52 1789.2 2791.45 1795.42 2792.03L1817.23 2794.24C1831.08 2795.66 1842.48 2799.19 1851.45 2804.82C1860.41 2810.46 1865.94 2818.94 1868.04 2830.27C1869.78 2839.69 1868.74 2848.35 1864.94 2856.27C1861.1 2864.25 1855.2 2870.96 1847.26 2876.4C1839.28 2881.9 1829.92 2885.61 1819.18 2887.54C1808.33 2889.48 1798.32 2889.26 1789.17 2886.89C1780.02 2884.56 1772.37 2880.51 1766.2 2874.71C1759.98 2868.93 1755.95 2861.81 1754.11 2853.38L1773.84 2849.85Z" fill="#11538C"/>
<path d="M1526.96 2917.11L1506.28 2917.52L1504 2804.43C1503.77 2792.75 1506.31 2782.27 1511.63 2772.99C1516.9 2763.77 1524.45 2756.41 1534.3 2750.94C1544.15 2745.51 1555.77 2742.67 1569.17 2742.41C1582.57 2742.14 1594.3 2744.53 1604.35 2749.56C1614.41 2754.64 1622.29 2761.69 1627.97 2770.7C1633.61 2779.77 1636.54 2790.14 1636.78 2801.81L1639.05 2914.9L1618.37 2915.31L1616.13 2803.89C1615.96 2795.55 1613.97 2788.16 1610.17 2781.73C1606.37 2775.35 1601.05 2770.37 1594.19 2766.78C1587.28 2763.24 1579.07 2761.57 1569.56 2761.76C1560.05 2761.94 1551.91 2763.94 1545.15 2767.74C1538.38 2771.6 1533.26 2776.79 1529.78 2783.31C1526.24 2789.89 1524.55 2797.35 1524.72 2805.69L1526.96 2917.11Z" fill="#11538C"/>
<path d="M1386.36 2916.75L1361.91 2912.86L1327.24 2763.38L1325.25 2763.07L1244.96 2894.25L1220.52 2890.36L1247.99 2721.3L1267.15 2724.35L1246.28 2852.8L1247.93 2853.06L1321.66 2733.03L1340.16 2735.97L1372.15 2872.83L1373.8 2873.09L1394.67 2744.64L1413.84 2747.69L1386.36 2916.75Z" fill="#11538C"/>
<path d="M1081.1 2857.11L1058.01 2848.17L1055.3 2694.57L1053.43 2693.84L947.521 2805.37L924.424 2796.43L986.584 2636.73L1004.69 2643.74L957.46 2765.07L959.02 2765.68L1056.18 2663.69L1073.66 2670.46L1076.37 2811.13L1077.93 2811.74L1125.16 2690.4L1143.26 2697.41L1081.1 2857.11Z" fill="#11538C"/>
<path d="M889.386 2594.48L798.332 2739.71L710.586 2684.92L720.367 2669.31L790.507 2713.12L821.273 2664.04L755.676 2623.08L765.458 2607.48L831.054 2648.44L861.998 2599.09L790.722 2554.58L800.503 2538.98L889.386 2594.48Z" fill="#11538C"/>
<path d="M711.915 2479.99L598.604 2608.05L555.161 2569.96C545.116 2561.15 538.384 2552.21 534.963 2543.14C531.505 2534.12 530.847 2525.28 532.987 2516.65C535.128 2508.02 539.536 2499.93 546.212 2492.38C552.889 2484.84 560.357 2479.5 568.618 2476.38C576.879 2473.26 585.687 2472.84 595.041 2475.12C604.358 2477.44 613.998 2482.97 623.959 2491.7L659.115 2522.53L646.722 2536.53L612.067 2506.15C605.204 2500.13 598.794 2496.29 592.838 2494.62C586.84 2492.91 581.277 2493.07 576.148 2495.09C570.94 2497.11 566.067 2500.68 561.53 2505.81C556.994 2510.94 553.991 2516.26 552.523 2521.79C551.055 2527.31 551.512 2532.97 553.895 2538.76C556.241 2544.59 560.888 2550.55 567.835 2556.64L595.207 2580.64L696.346 2466.34L711.915 2479.99ZM600.494 2484.45L619.755 2399.19L637.835 2415.04L618.073 2499.87L600.494 2484.45Z" fill="#11538C"/>
<path d="M362.413 2346.8L347.129 2356.87L275.97 2250.72L291.254 2240.65L321.089 2285.15L448.085 2201.46L459.574 2218.6L332.578 2302.29L362.413 2346.8Z" fill="#11538C"/>
<path d="M210.17 2136.67L363.288 2059.67L372.692 2078.17L219.574 2155.17L210.17 2136.67Z" fill="#11538C"/>
<path d="M160.902 2043.86L153.286 2020.4L270.107 1921.52L269.489 1919.62L116.849 1908.19L109.233 1884.73L271.543 1832.05L277.513 1850.44L154.195 1890.46L154.71 1892.04L294.496 1902.74L300.26 1920.5L193.41 2011.24L193.925 2012.82L317.243 1972.8L323.213 1991.19L160.902 2043.86Z" fill="#11538C"/>
<path d="M247.207 1728.34L77.2677 1747.12L66.035 1644.55L84.2901 1642.53L93.2691 1724.52L150.69 1718.18L142.293 1641.5L160.548 1639.48L168.945 1716.16L226.698 1709.78L217.573 1626.46L235.828 1624.44L247.207 1728.34Z" fill="#11538C"/>
</g>
<defs>
<clipPath id="clip0_82_2421">
<rect width="3069" height="2965" fill="white"/>
</clipPath>
</defs>
</svg>
